<?xml version="1.0" encoding="utf-8"?>
<!-- Generator: Adobe Illustrator 17.0.0, SVG Export Plug-In . SVG Version: 6.00 Build 0)  -->
<!DOCTYPE svg PUBLIC "-//W3C//DTD SVG 1.1//EN" "http://www.w3.org/Graphics/SVG/1.1/DTD/svg11.dtd">
<svg version="1.1" id="Layer_1" xmlns="http://www.w3.org/2000/svg" xmlns:xlink="http://www.w3.org/1999/xlink" x="0px" y="0px"
	 width="534.1px" height="243px" viewBox="0 0 534.1 243" enable-background="new 0 0 534.1 243" xml:space="preserve">
<g display="none">
	<polygon display="inline" fill="#004B8D" points="773,88.6 772.9,88.6 773,88.6 	"/>
	<polygon display="inline" fill="#004B8D" points="772.9,88.6 772.9,88.6 772.9,88.6 	"/>
	<polygon display="inline" fill="#EEB111" points="827.2,137.1 869.2,137.1 821.9,131.6 827.3,137 	"/>
	<polygon display="inline" fill="#EEB111" points="844.1,107.3 807.5,117.2 815,124.7 	"/>
	<polygon display="inline" fill="#EEB111" points="840.1,70.7 796,105.7 804.7,114.4 	"/>
	<polygon display="inline" fill="#EEB111" points="803.1,65.1 785.7,95.4 793.4,103.1 	"/>
	<polygon display="inline" fill="#EEB111" points="723.9,131.6 676.6,137.1 718.5,137.1 718.7,136.8 	"/>
	<polygon display="inline" fill="#EEB111" points="701.8,107.3 730.9,124.7 738.4,117.2 	"/>
	<polygon display="inline" fill="#EEB111" points="705.8,70.7 741.1,114.4 749.8,105.7 	"/>
	<polygon display="inline" fill="#EEB111" points="742.7,65.1 752.5,103.1 760.2,95.4 	"/>
	<polygon display="inline" fill="#EEB111" points="772.9,42.4 772.9,42.5 772.9,42.5 	"/>
	<polygon display="inline" fill="#EEB111" points="772.9,42.4 772.9,42.5 772.9,42.5 	"/>
	<path display="inline" fill="#004B8D" d="M822.1,137l-49.2-48.4L723.8,137H753c0.1-11,9-19.9,20-19.9c11,0,19.9,8.9,20,19.9H822.1z
		"/>
	<polygon display="inline" fill="#EEB111" points="767.6,87.9 772.9,42.5 778.2,87.9 772.9,82.6 	"/>
</g>
<g>
	<g>
		<polygon fill="#004B8D" points="267.9,86 267.9,86 267.9,86 		"/>
		<polygon fill="#004B8D" points="267.8,86 267.9,86 267.8,86 		"/>
		<polygon fill="#EEB111" points="339,149.6 394.1,149.6 332.1,142.5 339.1,149.5 		"/>
		<polygon fill="#EEB111" points="361.1,110.5 313.2,123.5 323,133.3 		"/>
		<polygon fill="#EEB111" points="355.9,62.5 298.1,108.4 309.5,119.9 		"/>
		<polygon fill="#EEB111" points="307.4,55.2 284.6,94.9 294.7,105 		"/>
		<polygon fill="#EEB111" points="203.5,142.5 141.6,149.6 196.5,149.6 196.8,149.2 		"/>
		<polygon fill="#EEB111" points="174.6,110.5 212.7,133.3 222.5,123.5 		"/>
		<polygon fill="#EEB111" points="179.8,62.5 226.2,119.8 237.6,108.4 		"/>
		<polygon fill="#EEB111" points="228.3,55.2 241,105 251.1,94.9 		"/>
		<polygon fill="#EEB111" points="267.9,25.5 267.8,25.5 267.9,25.6 		"/>
		<polygon fill="#EEB111" points="267.8,25.5 267.8,25.6 267.8,25.5 		"/>
		<path fill="#004B8D" d="M332.4,149.6L267.8,86l-64.5,63.5h38.3c0.1-14.4,11.8-26.1,26.3-26.1c14.5,0,26.2,11.7,26.3,26.1H332.4z"
			/>
		<polygon fill="#EEB111" points="260.9,85.1 267.8,25.5 274.8,85.1 267.8,78.2 		"/>
	</g>
	<g>
		<g>
			<path fill="#004B8D" d="M51.6,166.5c6.3,0,11.2,1.6,14.5,1.6c2.5,0,4.3-0.6,6.2-1.6v19.1c0,0.1,0,0.1-0.1,0.1s-0.1-0.1-0.2-0.1
				c-5.7-7.7-11.6-11.6-19-11.6c-7.9,0-16.1,3.5-16.1,16.9c0,11.4,8,14.9,17.1,14.9c9.1,0,16.2-3.7,21-8.8l0.3,0.1
				c-0.1,10.6-7.9,17.3-24.6,17.3c-13.2,0-27.5-5.6-27.5-23.8C23.2,174.6,35.7,166.5,51.6,166.5z"/>
			<path fill="#004B8D" d="M81.6,174c0-2.5-2-4.8-5.1-6.4h39.3c2.9,0,4.5-0.3,6.6-1v14.5c-3.2-5-9.4-6.9-18.8-6.9
				c-7.3,0-9,1.7-9,4.5v7.2c1.3,0.1,3.5,0.1,6.1,0.1c6.8,0,9.3-0.7,13.4-3.9v14.2c-3.2-2.9-7.7-3.7-13.4-3.7c-2.2,0-4.4,0.1-6.1,0.1
				V207c0,2.5,2,4.8,5.1,6.4H76.5c3.1-1.6,5.1-4,5.1-6.4V174z"/>
			<path fill="#004B8D" d="M128.5,174c0-2.5-2-4.8-5.1-6.4h45.2c2.9,0,4.5-0.3,6.6-1v15.4c-5.6-5.8-11.6-7.8-22.9-7.8
				c-7.9,0-10.8,1.4-10.8,5.1v6.5c2,0.1,4.6,0.2,6.9,0.2c7.4,0,12.8-0.6,16.4-4.1v14.7c-3.6-3.4-9-4-16.4-4c-2.3,0-4.9,0.1-6.9,0.2
				v8.8c0,3.8,2.4,5.2,12.1,5.2c11.5,0,18.6-2.7,23.8-9.6v17.7c-1.9-1-4.2-1.5-9.4-1.5h-44.6c3.1-1.6,5.1-4,5.1-6.4V174z"/>
		</g>
		<g>
			<path fill="#004B8D" d="M195.8,213c3.8-2.7,6.7-7.7,8.5-11.3l16.4-29.8c0.5-1,0.9-2.1,0.9-2.9c0-0.5-0.2-1-0.9-1.4H240
				c-0.5,0.3-0.7,0.7-0.7,1.1c0,0.7,0.8,2.9,1.8,4.7l14,28.3c1.8,3.5,4.7,8.6,8.4,11.3h-22.6c1.9-1.6,2.6-3.5,2.6-5.3
				c0-1.2-0.3-2.9-1.2-3.8h-26c-0.9,1-1.6,2.6-1.6,4.2c0,2,1.3,3.9,3.1,4.9H195.8z M239.1,197.3l-9.3-19.6h-0.2l-9.8,19.6H239.1z"/>
			<path fill="#004B8D" d="M269.8,174.7c0-3.1-1.3-5.5-5.4-7.4c3.1,0.3,5.6,0.4,9.6,0.4c3.3,0,15.8-0.4,21.2-0.4
				c19.4,0,24.5,6.4,24.5,11.8c0,5.8-3.9,9.5-12.5,11c6.2,1.8,10,3.5,11.4,14c0.5,4,1.9,6.8,6,8.9H311c-4.3,0-5.2-1.8-6.1-9.4
				c-1.2-8.3-3.9-10.1-15.5-10.1h-5.9v12.1c0,3.3,2.3,5.7,6,7.4H265c3.4-1.9,4.7-3.3,4.7-6.7V174.7z M283.5,187h4.3
				c12.4,0,18.2-1.6,18.2-6.6c0-4.5-3.9-6.6-13.9-6.6c-6.6,0-8.6,1.3-8.6,2.8V187z"/>
			<path fill="#004B8D" d="M331.9,174c0-2.4-2-4.8-5.1-6.4h45.4c2.9,0,4.5-0.3,6.6-1v15.2c-5.6-5.8-11.6-7.7-23-7.7
				c-7.9,0-10.8,1.4-10.8,5.1v6.4c2,0.1,4.6,0.2,6.9,0.2c7.4,0,12.8-0.6,16.5-4v14.5c-3.6-3.3-9-3.9-16.5-3.9
				c-2.3,0-4.9,0.1-6.9,0.2v8.7c0,3.7,2.4,5.1,12.1,5.1c11.5,0,18.7-2.6,23.9-9.5v17.5c-1.9-1-4.2-1.4-9.4-1.4h-44.8
				c3.1-1.6,5.1-3.9,5.1-6.4V174z"/>
			<path fill="#004B8D" d="M388.5,174c0-2.4-2.1-4.8-5.4-6.4h24.5c-0.2,0.5-0.4,1-0.4,1.6c0,0.7,0.4,1.7,1.3,2.8l19.2,25.6h0.2
				v-19.1c0-5.8-1.3-8.4-7.1-11h25.5c-3.3,1.6-5.4,3.9-5.4,6.4v35.8c0,1.6,0.4,2.6,1.5,3.2h-18.1c0.3-0.3,0.5-0.7,0.5-1.2
				c0-0.5-0.8-1.6-1.7-2.8l-21.4-28.6h-0.2v21.6c0,5.8,1.3,8.4,7.1,11h-25.5c3.3-1.6,5.4-3.9,5.4-6.4V174z"/>
			<path fill="#004B8D" d="M444.9,213c3.8-2.7,6.7-7.7,8.5-11.3l16.4-29.8c0.5-1,0.9-2.1,0.9-2.9c0-0.5-0.2-1-0.9-1.4H489
				c-0.5,0.3-0.7,0.7-0.7,1.1c0,0.7,0.8,2.9,1.8,4.7l14,28.3c1.8,3.5,4.7,8.6,8.4,11.3h-22.6c1.9-1.6,2.6-3.5,2.6-5.3
				c0-1.2-0.3-2.9-1.2-3.8h-26c-0.9,1-1.6,2.6-1.6,4.2c0,2,1.3,3.9,3.1,4.9H444.9z M488.2,197.3l-9.3-19.6h-0.2l-9.8,19.6H488.2z"/>
		</g>
	</g>
</g>
<g>
	<path display="none" fill="#EEB111" d="M1124.5-1677.8l-5.3-5.3l47.3,5.4L1124.5-1677.8L1124.5-1677.8z M1141.3-1707.5l-36.6,9.9
		l7.5,7.5L1141.3-1707.5z M1137.3-1744.1l-44.1,35l8.7,8.7L1137.3-1744.1z M1100.4-1749.6l-17.4,30.3l7.7,7.7L1100.4-1749.6z
		 M1021.1-1683.1l-47.3,5.4h41.9l0.2-0.3L1021.1-1683.1z M999-1707.5l29.1,17.4l7.5-7.5L999-1707.5z M1003.1-1744.1l35.3,43.7
		l8.7-8.7L1003.1-1744.1z M1040-1749.6l9.7,38l7.7-7.7L1040-1749.6z M1070.2-1772.3L1070.2-1772.3L1070.2-1772.3L1070.2-1772.3z
		 M1070.2-1772.3L1070.2-1772.3L1070.2-1772.3L1070.2-1772.3z M1070.2-1732.1l5.3,5.3l-5.3-45.5l-5.3,45.5L1070.2-1732.1z"/>
</g>
<g>
	<path display="none" fill="#EEB111" d="M1979.9-1771.5l-12.8-9.6l113.3,9.7h-100.6L1979.9-1771.5z M2020.1-1824.9l-87.6,17.8
		l18,13.5L2020.1-1824.9z M2010.5-1890.8l-105.5,63l20.9,15.7L2010.5-1890.8z M1922.1-1900.8l-41.8,54.5l18.5,13.9L1922.1-1900.8z
		 M1732.4-1781.1l-113.2,9.7h100.3l0.6-0.5L1732.4-1781.1z M1679.4-1824.9l69.6,31.3l18-13.5L1679.4-1824.9z M1689-1890.8l84.6,78.7
		l20.9-15.7L1689-1890.8z M1777.5-1900.8l23.3,68.3l18.5-13.9L1777.5-1900.8z M1849.8-1941.6L1849.8-1941.6v0.2V-1941.6z
		 M1849.8-1941.6v0.2V-1941.6L1849.8-1941.6z M1849.8-1869.3l12.7,9.6l-12.7-81.8l-12.8,81.8L1849.8-1869.3z"/>
</g>
<path display="none" fill="#004B8D" d="M1427.6,464.4h-29.3l-6-6.1v-31.6l6-6.1h29.3l6.1,6.1v13.4h-15.5v-8.6h-10.3v22.1h10.3V445
	h15.5v13.4L1427.6,464.4z"/>
<path display="none" fill="#004B8D" d="M1454.2,431.6v7.2h16.5v10.8h-16.5v14.8h-15.5v-37.6l6.1-6.1h28.2v10.8H1454.2z"/>
<g>
	<path display="none" fill="#EEB111" d="M1134,423.5l-5.3-5.3l47.3,5.4L1134,423.5L1134,423.5z M1150.8,393.8l-36.6,9.9l7.5,7.5
		L1150.8,393.8z M1146.7,357.2l-44.1,35l8.7,8.7L1146.7,357.2z M1109.8,351.6l-17.4,30.3l7.7,7.7L1109.8,351.6z M1030.6,418.1
		l-47.3,5.4h41.9l0.2-0.3L1030.6,418.1z M1008.5,393.8l29.1,17.4l7.5-7.5L1008.5,393.8z M1012.5,357.2l35.3,43.7l8.7-8.7
		L1012.5,357.2z M1049.4,351.6l9.7,38l7.7-7.7L1049.4,351.6z M1079.6,328.9L1079.6,328.9L1079.6,328.9L1079.6,328.9z M1079.6,328.9
		L1079.6,328.9L1079.6,328.9L1079.6,328.9z M1079.6,369.1l5.3,5.3l-5.3-45.5l-5.3,45.5L1079.6,369.1z"/>
</g>
<g>
	<g>
		<g>
			<path display="none" fill="#004B8D" d="M959.5-1364.1h-37.7l-7.8-7.8v-40.7l7.8-7.8h37.7l7.8,7.8v17.2h-20v-11.1H934v28.5h13.3
				v-11.2h20v17.3L959.5-1364.1z"/>
		</g>
	</g>
	<g>
		<path display="none" fill="#EEB111" d="M1124.5-1429l-5.3-5.3l47.3,5.4L1124.5-1429L1124.5-1429z M1141.3-1458.7l-36.6,9.9
			l7.5,7.5L1141.3-1458.7z M1137.3-1495.3l-44.1,35l8.7,8.7L1137.3-1495.3z M1100.4-1500.8l-17.4,30.3l7.7,7.7L1100.4-1500.8z
			 M1021.1-1434.3l-47.3,5.4h41.9l0.2-0.3L1021.1-1434.3z M999-1458.7l29.1,17.4l7.5-7.5L999-1458.7z M1003.1-1495.3l35.3,43.7
			l8.7-8.7L1003.1-1495.3z M1040-1500.8l9.7,38l7.7-7.7L1040-1500.8z M1070.2-1523.5L1070.2-1523.5L1070.2-1523.5L1070.2-1523.5z
			 M1070.2-1523.5L1070.2-1523.5L1070.2-1523.5L1070.2-1523.5z M1070.2-1483.3l5.3,5.3l-5.3-45.5l-5.3,45.5L1070.2-1483.3z"/>
	</g>
</g>
<g display="none">
	<g display="inline">
		<path fill="#004B8D" d="M1375.6-32.3h-37.7l-7.8-7.8v-40.7l7.8-7.8h37.7l7.8,7.8v17.2h-20v-11.1h-13.3v28.5h13.3v-11.2h20v17.3
			L1375.6-32.3z"/>
		<path fill="#004B8D" d="M1409.8-74.7v9.3h21.2v13.9h-21.2v19.1h-20v-48.5l7.8-7.8h36.3v13.9H1409.8z"/>
		<path fill="#004B8D" d="M1447.2-32.3l-7.8-7.8v-40.7l7.8-7.8h37.5v13.9h-25.2v9.3h22.4v13.9h-22.4v5.2h25.2v13.9H1447.2z"/>
	</g>
	<g display="inline">
		<g>
			<polygon fill="#002D56" points="1565.5,-79.1 1578,-79.1 1578,-88.7 1560.3,-88.7 1554.9,-83.3 1554.9,-37.8 1560.3,-32.3 
				1578,-32.3 1578,-42 1565.5,-42 1565.5,-56.3 1576.6,-56.3 1576.6,-66 1565.5,-66 			"/>
			<path fill="#002D56" d="M1551-32.3l-3.2-24.2l2.2-2.6v-24.2l-5.4-5.4h-22.1v56.4h10.6v-20.9h4.1h0l2.8,20.9H1551z M1533-62.9
				v-16.1h6.3v16.1H1533z"/>
			<path fill="#002D56" d="M1637.1-88.7h-16.7l-5.4,5.4v51h10.6v-20.9h6.3v20.9h10.6v-51L1637.1-88.7z M1631.9-62.9h-6.3v-16.1h6.3
				V-62.9z"/>
		</g>
		<path fill="#002D56" d="M1517.5-83.3l-5.4-5.4h-16.7l-5.4,5.4v51h10.6v-20.9h6.3v20.9h10.6V-54V-83.3z M1500.6-79.1h6.3v16.1h-6.3
			V-79.1z"/>
		<polygon fill="#002D56" points="1600.5,-88.7 1600.5,-63.8 1591.4,-88.8 1591.2,-88.7 1583,-88.7 1583,-32.3 1592.5,-32.3 
			1592.5,-57.5 1601.7,-32.4 1601.7,-32.3 1610.1,-32.3 1610.1,-88.7 		"/>
	</g>
</g>
<path display="none" fill="#EEB111" d="M1020,906.8l-11.2-11.2l98.9,11.3h-87.9L1020,906.8z M1055.1,844.7l-76.5,20.7l15.7,15.7
	L1055.1,844.7z M1046.7,768.1l-92.1,73.2l18.2,18.2L1046.7,768.1z M969.4,756.5L933,819.8l16.1,16.2L969.4,756.5z M803.8,895.6
	L705,906.9h87.5l0.5-0.5L803.8,895.6z M757.6,844.7l60.8,36.4l15.7-15.7L757.6,844.7z M766,768.1l73.9,91.4l18.2-18.2L766,768.1z
	 M843.2,756.5l20.3,79.4l16.1-16.1L843.2,756.5z M906.3,709.1L906.3,709.1v0.2V709.1z M906.3,709.1v0.2V709.1L906.3,709.1z
	 M906.3,793.1l11.1,11.1l-11.1-95.1l-11.1,95.1L906.3,793.1z"/>
<rect x="1359.3" y="171.9" display="none" opacity="0.64" fill="#FFFFFF" width="156.2" height="63.1"/>
<g display="none" opacity="0.17">
	<path display="inline" d="M1750.6,857.7c-0.4,0.3-0.6,0.6-0.6,1v24.6c0,0.4,0.2,0.7,0.6,1c0.4,0.3,0.9,0.4,1.5,0.4h34.7
		c0.6,0,1.1,0.1,1.5,0.4c0.4,0.3,0.6,0.6,0.6,1v10c0,0.4-0.2,0.7-0.6,1c-0.4,0.3-0.9,0.4-1.5,0.4h-22.6h-18.6h-1.9
		c-1.7,0-3.4-0.2-4.9-0.7c-1.5-0.5-2.9-1.1-4-1.9c-1.2-0.8-2-1.8-2.7-2.8c-0.6-1.1-1-2.2-1-3.5v-1.4v-5.5v-17.7v-4.9v-5.9
		c0-1.2,0.3-2.4,1-3.5c0.6-1.1,1.5-2,2.7-2.8c1.2-0.8,2.5-1.4,4-1.9c1.5-0.5,3.2-0.7,4.9-0.7h1.9h41.1c0.6,0,1.1,0.1,1.5,0.4
		c0.4,0.3,0.6,0.6,0.6,1v10c0,0.4-0.2,0.7-0.6,1c-0.4,0.3-0.9,0.4-1.5,0.4h-34.7C1751.5,857.3,1751,857.4,1750.6,857.7z"/>
	<path display="inline" d="M1852.3,844.8c0.4,0.3,0.6,0.6,0.6,1v10c0,0.4-0.2,0.7-0.6,1c-0.4,0.3-0.9,0.4-1.5,0.4h-36.2
		c-0.4,0-0.5,0.1-0.5,0.3v8.3c0,0.3,0.2,0.4,0.5,0.4h27.4c0.6,0,1,0.1,1.4,0.4c0.4,0.3,0.5,0.6,0.5,1v9.5c0,0.4-0.2,0.7-0.5,1
		c-0.4,0.3-0.8,0.4-1.4,0.4h-27.4c-0.4,0-0.5,0.1-0.5,0.4v17.1c0,1-0.7,1.4-2.1,1.4h-14.9c-1.4,0-2.1-0.5-2.1-1.4v-50.3
		c0-1,0.7-1.4,2.1-1.4h53.7C1851.4,844.4,1851.9,844.5,1852.3,844.8z"/>
	<path display="inline" d="M1877,857.2v8.3c0,0.2,0.2,0.3,0.5,0.3h30.8c0.6,0,1.1,0.1,1.5,0.4c0.4,0.3,0.6,0.6,0.6,1v7.6
		c0,1-0.7,1.4-2.1,1.4h-30.8c-0.4,0-0.5,0.1-0.5,0.4v8.2c0,0.3,0.2,0.4,0.5,0.4h36.2c0.6,0,1.1,0.1,1.5,0.4c0.4,0.3,0.6,0.6,0.6,1
		v9.5c0,0.4-0.2,0.7-0.6,1c-0.4,0.3-0.9,0.4-1.5,0.4h-43.1c-1.7,0-3.4-0.2-4.9-0.7c-1.5-0.5-2.9-1.1-4-1.9c-1.2-0.8-2.1-1.8-2.7-2.8
		c-0.6-1.1-1-2.2-1-3.5v-35.4c0-1.2,0.3-2.4,1-3.5c0.6-1.1,1.5-2,2.7-2.8c1.2-0.8,2.5-1.4,4-1.9c1.5-0.5,3.2-0.7,4.9-0.7h43.1
		c0.6,0,1.1,0.1,1.5,0.4c0.4,0.3,0.6,0.6,0.6,1v9.6c0,0.4-0.2,0.7-0.6,1c-0.4,0.3-0.9,0.4-1.5,0.4h-36.2
		C1877.2,856.8,1877,856.9,1877,857.2z"/>
</g>
<path display="none" d="M1918.7,903.1c0.3,0.3,0.4,0.6,0.4,1v50.3c0,0.4-0.1,0.7-0.4,1c-0.3,0.3-0.6,0.4-1,0.4h-10h-0.9
	c-0.4,0-0.8-0.1-1.2-0.3c-0.4-0.2-0.7-0.5-0.9-0.9l-16.8-31v30.8c0,1-0.5,1.4-1.4,1.4h-10.5c-1,0-1.4-0.5-1.4-1.4v-50.3
	c0-1,0.5-1.4,1.4-1.4h10.8c0.4,0,0.8,0.1,1.2,0.3c0.4,0.2,0.7,0.5,0.9,0.9l16.9,31.1v-30.9c0-0.4,0.1-0.7,0.4-1
	c0.3-0.3,0.6-0.4,1-0.4h10.6C1918.1,902.7,1918.4,902.8,1918.7,903.1z"/>
<path display="none" d="M1918.7,903.1c0.3,0.3,0.4,0.6,0.4,1v50.3c0,0.4-0.1,0.7-0.4,1c-0.3,0.3-0.6,0.4-1,0.4h-10h-0.9
	c-0.4,0-0.8-0.1-1.2-0.3c-0.4-0.2-0.7-0.5-0.9-0.9l-16.8-31v30.8c0,1-0.5,1.4-1.4,1.4h-10.5c-1,0-1.4-0.5-1.4-1.4v-50.3
	c0-1,0.5-1.4,1.4-1.4h10.8c0.4,0,0.8,0.1,1.2,0.3c0.4,0.2,0.7,0.5,0.9,0.9l16.9,31.1v-30.9c0-0.4,0.1-0.7,0.4-1
	c0.3-0.3,0.6-0.4,1-0.4h10.6C1918.1,902.7,1918.4,902.8,1918.7,903.1z"/>
<g display="none">
	<g display="inline">
		<path fill="#004B8D" d="M1915,598.5c0.5,0.8,1.3,1.4,2.2,1.9c0.9,0.5,2,0.7,3.2,0.7h1.4h13.1h10.2h5.7h1.2h15.9
			c0.4,0,0.8-0.1,1.2-0.4c0.4-0.3,0.6-0.6,0.8-1l3.3-10c0.1-0.4,0.1-0.7-0.1-1c-0.2-0.3-0.5-0.4-0.9-0.4H1955h-5.7h-18.7
			c-0.4,0-0.7-0.1-0.9-0.4c-0.2-0.3-0.2-0.6-0.1-1l8.2-24.6c0.1-0.4,0.4-0.7,0.7-1c0.4-0.3,0.7-0.4,1.2-0.4h18.7h5.7h17.1
			c0.4,0,0.8-0.1,1.2-0.4c0.4-0.3,0.6-0.6,0.8-1l3.3-10c0.1-0.4,0.1-0.7-0.1-1c-0.2-0.3-0.5-0.4-0.9-0.4h-17.1h-5.7h-23.2h-1.4
			c-1.2,0-2.4,0.2-3.7,0.7c-1.3,0.5-2.4,1.1-3.5,1.9c-1.1,0.8-2,1.7-2.8,2.8c-0.8,1.1-1.4,2.2-1.8,3.5l-1.9,5.9l-1.6,4.9l-5.9,17.7
			l-1.8,5.5l-0.5,1.4c-0.4,1.2-0.6,2.4-0.5,3.5C1914.1,596.7,1914.4,597.7,1915,598.5z"/>
	</g>
	<g display="inline">
		<path fill="#004B8D" d="M1976.7,601.1h10.5c1,0,1.6-0.5,1.9-1.4l5.7-17.1c0.1-0.3,0.3-0.4,0.5-0.4h17h0.4h1.8h9.7h7.7
			c0.4,0,0.8-0.1,1.1-0.4c0.3-0.3,0.6-0.6,0.7-1l3.2-9.5c0.1-0.4,0.1-0.7,0-1c-0.2-0.3-0.4-0.4-0.8-0.4h-7.7l0,0h-9.6
			c-0.1,0-0.1,0-0.1,0h-19.3c-0.3,0-0.3-0.1-0.3-0.4l2.8-8.3c0.1-0.2,0.2-0.3,0.5-0.3h17l0,0h0.3c0,0,0.1,0,0.1,0h8h17.5
			c0.4,0,0.8-0.1,1.2-0.4c0.4-0.3,0.6-0.6,0.8-1l3.3-10c0.1-0.4,0.1-0.7-0.1-1c-0.2-0.3-0.5-0.4-0.9-0.4h-17.5h-8.4h-29.3
			c-1,0-1.6,0.5-1.9,1.4l-16.8,50.3C1975.4,600.6,1975.8,601.1,1976.7,601.1z"/>
	</g>
	<g display="inline">
		<path fill="#004B8D" d="M2113.2,548.3c-0.2-0.3-0.5-0.4-0.9-0.4h-16.9h-4h-26.3c-1.2,0-2.5,0.2-3.7,0.7c-1.2,0.5-2.4,1.1-3.5,1.9
			c-1.1,0.8-2,1.7-2.8,2.8c-0.8,1.1-1.4,2.2-1.8,3.5l-11.8,35.4c-0.4,1.2-0.6,2.4-0.5,3.5c0.1,1.1,0.4,2,1,2.8
			c0.5,0.8,1.3,1.4,2.2,1.9c0.9,0.5,2,0.7,3.2,0.7h26.3h4h16.9c0.4,0,0.8-0.1,1.2-0.4c0.4-0.3,0.6-0.6,0.8-1l3.2-9.5
			c0.1-0.4,0.1-0.7-0.1-1c-0.2-0.3-0.5-0.4-0.9-0.4h-16.9h-4h-21.4c-0.3,0-0.3-0.1-0.3-0.4l2.7-8.2c0.1-0.3,0.3-0.4,0.5-0.4h21.4
			h0.2h16.9c1,0,1.6-0.5,1.9-1.4l2.5-7.6c0.1-0.4,0.1-0.7-0.1-1c-0.2-0.3-0.5-0.4-0.9-0.4h-16.9h-0.2h-21.4c-0.3,0-0.3-0.1-0.3-0.3
			l2.8-8.3c0.1-0.3,0.3-0.4,0.5-0.4h21.4h4h16.9c0.4,0,0.8-0.1,1.2-0.4c0.4-0.3,0.6-0.6,0.7-1l3.2-9.6
			C2113.4,548.9,2113.4,548.6,2113.2,548.3z"/>
	</g>
	<g display="inline">
		<path fill="#004B8D" d="M1941.6,612.3c-0.1-1.1-0.4-2-1-2.8c-0.5-0.8-1.2-1.4-2.2-1.9c-0.9-0.5-2-0.7-3.2-0.7h-7.3h-4.8h-4.9
			c-1.2,0-2.4,0.2-3.7,0.7c-1.3,0.5-2.4,1.1-3.5,1.9c-1.1,0.8-2,1.7-2.8,2.8c-0.8,1.1-1.4,2.2-1.8,3.5l-14.3,42.9
			c-0.3,1,0,1.4,1,1.4h10.5c1,0,1.6-0.5,1.9-1.4l4.5-13.6c0.1-0.4,0.4-0.7,0.8-1c0.4-0.3,0.8-0.4,1.2-0.4h3.7h1.4
			c0.4,0,0.7,0.1,0.8,0.4c0.2,0.3,0.2,0.6,0,1l-4.5,13.6c-0.1,0.4-0.1,0.7,0.1,1c0.2,0.3,0.5,0.4,0.9,0.4h10.6
			c0.4,0,0.8-0.1,1.2-0.4c0.4-0.3,0.6-0.6,0.8-1l14.3-42.9C1941.5,614.5,1941.7,613.4,1941.6,612.3z M1922.2,632.2h-2.7h-4.8h-0.4
			l4.5-13.4h0.4h4.8h2.7L1922.2,632.2z"/>
	</g>
	<g display="inline">
		<path fill="#004B8D" d="M2090.6,609.5c-0.5-0.8-1.3-1.4-2.2-1.9c-0.9-0.5-2-0.7-3.2-0.7h-7.3h-4.8h-4.9c-1.2,0-2.5,0.2-3.7,0.7
			c-1.3,0.5-2.4,1.1-3.5,1.9c-1.1,0.8-2,1.7-2.8,2.8c-0.8,1.1-1.4,2.2-1.8,3.5l-14.3,42.9c-0.3,1,0,1.4,1,1.4h10.5
			c1,0,1.6-0.5,1.9-1.4l4.5-13.6c0.1-0.4,0.4-0.7,0.8-1c0.4-0.3,0.8-0.4,1.2-0.4h3.7h1.4c0.4,0,0.7,0.1,0.8,0.4c0.2,0.3,0.2,0.6,0,1
			l-4.5,13.6c-0.1,0.4-0.1,0.7,0.1,1c0.2,0.3,0.5,0.4,0.9,0.4h10.6c0.4,0,0.8-0.1,1.2-0.4c0.4-0.3,0.6-0.6,0.8-1l14.3-42.9
			c0.4-1.2,0.5-2.4,0.4-3.5C2091.4,611.2,2091.1,610.3,2090.6,609.5z M2072.2,632.2h-2.7h-4.8h-0.4l4.5-13.4h0.4h4.8h2.7
			L2072.2,632.2z"/>
	</g>
	<g display="inline">
		<path fill="#004B8D" d="M1964.4,644.2l0.3-0.1c2-0.6,3.8-1.6,5.4-3.2c1.7-1.5,2.8-3.3,3.4-5.2l6.7-20c0.4-1.2,0.5-2.4,0.4-3.5
			c-0.1-1.1-0.4-2-1-2.8c-0.5-0.8-1.2-1.4-2.2-1.9c-0.9-0.5-2-0.7-3.2-0.7h-12.5h-11.8c-1,0-1.6,0.5-1.9,1.4l-16.8,50.3
			c-0.3,1,0,1.4,1,1.4h10.5c0.7,0,1.2-0.3,1.6-0.8l5-15c0,0,0,0,0,0.1l3.2,14.4c0.1,0.4,0.3,0.6,0.6,0.9c0.3,0.2,0.7,0.3,1.1,0.3
			h12.1c0.4,0,0.7-0.1,0.9-0.3c0.2-0.2,0.3-0.5,0.2-0.9l-3.4-14.1l0-0.2C1963.9,644.4,1964,644.3,1964.4,644.2z M1961.3,632.2h-8
			h-0.3l4.3-12.9h0.3h8L1961.3,632.2z"/>
	</g>
	<g display="inline">
		<path fill="#004B8D" d="M1989.8,639.1c0.1-0.3,0.3-0.4,0.5-0.4h6.1h5.5c1,0,1.6-0.5,1.9-1.4l2.5-7.6c0.1-0.4,0.1-0.7-0.1-1
			c-0.2-0.3-0.5-0.4-0.9-0.4h-5.5h-6.1c-0.3,0-0.3-0.1-0.3-0.3l2.8-8.3c0.1-0.3,0.3-0.4,0.5-0.4h6.1h9.3c0.4,0,0.8-0.1,1.2-0.4
			c0.4-0.3,0.6-0.6,0.7-1l3.2-9.6c0.1-0.4,0.1-0.7-0.1-1c-0.2-0.3-0.5-0.4-0.9-0.4h-9.3h-7h-4c-1.2,0-2.4,0.2-3.7,0.7
			c-1.2,0.5-2.4,1.1-3.5,1.9c-1.1,0.8-2,1.7-2.8,2.8c-0.8,1.1-1.4,2.2-1.8,3.5l-11.8,35.4c-0.4,1.2-0.6,2.4-0.5,3.5
			c0.1,1.1,0.4,2,1,2.8c0.5,0.8,1.3,1.4,2.2,1.9c0.9,0.5,2,0.7,3.2,0.7h4h7h9.3c0.4,0,0.8-0.1,1.2-0.4c0.4-0.3,0.6-0.6,0.8-1
			l3.2-9.5c0.1-0.4,0.1-0.7-0.1-1c-0.2-0.3-0.5-0.4-0.9-0.4h-9.3h-6.1c-0.3,0-0.3-0.1-0.3-0.4L1989.8,639.1z"/>
	</g>
	<g display="inline">
		<path fill="#004B8D" d="M2054.5,607H2044c-1,0-1.6,0.5-1.9,1.4l-6.8,20.3l-3.1-14.6l1.9-5.7c0.3-1,0-1.4-1-1.4h-10.5
			c-1,0-1.6,0.5-1.9,1.4l-14,41.9l-2.1,6.4l-0.6,1.9c-0.3,1,0,1.4,1,1.4h10.5c1,0,1.6-0.5,1.9-1.4l0.6-1.9l2.1-6.4l4.5-13.5
			l3.2,14.3l-1.9,5.6l-0.6,1.9c-0.3,1,0,1.4,1,1.4h10.5c1,0,1.6-0.5,1.9-1.4l0.6-1.9l2.1-6.4l14-41.9
			C2055.8,607.5,2055.4,607,2054.5,607z"/>
	</g>
</g>
<path display="none" fill="#002D56" d="M906.4,865.3c-22.8,0-41.3,18.2-41.8,40.9h83.6C947.7,883.5,929.2,865.3,906.4,865.3z"/>
<polygon display="none" fill="#002D56" points="948.3,906.9 1009.3,906.9 906.5,805.6 906.4,805.7 906.3,805.6 803.6,906.9 
	864.6,906.9 864.6,906.9 948.3,906.9 "/>
<g>
	<path display="none" fill="#EEB111" d="M2381.5-1747.6l-7.2-10.5l64,10.7h-56.9L2381.5-1747.6z M2404.2-1806.1l-49.5,19.5
		l10.2,14.8L2404.2-1806.1z M2398.8-1878.1l-59.7,68.9l11.8,17.2L2398.8-1878.1z M2348.7-1889.1l-23.6,59.6l10.5,15.2L2348.7-1889.1
		z M2241.5-1758.2l-64,10.7h56.7l0.3-0.5L2241.5-1758.2z M2211.5-1806.1l39.4,34.2l10.2-14.8L2211.5-1806.1z M2217-1878.1l47.8,86
		l11.8-17.1L2217-1878.1z M2267-1889.1l13.2,74.7l10.5-15.2L2267-1889.1z M2307.9-1933.7L2307.9-1933.7v0.2V-1933.7z M2307.9-1933.7
		v0.2V-1933.7L2307.9-1933.7z M2307.9-1854.6l7.2,10.4l-7.2-89.5l-7.2,89.5L2307.9-1854.6z"/>
</g>
<g display="none">
	<g display="inline">
		<polygon fill="#FFFFFF" points="2349.2,-210.9 2341.6,-221.6 2341.6,-268.9 2349.5,-278.9 2380,-273 2380,-252.7 2362.8,-255.3 
			2362.8,-252.9 2378.2,-251.1 2378.2,-231.2 2362.8,-232.2 2362.8,-231.4 2380,-230.6 2380,-210.9 		"/>
		<path fill="#FFFFFF" d="M2350.7-275.7l26.3,5.1v14.4l-17.2-2.6v8.6l15.3,1.8v14l-15.3-1v6.9l17.2,0.9v13.9h-26.3l-6.1-8.7v-45.3
			L2350.7-275.7 M2348.2-282.2l-2.3,2.9l-6.1,7.8l-1.3,1.6v2.1v45.3v1.9l1.1,1.6l6.1,8.7l1.8,2.5h3.1h26.3h6v-6v-13.9v-5.7l-1.9-0.1
			v-0.9v-14v-1.1l1.9,0.3v-7v-14.4v-4.9l-4.9-0.9l-26.3-5.1L2348.2-282.2L2348.2-282.2z"/>
	</g>
	<g display="inline">
		<polygon fill="#FFFFFF" points="2258.7,-210.9 2252,-220.7 2252,-263.2 2258.4,-273.8 2289.7,-279.6 2298,-269.8 2298,-246.5 
			2275.8,-244.3 2275.8,-256.1 2271.9,-255.6 2271.9,-231.5 2275.8,-231.7 2275.8,-243.7 2298,-245.5 2298,-221.7 2290,-210.9 		"/>
		<path fill="#FFFFFF" d="M2288.5-276.3l6.5,7.6v19.5l-16.2,1.7v-12l-9.9,1.4v29.8l9.9-0.5v-12.1l16.2-1.3v19.6l-6.5,8.8h-28.3
			l-5.3-7.8v-40.7l5.3-8.8L2288.5-276.3 M2290.8-282.9l-3.4,0.6l-28.3,5.2l-2.7,0.5l-1.4,2.3l-5.3,8.8l-0.9,1.4v1.7v40.7v1.8l1,1.5
			l5.3,7.8l1.8,2.6h3.2h28.3h3l1.8-2.4l6.5-8.8l1.2-1.6v-2v-19.6v-1.6v-5.4v-19.5v-2.2l-1.4-1.7l-6.5-7.6L2290.8-282.9L2290.8-282.9
			z"/>
	</g>
	<g display="inline">
		<polygon fill="#FFFFFF" points="2297.6,-210.9 2297.6,-270.5 2305.8,-282.6 2316.1,-284.5 2316.1,-285.7 2319,-285 2322.1,-285.6 
			2322.1,-284.4 2343.1,-279.8 2343.1,-258.2 2322,-261.4 2322,-257.2 2322.1,-256.3 2340.7,-254.1 2340.7,-232.4 2322,-233.7 
			2322,-210.9 		"/>
		<path fill="#FFFFFF" d="M2319.1-282v2.3V-282l21.1,4.6v15.7l-21.1-3.2v11l0,0v0.2l18.7,2.2v15.8l-18.7-1.3v23h-18.5v-55.7l7-10.3
			L2319.1-282 M2313.1-289.4l0,2.4l-6.6,1.2l-2.5,0.5l-1.4,2.1l-7,10.3l-1,1.5v1.8v55.7v6h6h18.5h6v-6v-16.6l12.3,0.8l6.4,0.4v-6.4
			v-15.8v-3.6l2.4,0.4v-7v-15.7v-4.8l-4.7-1l-16.3-3.5v-2.4l-6,1.1L2313.1-289.4L2313.1-289.4z"/>
	</g>
	<g display="inline">
		<polygon fill="#FFFFFF" points="2309,-160.5 2303,-166.5 2303,-204.7 2309,-210.8 2327.2,-210.8 2327.2,-197.2 2317.3,-197.2 
			2317.3,-192.9 2326,-192.9 2326,-179.3 2317.3,-179.3 2317.3,-174.1 2327.2,-174.1 2327.2,-160.5 		"/>
		<path fill="#FFFFFF" d="M2324.2-207.8v7.6h-9.8v10.3h8.7v7.6h-8.7v11.2h9.8v7.6h-13.9l-4.3-4.3v-35.8l4.3-4.3H2324.2
			 M2330.2-213.8h-6h-13.9h-2.5l-1.8,1.8l-4.3,4.3l-1.8,1.8v2.5v35.8v2.5l1.8,1.8l4.3,4.3l1.8,1.8h2.5h13.9h6v-6v-7.6v-6h-1.1v-5.2
			v-7.6v-4.3h1.1v-6v-7.6V-213.8L2330.2-213.8z"/>
	</g>
	<g display="inline">
		<polygon fill="#FFFFFF" points="2277.5,-160.5 2277.5,-210.8 2299.1,-210.8 2305.1,-204.7 2305.1,-183.4 2303.5,-181.6 
			2306.3,-160.5 		"/>
		<path fill="#FFFFFF" d="M2297.8-207.8l4.3,4.3v19l-1.7,2l2.5,19h-8.7l-2.2-16.4h0h-3.2v16.4h-8.3v-44.3H2297.8 M2288.8-187.5h4.9
			v-3.8v-8.9h-4.9v8.9V-187.5 M2300.3-213.8h-2.5h-17.3h-6v6v44.3v6h6h8.3h6h8.1h6.9l-0.9-6.8l-2.2-16.4l1.4-1.7v-2.2v-19v-2.5
			l-1.8-1.8l-4.3-4.3L2300.3-213.8L2300.3-213.8z"/>
	</g>
	<g display="inline">
		<polygon fill="#FFFFFF" points="2350.2,-160.5 2350.2,-204.7 2356.2,-210.8 2371.8,-210.8 2377.8,-204.7 2377.8,-160.5 		"/>
		<path fill="#FFFFFF" d="M2370.6-207.8l4.3,4.3v40h-8.3v-16.4h-4.9v16.4h-8.3v-40l4.3-4.3H2370.6 M2361.6-187.5h4.9v-12.7h-4.9
			V-187.5 M2373-213.8h-2.5h-13.1h-2.5l-1.8,1.8l-4.3,4.3l-1.8,1.8v2.5v40v6h6h8.3h6h7.3h6v-6v-40v-2.5l-1.8-1.8l-4.3-4.3
			L2373-213.8L2373-213.8z"/>
	</g>
	<g display="inline">
		<polygon fill="#FFFFFF" points="2252,-160.5 2252,-204.7 2258,-210.8 2273.6,-210.8 2279.6,-204.7 2279.6,-160.5 		"/>
		<path fill="#FFFFFF" d="M2272.3-207.8l4.3,4.3v23.1v17h-8.3v-16.4h-4.9v16.4h-8.3v-40l4.3-4.3H2272.3 M2263.3-187.5h4.9v-12.7
			h-4.9V-187.5 M2274.8-213.8h-2.5h-13.1h-2.5l-1.8,1.8l-4.3,4.3l-1.8,1.8v2.5v40v6h6h8.3h6h7.3h6v-6v-17v-23.1v-2.5l-1.8-1.8
			l-4.3-4.3L2274.8-213.8L2274.8-213.8z"/>
	</g>
	<g display="inline">
		<polygon fill="#FFFFFF" points="2339.8,-160.5 2339.8,-163 2338.6,-166.3 2338.6,-160.5 2325,-160.5 2325,-210.8 2333.9,-210.8 
			2336.4,-211.8 2338.8,-205.2 2338.8,-210.8 2352.4,-210.8 2352.4,-160.5 		"/>
		<path fill="#FFFFFF" d="M2334.7-207.8l7.2,19.6v-19.5h7.6v44.3h-6.6v-0.1l-7.2-19.7v19.8h-7.5v-44.3h6.5L2334.7-207.8
			 M2338.1-215.9l-4.8,2.1h-5.2h-6v6v44.3v6h6h7.5h6h1.2h6.6h6v-6v-44.3v-6h-6h-7.6h-2.9L2338.1-215.9L2338.1-215.9z"/>
	</g>
</g>
<g>
	<g>
		<path display="none" fill="#EEB111" d="M4732.1-1815.7l-9.9-13.4l87.9,13.6h-78.1L4732.1-1815.7z M4763.3-1890.1l-68,24.8
			l13.9,18.8L4763.3-1890.1z M4755.8-1981.8l-81.9,87.8l16.2,21.8L4755.8-1981.8z M4687.2-1995.8l-32.4,75.9l14.3,19.4
			L4687.2-1995.8z M4540-1829.1l-87.8,13.6h77.8l0.4-0.6L4540-1829.1z M4498.9-1890.1l54,43.6l13.9-18.8L4498.9-1890.1z
			 M4506.4-1981.8l65.7,109.6l16.2-21.8L4506.4-1981.8z M4575-1995.8l18.1,95.2l14.3-19.3L4575-1995.8z M4631.1-2052.6l0,0.1l0,0.1
			V-2052.6z M4631.1-2052.6v0.2l0-0.1L4631.1-2052.6z M4631.1-1951.9l9.9,13.3l-9.9-113.9l-9.9,113.9L4631.1-1951.9z"/>
	</g>
</g>
<g display="none">
	<path display="inline" fill="#004B8D" d="M6154.3,1004c0.2,0,0.3,0,0.5,0c10.1,0,18,5.3,25.7,15.7c0.1,0.1,0.1,0.2,0.3,0.2
		c0.1,0,0.1-0.1,0.1-0.2V994c-2.6,1.3-5,2.2-8.4,2.2c-4.2,0-10.4-1.9-18.3-2.1V1004z"/>
	<path display="inline" fill="#004B8D" d="M6184.7,1035.3c-6.5,6.9-16,11.8-28.4,11.8c-12.4,0-23.1-4.8-23.1-20.2
		c0-6.1,1.2-10.6,3.3-14h-16v-5.2c-3.7,5-5.8,11.3-5.8,19c0,24.6,19.3,32.1,37.2,32.1c22.6,0,33.1-9.1,33.2-23.4L6184.7,1035.3z"/>
</g>
<path display="none" fill="none" stroke="#004B8D" stroke-width="18" stroke-miterlimit="10" d="M6170.8,1001.9
	c-22.2-6-47.2-8-47.2,45c0,38.1,33.2,37.2,47.2,29.2"/>
</svg>
