<?xml version="1.0" encoding="utf-8"?>
<!-- Generator: Adobe Illustrator 17.0.0, SVG Export Plug-In . SVG Version: 6.00 Build 0)  -->
<!DOCTYPE svg PUBLIC "-//W3C//DTD SVG 1.1//EN" "http://www.w3.org/Graphics/SVG/1.1/DTD/svg11.dtd">
<svg version="1.1" id="Layer_1" xmlns="http://www.w3.org/2000/svg" xmlns:xlink="http://www.w3.org/1999/xlink" x="0px" y="0px"
	 width="300px" height="80px" viewBox="0 0 300 80" enable-background="new 0 0 300 80" xml:space="preserve">
<g>
	<g>
		<path fill="#FFFFFF" d="M117.131,54.371l-27.062,21.35l-27.437-21.35v-8.053l27.25,9.177l27.25-9.177V54.371z M116.194,39.295
			v6.648l-2.903,0.937v-5.338l-0.375-0.374c-0.313-0.249-0.702-0.358-1.17-0.328c-0.468,0.032-0.922,0.328-1.358,0.89v5.899
			l-1.873,0.562v-7.022l-0.468-0.375c-0.25-0.249-0.656-0.358-1.218-0.327c-0.562,0.031-1.124,0.327-1.686,0.889v0.094v7.772
			l-1.404,0.562v-8.521l-0.468-0.375c-0.25-0.249-0.702-0.358-1.358-0.328c-0.655,0.032-1.327,0.328-2.013,0.89v9.458l-2.435,0.749
			V40.98l-0.468-0.375c-0.375-0.312-0.922-0.452-1.639-0.421c-0.718,0.032-1.421,0.327-2.107,0.89v11.893l-3.371,1.123l-3.371-1.123
			V41.074c-0.688-0.562-1.405-0.843-2.154-0.843s-1.264,0.094-1.545,0.28c-0.281,0.188-0.484,0.345-0.609,0.469v10.675l-2.341-0.749
			v-9.458c-0.749-0.562-1.452-0.843-2.107-0.843c-0.656,0-1.077,0.079-1.264,0.234c-0.188,0.156-0.344,0.297-0.468,0.422v8.521
			l-1.405-0.562v-7.772v-0.094c-0.625-0.562-1.217-0.826-1.779-0.796c-0.562,0.032-0.937,0.11-1.124,0.234
			c-0.187,0.126-0.344,0.25-0.468,0.375v7.022l-1.966-0.562v-5.899c-0.375-0.562-0.828-0.843-1.358-0.843
			c-0.531,0-0.89,0.079-1.077,0.234c-0.188,0.156-0.313,0.297-0.375,0.421v5.338l-2.903-0.937v-6.648l26.313-1.967L116.194,39.295z
			 M89.881,35.924v0.094h0.094l-26.313,2.153c0.375-3.432,1.154-6.522,2.341-9.27c1.185-2.747,2.528-4.947,4.026-6.602
			c1.499-1.653,3.231-3.074,5.197-4.26c1.966-1.186,3.713-2.044,5.244-2.575c1.529-0.53,3.137-0.92,4.823-1.17
			c1.686-0.249,2.809-0.389,3.371-0.421c0.562-0.031,1.03-0.047,1.404-0.047h1.311c0.874,0.063,2.014,0.219,3.418,0.468
			c1.405,0.25,2.98,0.641,4.729,1.17c1.747,0.531,3.526,1.39,5.337,2.575c1.81,1.187,3.512,2.607,5.104,4.26
			c1.592,1.655,2.964,3.855,4.12,6.602c1.154,2.748,1.919,5.838,2.294,9.27l-25.471-2.06l-1.03-20.226V35.924z M69.842,51.094
			l-4.308-1.779v6.555l4.308,3.184V51.094z M89.507,11.577c-0.25-0.811-0.796-1.373-1.639-1.686
			c-0.843-0.312-2.107-0.062-3.792,0.749c-1.999,1.062-3.965,1.468-5.899,1.217c-1.311-0.124-2.451-0.468-3.418-1.03
			c-0.969-0.562-1.561-1.014-1.779-1.358c-0.219-0.342-0.36-0.608-0.421-0.796c0.937,0.875,2.06,1.217,3.371,1.03
			c1.311-0.188,2.59-0.656,3.839-1.405c1.248-0.749,2.402-1.686,3.465-2.809c0.874-0.937,1.903-1.452,3.09-1.545
			c1.186-0.093,2.014-0.031,2.481,0.188c0.468,0.219,0.827,0.421,1.077,0.608v8.053L89.507,11.577z M77.427,54.371l-4.776-2.061
			v8.896l4.776,3.465V54.371z M86.51,58.21l-5.712-2.435V67.2l5.712,4.214V58.21z M98.964,55.775l-5.712,2.435v13.204l5.712-4.214
			V55.775z M107.111,52.311l-4.776,2.061v10.301l4.776-3.465V52.311z M114.228,49.314l-4.214,1.779v7.959l4.214-3.184V49.314z"/>
	</g>
	<g>
		<path fill="#FFFFFF" d="M125.852,40.78V23.62h3.785v7.449l6.967-7.449h4.559l-6.967,7.268l7.311,9.892h-4.559l-5.333-7.312
			l-1.978,2.064v5.247H125.852z M129.335,51.444h19.568v1.42h-19.568V51.444z M143.786,40.78V23.62h3.482l8.043,10.58V23.62h3.742
			v17.16h-3.227l-8.301-10.924V40.78H143.786z M156.903,51.918v2.365c0,0.459,0.078,0.774,0.236,0.946
			c0.156,0.172,0.479,0.258,0.967,0.258h0.215v0.817h-5.375v-0.817h0.172c0.486,0,0.811-0.094,0.967-0.279
			c0.158-0.187,0.236-0.495,0.236-0.925v-5.849c0-0.458-0.078-0.774-0.236-0.946c-0.156-0.172-0.48-0.258-0.967-0.258h-0.215v-0.817
			l4-0.086c1.002,0,1.777,0.029,2.322,0.086c0.543,0.029,1.045,0.165,1.504,0.408c0.459,0.244,0.803,0.566,1.033,0.968
			c0.229,0.402,0.344,0.847,0.344,1.333c0,0.66-0.201,1.22-0.602,1.678c-0.402,0.459-0.904,0.76-1.506,0.903
			s-1.391,0.215-2.365,0.215H156.903z M156.903,51.058h0.473c0.773,0,1.289-0.172,1.549-0.516c0.258-0.345,0.387-0.803,0.387-1.377
			c0-0.486-0.094-0.888-0.279-1.204c-0.188-0.314-0.424-0.522-0.711-0.623s-0.76-0.15-1.418-0.15V51.058z M163.354,40.78V23.62
			h3.783v17.16H163.354z M173.417,52.993l-0.043,3.312h-9.031v-0.817h0.129c0.516,0,0.846-0.094,0.988-0.279
			c0.145-0.187,0.217-0.495,0.217-0.925v-5.849c0-0.458-0.08-0.774-0.238-0.946c-0.156-0.172-0.48-0.258-0.967-0.258h-0.129v-0.817
			h5.289v0.817h-0.172c-0.516,0-0.846,0.086-0.988,0.258c-0.145,0.172-0.215,0.488-0.215,0.946v5.634
			c0,0.43,0.027,0.709,0.086,0.839c0.057,0.129,0.186,0.243,0.387,0.344c0.199,0.101,0.559,0.15,1.074,0.15
			c0.861,0,1.506-0.215,1.936-0.646c0.43-0.43,0.717-1.017,0.861-1.763H173.417z M179.739,41.081c-2.666,0-4.838-0.831-6.516-2.494
			c-1.678-1.662-2.516-3.77-2.516-6.322v-0.086c0-2.465,0.859-4.559,2.58-6.279s3.855-2.58,6.408-2.58
			c1.49,0,2.752,0.193,3.785,0.581c1.031,0.387,2.02,0.982,2.967,1.785l-2.365,2.838c-0.717-0.602-1.412-1.039-2.086-1.312
			s-1.484-0.409-2.43-0.409c-1.377,0-2.537,0.523-3.484,1.57c-0.945,1.047-1.418,2.301-1.418,3.763v0.086
			c0,1.549,0.486,2.839,1.461,3.871s2.223,1.548,3.742,1.548c1.404,0,2.58-0.344,3.527-1.032v-2.451h-3.785v-3.269h7.482v7.483
			C184.942,40.177,182.491,41.081,179.739,41.081z M177.718,53.638l-0.215,0.474c-0.145,0.344-0.215,0.588-0.215,0.731
			c0,0.229,0.086,0.394,0.258,0.494s0.43,0.15,0.773,0.15v0.817h-3.268v-0.817c0.631,0,1.16-0.53,1.59-1.591l3.055-7.655h0.816
			l3.098,7.655c0.314,0.745,0.594,1.197,0.838,1.354s0.48,0.236,0.709,0.236v0.817h-4.902v-0.817c0.459,0,0.738-0.043,0.838-0.129
			c0.102-0.086,0.152-0.2,0.152-0.344c0-0.114-0.043-0.259-0.131-0.431l-0.086-0.258l-0.301-0.688H177.718z M178.019,52.778h2.408
			l-1.246-2.968L178.019,52.778z M187.222,56.305v-0.646l5.549-8.386h-1.592c-1.031,0-1.713,0.107-2.043,0.322
			s-0.609,0.695-0.838,1.44h-0.775l0.129-2.623h8.344v0.645l-5.59,8.386h2.236c0.629,0,1.104-0.064,1.418-0.193
			c0.316-0.129,0.588-0.344,0.818-0.646c0.229-0.301,0.43-0.724,0.602-1.269h0.816l-0.172,2.968H187.222z M190.706,40.78V23.62
			h3.783v6.752h6.969V23.62h3.783v17.16h-3.783v-6.881h-6.969v6.881H190.706z M201.026,53.638l-0.172,0.474
			c-0.143,0.344-0.215,0.588-0.215,0.731c0,0.229,0.078,0.394,0.236,0.494s0.424,0.15,0.797,0.15v0.817h-3.27v-0.817
			c0.631,0,1.146-0.53,1.549-1.591l3.053-7.655h0.861l3.096,7.655c0.314,0.745,0.596,1.197,0.838,1.354
			c0.244,0.157,0.48,0.236,0.711,0.236v0.817h-4.902v-0.817c0.43,0,0.701-0.043,0.816-0.129c0.113-0.086,0.172-0.2,0.172-0.344
			c0-0.114-0.043-0.259-0.129-0.431l-0.086-0.258l-0.301-0.688H201.026z M201.372,52.778h2.365l-1.205-2.968L201.372,52.778z
			 M213.37,40.823V27.147h-5.203V23.62h14.234v3.526h-5.246v13.676H213.37z M212.683,51.444h19.523v1.42h-19.523V51.444z
			 M231.046,41.038c-2.811,0-5.232-0.917-7.268-2.752l2.193-2.667c1.691,1.377,3.41,2.064,5.16,2.064
			c0.773,0,1.383-0.143,1.828-0.43c0.443-0.286,0.666-0.674,0.666-1.161v-0.043c0-0.517-0.23-0.925-0.688-1.226
			c-0.459-0.302-1.391-0.624-2.797-0.968c-0.975-0.258-1.77-0.502-2.387-0.731c-0.615-0.229-1.197-0.544-1.74-0.946
			c-0.545-0.401-0.947-0.888-1.205-1.462c-0.258-0.573-0.387-1.275-0.387-2.107v-0.086c0-1.548,0.566-2.795,1.699-3.742
			c1.131-0.946,2.572-1.419,4.322-1.419c2.465,0,4.602,0.731,6.406,2.193l-1.977,2.838c-1.607-1.118-3.098-1.677-4.473-1.677
			c-0.689,0-1.227,0.136-1.613,0.408c-0.387,0.273-0.58,0.624-0.58,1.054v0.086c0,0.545,0.236,0.953,0.709,1.226
			s1.469,0.609,2.988,1.011c1.863,0.487,3.24,1.111,4.129,1.87c0.889,0.761,1.334,1.857,1.334,3.29v0.043
			c0,1.663-0.582,2.968-1.742,3.914C234.464,40.565,232.938,41.038,231.046,41.038z"/>
	</g>
</g>
</svg>
