<?xml version="1.0" encoding="utf-8"?>
<!-- Generator: Adobe Illustrator 17.0.0, SVG Export Plug-In . SVG Version: 6.00 Build 0)  -->
<!DOCTYPE svg PUBLIC "-//W3C//DTD SVG 1.1//EN" "http://www.w3.org/Graphics/SVG/1.1/DTD/svg11.dtd">
<svg version="1.1" id="Layer_1" xmlns="http://www.w3.org/2000/svg" xmlns:xlink="http://www.w3.org/1999/xlink" x="0px" y="0px"
	 width="218.953px" height="42.408px" viewBox="0 0 218.953 42.408" enable-background="new 0 0 218.953 42.408"
	 xml:space="preserve">
<g>
	<path d="M57.42,38.362c-0.102-0.102-0.102-0.102-0.17-0.204c0.476-0.884,0.51-0.986,0.51-1.632c0-2.585-4.184-5.034-9.013-5.034
		c-6.836,0-12.517,5.238-18.774,5.238c-6.734,0-10.918-5.272-10.918-11.802c0-7.857,6.667-15.169,15.339-15.169
		c3.163,0,6.598,0.646,6.7,0.544c0,0,5.85-3.469,11.054-3.469c2.721,0,3.436,0.986,3.436,1.973c0,1.497-1.735,3.095-5.476,3.095
		c-1.938,0-6.53-0.646-6.53-0.646s-2.585,2.109-4.388,4.286c-2.551,3.061-4.319,6.7-4.387,9.115c0,0.884,0.272,1.564,0.748,2.041
		c-0.442-3.129,2.993-10.952,9.013-10.952c1.667,0,2.687,1.19,2.687,3.129c0,5.544-6.53,10.51-10,9.863c0,0,0.782,1.055,2.143,1.055
		c3.469,0,6.938-4.762,6.938-4.762l0.272,0.306c0,0-3.333,4.932-7.211,4.932c-2.041,0-3.299-1.905-3.299-1.905
		s-3.231-1.258-3.231-6.02c0-6.36,6.836-11.088,7.789-11.632c0-0.102-3.979-0.579-6.258-0.579c-8.503,0-14.965,7.415-14.965,14.795
		c0,6.19,3.979,11.428,10.544,11.428c5.646,0,12.142-5.238,18.774-5.238c5.204,0,9.421,2.279,9.421,5.408
		C58.168,37.342,57.93,37.648,57.42,38.362z M43.849,16.357c-3.605,0-7.754,5.646-7.754,9.557c0,0.782,0.068,0.986,0.374,1.769
		c0.748,0.51,0.986,0.476,1.395,0.476c3.945,0,8.231-6.564,8.231-9.523C46.094,16.901,45.108,16.357,43.849,16.357z M52.148,7.208
		c-3.061,0-7.856,3.708-7.856,3.708c2.313,0.34,4.864,0.612,5.816,0.612c2.041,0,5.102-0.476,5.102-2.721
		C55.209,7.616,53.917,7.208,52.148,7.208z"/>
	<path d="M59.832,23.601c-0.612,0.238-1.021,0.408-1.531,0.51c-0.816,1.36-3.537,4.286-6.734,4.286
		c-1.599,0-2.619-1.633-2.619-3.163c0-3.877,3.945-7.551,7.72-7.551c1.565,0,2.755,1.36,2.755,3.197c0,1.19-0.579,2.109-0.816,2.721
		c0.34-0.068,0.646-0.204,1.021-0.374c1.836-0.85,3.231-2.143,4.115-2.993l0.272,0.238C63.199,21.458,61.601,22.615,59.832,23.601z
		 M56.567,18.091c-2.041,0-5.646,6.36-5.646,8.707c0,0.782,0.17,1.156,0.646,1.156c1.258,0,2.449-1.156,4.217-4.115
		c-1.36-0.442-1.871-1.021-1.871-1.667c0-0.714,0.51-1.088,1.055-1.088c0.408,0,0.714,0.204,0.714,0.714
		c0,0.612-0.918,0.68-0.918,0.68c0.17,0.51,0.918,0.952,1.292,1.02c1.054-2.245,1.326-3.367,1.326-4.558
		C57.383,18.397,57.111,18.091,56.567,18.091z"/>
	<path d="M71.871,26.356c-0.986,1.123-1.973,2.075-3.436,2.075c-1.292,0-1.871-0.918-1.973-2.075
		c-0.034-0.51-0.034-0.952,0.714-2.075L70,19.962c0.306-0.476,0.476-0.85,0.476-1.021c0-0.204-0.136-0.306-0.51-0.306
		c-0.952,0-3.435,1.7-5.918,5.884c-1.088,1.803-1.667,3.571-2.449,3.571c-0.442,0-0.885-0.306-1.259-0.306
		c-0.306,0-1.258,1.021-1.258,1.021l5.238-10c0.272-0.51,0.476-0.816,1.021-0.816c0.612,0,0.714,0.272,1.19,0.272
		c0.306,0,0.714-0.748,1.258-0.986l-1.735,3.265c2.245-1.973,3.605-2.857,5.102-2.857c0.952,0,1.564,0.612,1.564,1.564
		c0,0.612-0.17,1.088-0.646,1.837l-3.163,4.932c-0.34,0.51-0.612,0.952-0.612,1.156c0,0.408,0.204,0.612,0.714,0.612
		c0.646,0,1.7-0.816,2.823-2.041l5-5.51l0.272,0.238C76.36,21.356,71.871,26.356,71.871,26.356z"/>
	<path d="M81.903,24.758c-2.007,2.721-4.32,3.639-5.986,3.639c-0.986,0-1.803-1.021-1.803-2.245c0-0.953,0.272-1.463,0.714-2.347
		l2.687-5.408h-2.517l0.544-0.51h2.755c2.007-1.292,2.789-2.109,5.374-6.02h0.374l-3.435,6.02h2.551l-0.204,0.51h-2.551l-3.538,6.19
		c-0.408,0.714-0.782,1.292-0.782,1.803c0,0.442,0.442,1.292,0.918,1.292c1.36,0,3.571-1.905,4.558-3.197
		c0,0,2.279-2.891,3.265-4.251l0.272,0.238C83.943,22.309,81.903,24.758,81.903,24.758z"/>
	<path d="M85.949,28.397c-1.123,0-1.803-0.918-1.837-2.517c-0.034-1.497,2.857-4.966,2.857-5.918c0-0.204,0-0.238-0.136-0.238
		c-0.714,0-0.918,1.055-2.143,1.055c-0.544,0-0.85-0.544-0.85-1.292c0-1.123,1.054-2.585,1.973-2.585
		c0.408,0,0.816,0.306,0.816,0.782c0,0.612-0.51,1.564-1.19,2.347c1.734-1.428,2.721-2.347,3.571-2.347
		c0.714,0,1.19,0.646,1.19,1.327c0,0.714-0.375,1.088-0.714,1.667l-2.687,4.591c-0.408,0.681-0.646,1.19-0.646,1.395
		c0,0.646,0.408,0.918,0.884,0.918c2.313,0,5.306-3.775,7.789-7.347l0.272,0.238C90.642,27.207,88.295,28.397,85.949,28.397z
		 M85.812,17.411c-0.68,0-1.395,1.462-1.395,2.075c0,0.442,0.17,0.578,0.374,0.578c0.646-0.816,1.327-1.871,1.327-2.347
		C86.119,17.581,86.05,17.411,85.812,17.411z"/>
	<path d="M94.11,28.397c-1.19,0-2.109-0.714-2.109-2.041c0-2.312,2.211-5.476,3.401-7.652c0.238-0.442,0.306-0.714,0.918-0.714
		c1.02,0,0.68,0.306,1.156,0.306c0.272,0,0.884-0.918,1.292-1.021l-4.319,8.231c-0.272,0.51-0.34,1.054-0.34,1.292
		c0,0.476,0.272,0.884,0.816,0.884c1.292,0,7.074-6.462,7.891-7.449l0.272,0.238C100.402,23.669,96.287,28.397,94.11,28.397z
		 M99.382,15.676c-0.714,0-1.292-0.612-1.292-1.326c0-0.953,0.816-1.769,1.734-1.769c0.714,0,1.225,0.544,1.225,1.156
		C101.049,14.724,100.232,15.676,99.382,15.676z"/>
	<path d="M107.884,24.758c-2.007,2.721-4.32,3.639-5.986,3.639c-0.986,0-1.803-1.021-1.803-2.245c0-0.953,0.272-1.463,0.714-2.347
		l2.687-5.408h-2.517l0.544-0.51h2.755c2.007-1.292,2.789-2.109,5.374-6.02h0.374l-3.435,6.02h2.551l-0.204,0.51h-2.551l-3.538,6.19
		c-0.408,0.714-0.782,1.292-0.782,1.803c0,0.442,0.442,1.292,0.918,1.292c1.36,0,3.571-1.905,4.558-3.197
		c0,0,2.279-2.891,3.265-4.251l0.272,0.238C109.925,22.309,107.884,24.758,107.884,24.758z"/>
	<path d="M111.488,28.397c-1.905,0-2.993-1.497-2.993-3.061c0-4.728,5.238-7.653,7.789-7.653c1.054,0,1.938,0.816,1.938,1.871
		c0,3.333-5.884,4.66-7.041,4.66c-0.374,0.816-0.612,1.225-0.612,2.381c0,0.714,0.238,1.258,0.918,1.258
		c3.401,0,8.537-5.578,9.761-7.619l0.272,0.238C120.501,22.173,115.297,28.397,111.488,28.397z M115.807,18.125
		c-0.986,0-2.551,1.836-4.285,5.271c1.904,0,5-3.231,5-4.489C116.521,18.397,116.284,18.125,115.807,18.125z"/>
	<path d="M166.584,3.908c-2.551,0-4.285,1.463-5.441,3.673c-1.19,2.177-1.905,5-2.959,6.36c-1.021,1.292-2.926,1.803-4.694,1.803
		c-1.53,0-3.163-0.306-3.163-0.306l-0.17,0.612c2.245,0,5.374,0.884,5.374,3.605c0,2.313-0.272,5.068,0.103,5.884
		c1.02,2.279,1.938,2.619,2.856,2.619c2.449,0,4.422-2.993,4.422-5.034c0-1.871-1.225-3.061-3.3-3.061V20.03
		c0-0.204,0-0.306,0.442-0.306c2.007,0,3.333,1.429,3.333,3.401c0,2.959-2.856,5.646-5.918,5.646c-2.415,0-4.659-1.53-4.795-3.945
		l-0.375-6.054c-0.102-1.53-1.7-2.381-2.177-2.381c0,0-1.122,4.66-3.435,7.721c-2.041,2.687-4.897,4.558-8.673,4.558
		c-4.388,0-8.163-3.333-8.163-7.721c0-7.856,6.496-8.741,6.836-8.911c-0.612-4.625,3.504-9.625,9.285-9.625
		c3.062,0,3.81,1.021,8.844,4.762c0,0,1.599-0.612,2.755-0.578c0.68,0,1.19,0.238,1.19,0.918c0,0.782-0.511,1.054-1.19,1.054
		c-1.021-0.034-2.347-0.612-2.925-0.918c-1.429,0.748-3.334,3.061-4.218,7.278c3.095-0.102,4.728-0.918,6.428-3.129
		c1.429-1.871,2.177-3.061,3.674-4.932c1.564-2.041,3.163-3.265,6.054-3.265c1.19,0,2.415,0.714,2.415,0.714v0.238
		C169,4.555,167.367,3.908,166.584,3.908z M145.259,4.112c-4.048,0-8.843,3.197-8.163,7.823c2.041-0.34,4.762-0.136,7.041,2.449
		c0.51-0.306,1.769-1.156,2.993-2.584l0.237,0.272c-0.952,1.021-1.599,1.734-2.993,2.619c0.816,1.429,0.782,2.619,0.782,3.538
		c0,5.102-4.489,6.938-6.938,6.938c-1.939,0-3.3-1.429-3.3-3.673c0-2.041,1.259-4.082,3.504-5l0.067,0.306
		c0,0-3.163,1.292-3.163,4.694c0,2.108,1.225,3.265,2.892,3.265c3.435,0,6.53-2.585,6.53-6.53c0-2.449-0.749-3.299-0.749-3.299
		c-0.067,0-1.395,0.612-3.095,0.612c-1.803,0-3.707-1.564-4.115-3.061c-0.272,0.102-6.53,0.85-6.53,8.469
		c0,4.082,3.707,7.312,7.755,7.312c4.217,0,6.598-3.571,9.081-12.891c0.748-2.755,4.455-6.734,7.21-7.993
		C152.538,5.949,147.98,4.112,145.259,4.112z M137.165,12.377c0.544,1.701,2.415,2.755,3.707,2.755c0.477,0,1.837-0.102,2.892-0.544
		C142.3,12.888,139.545,11.765,137.165,12.377z M157.503,7.038c-0.918,0-2.245,0.442-2.245,0.442s1.327,0.578,2.245,0.612
		c0.511,0.034,0.885-0.102,0.885-0.578C158.388,7.14,158.014,7.003,157.503,7.038z"/>
	<path d="M174.335,26.356c-0.986,1.123-1.973,2.075-3.435,2.075c-1.293,0-1.871-0.918-1.973-2.075
		c-0.034-0.51-0.034-0.952,0.714-2.075l2.823-4.319c0.306-0.476,0.476-0.85,0.476-1.021c0-0.204-0.136-0.306-0.51-0.306
		c-0.952,0-3.436,1.7-5.918,5.884c-1.089,1.803-1.667,3.571-2.449,3.571c-0.442,0-0.884-0.306-1.258-0.306
		c-0.307,0-1.259,1.021-1.259,1.021l5.238-10c0.271-0.51,0.476-0.816,1.02-0.816c0.612,0,0.715,0.272,1.19,0.272
		c0.307,0,0.715-0.748,1.259-0.986l-1.734,3.265c2.244-1.973,3.605-2.857,5.102-2.857c0.952,0,1.564,0.612,1.564,1.564
		c0,0.612-0.17,1.088-0.646,1.837l-3.163,4.932c-0.34,0.51-0.612,0.952-0.612,1.156c0,0.408,0.204,0.612,0.715,0.612
		c0.646,0,1.7-0.816,2.823-2.041l4.999-5.51l0.272,0.238C178.826,21.356,174.335,26.356,174.335,26.356z"/>
	<path d="M178.585,28.397c-1.19,0-2.108-0.714-2.108-2.041c0-2.312,2.211-5.476,3.4-7.652c0.238-0.442,0.307-0.714,0.919-0.714
		c1.021,0,0.68,0.306,1.156,0.306c0.272,0,0.885-0.918,1.292-1.021l-4.319,8.231c-0.271,0.51-0.34,1.054-0.34,1.292
		c0,0.476,0.272,0.884,0.816,0.884c1.292,0,7.074-6.462,7.891-7.449l0.272,0.238C184.877,23.669,180.762,28.397,178.585,28.397z
		 M183.857,15.676c-0.714,0-1.292-0.612-1.292-1.326c0-0.953,0.816-1.769,1.734-1.769c0.715,0,1.225,0.544,1.225,1.156
		C185.524,14.724,184.708,15.676,183.857,15.676z"/>
	<path d="M190.522,29.213c-1.36,3.061-2.891,9.557-7.108,9.557c-1.7,0-3.027-1.123-3.027-2.551c0-1.701,2.177-4.558,7.925-6.564
		l1.021-2.687c-0.918,1.123-1.326,1.429-2.041,1.429c-1.53,0-2.448-1.123-2.448-3.333c0-3.877,4.285-7.381,7.244-7.381
		c0.681,0,0.885,0.136,1.326,0.612c0,0,0.408-0.306,0.715-0.306c0.952,0,0.952,0.306,1.292,0.306c0.204,0,0.612-0.612,1.225-1.021
		c0,0-2.108,3.231-3.265,5.442c-1.156,2.211-2.722,5.884-2.722,5.884c3.062-1.973,6.055-4.49,8.401-8.367l0.272,0.238
		C196.882,24.86,193.311,27.444,190.522,29.213z M180.897,36.118c0,0.816,0.68,1.326,1.429,1.326c2.312,0,4.761-4.183,5.815-7.244
		C185.42,30.982,180.897,33.873,180.897,36.118z M192.256,18.193c-2.04,0-5.407,6.598-5.407,8.775c0,0.544,0.033,0.851,0.612,0.851
		c1.734,0,5.407-7.789,5.407-8.979C192.869,18.5,192.597,18.193,192.256,18.193z"/>
	<path d="M201.984,18.737l-0.681,1.497c1.803-1.7,3.537-2.551,4.388-2.551c0.816,0,1.395,0.612,1.395,1.429
		c0,1.973-4.456,7.346-4.456,7.891c0,0.306,0.171,0.612,0.477,0.612c1.599,0,5.441-4.864,7.585-7.381l0.271,0.238
		c-2.721,3.367-6.122,7.925-8.435,7.925c-1.055,0-1.871-0.68-1.871-1.633c0-1.598,4.388-6.768,4.388-7.823
		c0-0.136-0.102-0.34-0.271-0.34c-1.123,0-2.857,1.53-3.605,2.721c-2.619,4.558-3.47,6.803-4.184,6.803
		c-0.511,0-0.885-0.272-1.225-0.272c-0.408,0-0.646,0.544-1.292,0.918c1.666-3.299,4.897-9.659,9.081-15.748
		c2.211-3.163,5.203-6.836,7.04-6.836c0.612,0,1.225,0.375,1.225,1.021C211.813,12.173,203.65,17.887,201.984,18.737z
		 M209.942,6.867c-1.326,0-4.354,5.442-7.55,10.952c5.033-3.333,7.891-7.993,7.891-10.102
		C210.283,7.275,210.146,6.867,209.942,6.867z"/>
	<path d="M215.756,24.758c-2.007,2.721-4.319,3.639-5.986,3.639c-0.986,0-1.803-1.021-1.803-2.245c0-0.953,0.272-1.463,0.715-2.347
		l2.687-5.408h-2.517l0.544-0.51h2.755c2.007-1.292,2.789-2.109,5.374-6.02h0.374l-3.436,6.02h2.551l-0.204,0.51h-2.551l-3.537,6.19
		c-0.408,0.714-0.782,1.292-0.782,1.803c0,0.442,0.442,1.292,0.919,1.292c1.36,0,3.571-1.905,4.558-3.197
		c0,0,2.278-2.891,3.265-4.251l0.272,0.238C217.797,22.309,215.756,24.758,215.756,24.758z"/>
</g>
<g>
	<path d="M16.827,5.705c-0.06,0.012-0.887,0.12-1.007,0.12c-1.248,0-3.742-1.475-5.517-1.475c-1.104,0-1.619,0.12-2.003,0.216
		C8.527,4.841,9.595,6.4,9.595,7.804c0,1.115-0.744,1.715-0.875,1.859c-0.132,0.54-0.528,1.739-1.715,2.771l-0.096-0.072
		c0.588-0.647,1.223-1.235,1.583-2.542c-0.144,0.048-0.288,0.072-0.54,0.072c-1.127,0-1.991-1.02-1.991-2.375
		c0-0.875,0.611-1.727,0.611-1.727c-0.6-0.18-0.923-0.288-1.211-0.288c-2.303,0-4.078,1.859-4.078,4.162
		c0,2.207,1.871,4.09,4.078,4.09c1.655,0,3.154-1.08,3.778-2.794c1.187-3.238,0.971-4.15,2.435-4.953
		c0.516-0.288,1.295-0.432,2.087-0.504l-0.024,0.132c-1.451,0.18-2.195,0.66-2.411,1.631c-0.228,1.02-0.312,1.619-0.611,2.59
		c-0.84,2.783-2.938,4.006-5.253,4.006c-2.314,0-4.186-1.859-4.186-4.198c0-2.327,1.667-4.306,4.186-4.306
		c0.396,0,0.912,0.168,1.284,0.288c0,0,0.743-1.032,1.271-1.271c0,0-1.007-1.295-2.998-1.295c-3.346,0-4.689,3.418-4.786,4.546
		L0.024,7.612c0.108-1.655,1.691-4.653,4.894-4.653c2.123,0,3.19,1.343,3.19,1.343c1.008-0.468,1.475-0.564,2.195-0.564
		c2.339,0,3.85,1.931,5.709,1.931c0.216,0,0.528-0.036,0.971-0.132C16.899,5.633,16.863,5.669,16.827,5.705z M6.764,5.861
		C6.561,6.089,6.117,6.928,6.117,7.48c0,1.295,0.828,2.267,1.835,2.267c0.252,0,0.396-0.048,0.587-0.132
		C8.779,7.48,7.988,6.508,6.764,5.861z M8.12,4.625c-0.108,0.072-0.6,0.288-1.283,1.104c1.415,0.744,2.051,1.655,1.907,3.694
		c0.156-0.144,0.684-0.696,0.684-1.619C9.427,6.389,8.204,4.709,8.12,4.625z"/>
	<path d="M13.091,9.543l-0.24,0.527c0.635-0.6,1.247-0.899,1.547-0.899c0.288,0,0.492,0.216,0.492,0.504
		c0,0.695-1.571,2.59-1.571,2.782c0,0.108,0.06,0.216,0.167,0.216c0.564,0,1.919-1.715,2.675-2.603l0.096,0.084
		c-0.959,1.188-2.159,2.794-2.974,2.794c-0.372,0-0.66-0.24-0.66-0.576c0-0.563,1.547-2.387,1.547-2.758
		c0-0.048-0.036-0.12-0.096-0.12c-0.396,0-1.007,0.54-1.271,0.959c-0.923,1.607-1.223,2.399-1.475,2.399
		c-0.18,0-0.312-0.096-0.432-0.096c-0.144,0-0.228,0.192-0.456,0.324c0.588-1.164,1.728-3.406,3.203-5.553
		c0.779-1.115,1.835-2.411,2.482-2.411c0.216,0,0.432,0.132,0.432,0.36C16.557,7.228,13.679,9.243,13.091,9.543z M15.897,5.357
		c-0.468,0-1.535,1.919-2.662,3.862c1.775-1.175,2.782-2.818,2.782-3.562C16.018,5.501,15.97,5.357,15.897,5.357z"/>
	<path d="M16.404,12.949c-0.672,0-1.056-0.527-1.056-1.079c0-1.667,1.847-2.699,2.747-2.699c0.372,0,0.684,0.288,0.684,0.66
		c0,1.175-2.075,1.643-2.482,1.643c-0.132,0.288-0.216,0.432-0.216,0.84c0,0.251,0.083,0.443,0.324,0.443
		c1.199,0,3.01-1.967,3.442-2.687l0.096,0.084C19.582,10.754,17.747,12.949,16.404,12.949z M17.927,9.327
		c-0.348,0-0.899,0.647-1.511,1.859c0.672,0,1.763-1.14,1.763-1.583C18.179,9.423,18.095,9.327,17.927,9.327z"/>
</g>
</svg>
