<?xml version="1.0" standalone="no"?>
<!DOCTYPE svg PUBLIC "-//W3C//DTD SVG 1.1//EN" "http://www.w3.org/Graphics/SVG/1.1/DTD/svg11.dtd" >
<svg xmlns="http://www.w3.org/2000/svg">
<metadata>
This is a custom SVG font generated by IcoMoon.
<iconset grid="24"></iconset>
</metadata>
<defs>
<font id="Knights-Plaza" horiz-adv-x="768" >
<font-face units-per-em="768" ascent="736" descent="-32" />
<missing-glyph horiz-adv-x="768" />
<glyph class="hidden" unicode="&#xf000;" d="M0,736L 768 -32L0 -32 z" horiz-adv-x="0" />
<glyph unicode="&#xe012;" d="M0-32l 384,0 L 384,736 L0,736 L0-32 z M 240,640l 96,0 l0-96 l-96,0 L 240,640 z M 240,448l 96,0 l0-96 l-96,0 L 240,448 z M 240,256l 96,0 l0-96 l-96,0 L 240,256 z M 48,640l 96,0 l0-96 L 48,544 L 48,640 z M 48,448
			l 96,0 l0-96 L 48,352 L 48,448 z M 48,256l 96,0 l0-96 L 48,160 L 48,256 zM 432,496L 768,496L 768,448L 432,448zM 432-32L 528-32L 528,160L 672,160L 672-32L 768-32L 768,400L 432,400 		z" data-tags="office, home, house, work, building" />
<glyph unicode="&#xe00f;" d="M 384,496C 226.974,496, 87.567,420.583,0,304c 87.567-116.584, 226.974-192, 384-192c 157.026,0, 296.433,75.416, 384,192
	C 680.433,420.583, 541.026,496, 384,496z M 336,400c 26.509,0, 48-21.491, 48-48s-21.491-48-48-48s-48,21.491-48,48S 309.49,400, 336,400z
	 M 580.212,207.028c-29.736-15.194-61.239-26.897-93.635-34.782C 453.212,164.119, 418.701,160, 384,160
	c-34.7,0-69.212,4.119-102.576,12.243c-32.395,7.889-63.898,19.591-93.635,34.782c-47.265,24.151-90.166,57.307-125.73,96.974
	c 35.563,39.666, 78.465,72.825, 125.73,96.974c 24.252,12.391, 49.681,22.46, 75.811,30.030C 248.685,408.32, 240,381.176, 240,352
	c0-79.53, 64.472-144, 144-144c 79.528,0, 144,64.47, 144,144c0,29.177-8.687,56.32-23.599,79.005c 26.129-7.572, 51.558-17.64, 75.811-30.032
	c 47.267-24.148, 90.163-57.306, 125.728-96.974C 670.375,264.336, 627.477,231.175, 580.212,207.028z M 645.688,553.208
	C 564.149,594.874, 476.105,616, 384,616c-92.105,0-180.149-21.126-261.688-62.791C 78.233,530.684, 37.013,502.281,0,469.151l0-81.904 
	c 41.504,43.925, 90.52,80.816, 144.145,108.218C 218.861,533.642, 299.559,553, 384,553s 165.139-19.357, 239.853-57.537
	c 53.626-27.402, 102.644-64.293, 144.147-108.218L 768,469.15 C 730.987,502.281, 689.769,530.684, 645.688,553.208z" data-tags="see" />
<glyph unicode="&#xe003;" d="M 291.188,607.32l 10.911-216.525l 271.575-21.413c-28.39,269.214-281.031,259.17-281.031,259.17
			s-252.754,10.046-281.149-259.17l 280.377,22.215L 291.188,391.582l0,1.392 L 291.188,607.32 zM 582.086,281.533l-290.898-97.515L 0.29,281.533l0-85.719 l 293.181-227.814L 582.086,195.814L 582.086,281.533 z M 76.84,146.017l-45.931,33.915l0,70.276 
		l 45.931-19.431L 76.84,146.017 z M 158.498,85.744l-51.036,37.678l0,94.398 l 51.036-21.591L 158.498,85.744 z M 255.466,14.152l-61.24,45.21l0,121.739 l 61.24-25.917L 255.466,14.152 z M 388.156,59.366
		l-61.24-45.21l0,141.036 l 61.24,25.917L 388.156,59.366 z M 474.914,123.418l-51.036-37.678l0,110.48 l 51.036,21.591L 474.914,123.418 z M 551.468,179.928l-45.931-33.915L 505.536,230.779 l 45.931,19.431
		L 551.468,179.928 zM 290.824,378.014l-280.693-20.736l0-0.486 l0-70.978 l 30.622-9.999L 40.752,333.163 c0,0, 15.309,17.895, 30.622-2.232l0-62.986 l 20.413-5.981L 91.79,336.513 
		c0,0, 15.309,18.222, 35.723-1.905l0-0.159 l0-83.169 l 15.309-5.887L 142.826,336.195 c0,0, 15.309,17.899, 40.827-2.238l0-100.869 l 25.518-7.684L 209.171,339.241 c0,0, 20.413,18.969, 45.931-1.525l0-127.078 l 35.723-11.176
		l 35.723,11.176l0,127.078 c 25.518,20.49, 45.931,1.525, 45.931,1.525l0-113.833 l 25.518,7.684L 398.001,333.963 c 25.518,20.127, 40.827,2.238, 40.827,2.238l0-90.809 l 15.309,5.887L 454.138,334.454 L 454.138,334.607 
		c 20.413,20.127, 35.723,1.905, 35.723,1.905l0-74.547 l 20.413,5.981L 510.278,330.937 c 15.309,20.121, 30.622,2.232, 30.622,2.232l0-57.354 l 30.622,9.999L 571.518,356.786 l0,0.486 L 290.824,378.014zM 291.188,639.8L 291.188,726.436 c0,0-38.994,26.532-71.383-8.781c-30.796-33.582-83.799-61.803-114.012-33.535
		c0,0, 12.35-31.068, 60.144-33.843c0,0, 30.97-4.184, 62.802,13.183C 283.979,693.597, 291.188,640.257, 291.188,640.257" horiz-adv-x="583" data-tags="kplogo-upper" />
<glyph unicode="&#xe00d;" d="M0,338.542l0,399.903 l 87.975,0 l0-174.806 l 162.235,174.806l 106.246,0 l-162.797-169.67l 170.234-230.231l-105.7,0 l-123.969,170.234
		l-46.281-47.97l0-122.246 L0,338.558 L0,338.542 zM 417.013,338.542l0,399.903 l 81.116,0 l 187.362-246.199l0,246.199 l 86.832,0 l0-399.903 l-74.839,0 l-193.673,254.234l0-254.234 L 417.013,338.542 zM 872.323,338.542l0,399.903 l 87.975,0 l0-399.903 L 872.323,338.542 zM 1252.777,331.718c-61.686,0-112.181,19.397-151.382,58.274c-39.237,38.845-58.837,87.958-58.837,147.392l0,1.127 
		c0,57.506, 19.994,106.347, 59.979,146.522c 39.987,40.174, 89.886,60.27, 149.679,60.27c 34.664,0, 63.99-4.486, 87.975-13.409
		c 24.003-8.956, 47.049-22.773, 69.125-41.419l-55.425-66.837c-16.752,14.075-32.941,24.343-48.534,30.843c-15.626,6.449-34.287,9.69-56.005,9.69
		c-31.986,0-59.126-12.197-81.389-36.559c-22.278-24.378-33.42-53.685-33.42-87.993l0-1.127 c0-36.559, 11.327-66.837, 33.982-90.856
		c 22.655-23.968, 51.69-35.995, 87.121-35.995c 32.737,0, 60.355,8, 82.823,24.003l0,57.131 l-88.555,0 l0,75.983 l 173.681,0 l0-173.698 
		C 1373.709,352.837, 1316.767,331.718, 1252.777,331.718zM 1508.137,338.542l0,399.903 l 87.975,0 l0-158.258 l 162.251,0 l0,158.258 l 87.958,0 l0-399.903 l-87.958,0 l0,160.528 l-162.251,0 l0-160.528 L 1508.137,338.542 zM 2035.403,338.542l0,318.752 l-121.666,0 l0,81.15 l 331.342,0 l0-81.15 l-121.684,0 l0-318.752 L 2035.403,338.542 zM 2446.172,332.861c-65.507,0-122.075,21.324-169.67,63.99l 51.98,62.283c 39.237-32.395, 79.019-48.569, 119.398-48.569
		c 17.895,0, 31.986,3.308, 42.256,9.996c 10.286,6.687, 15.421,15.915, 15.421,27.721l0,1.127 c0,11.429-5.323,20.659-15.984,27.686
		c-10.678,7.081-32.191,14.774-64.552,23.132c-22.859,5.715-41.351,11.327-55.443,16.872c-14.075,5.51-27.5,12.846-40.259,21.989
		c-12.762,9.161-22.109,20.489-27.994,33.998s-8.837,29.989-8.837,49.403l0,1.161 c0,36.165, 13.034,65.285, 39.134,87.394
		c 26.085,22.091, 59.69,33.13, 100.838,33.13c 56.738,0, 106.246-16.974, 148.518-50.872l-45.702-66.241c-37.702,26.272-72.348,39.408-103.958,39.408
		c-16.377,0-29.034-3.241-37.975-9.722c-8.94-6.484-13.425-14.843-13.425-25.111l0-1.161 c0-12.949, 5.51-22.671, 16.581-29.154
		c 11.036-6.484, 34.287-14.279, 69.706-23.404c 43.416-11.429, 75.419-25.999, 95.957-43.689c 20.574-17.726, 30.843-43.126, 30.843-76.272l0-1.161 
		c0-38.81-13.425-69.193-40.276-91.095C 2525.855,343.795, 2490.339,332.861, 2446.172,332.861zM 721.93,80.026l0-54.793 c0-10.525, 1.775-17.828, 5.339-21.955c 3.548-4.145, 10.986-6.211, 22.296-6.211L 754.819-2.918 l0-18.833 
		l-124.635,0 l0,18.833 l 4.059,0 c 11.413,0, 18.85,2.133, 22.296,6.38c 3.428,4.247, 5.186,11.498, 5.186,21.784l0,135.997 c0,10.525-1.792,17.828-5.339,21.955
		c-3.564,4.145-10.952,6.211-22.142,6.211L 628.667,189.392 l0,18.817 l 93.262,2.031c 23.269,0, 41.301-0.597, 54.009-1.86
		c 12.709-1.228, 24.394-4.674, 35.022-10.321c 10.645-5.681, 18.629-13.136, 24.003-22.467c 5.357-9.331, 8.051-19.534, 8.051-30.621
		c0-15.046-4.656-27.892-13.989-38.59c-9.313-10.696-20.966-17.758-34.937-21.188c-13.954-3.445-32.344-5.186-55.202-5.186L 721.93,80.026
		L 721.93,80.026z M 721.93,100.394l 11.191,0 c 17.98,0, 29.973,3.906, 35.943,11.788c 6.005,7.83, 8.99,18.322, 8.99,31.458
		c0,11.753-2.219,21.29-6.62,28.556c-4.418,7.319-10.030,12.061-16.803,14.279c-6.773,2.202-17.691,3.275-32.721,3.275L 721.93,100.394
		L 721.93,100.394zM 1105.694,54.762l-1.041-76.494L 895.062-21.732 l0,18.833 l 3.377,0 c 11.549,0, 19.004,2.133, 22.449,6.38
		c 3.463,4.247, 5.186,11.498, 5.186,21.784l0,135.997 c0,10.525-1.809,17.828-5.424,21.955c-3.616,4.145-11.003,6.211-22.211,6.211L 895.062,189.408 l0,18.817 l 123.286,0 
		l0-18.817 l-4.589,0 c-11.532,0-19.004-2.133-22.449-6.38c-3.445-4.212-5.186-11.498-5.186-21.784l0-131.255 c0-9.826, 0.563-16.343, 1.707-19.499
		c 1.143-3.189, 4.094-5.92, 8.905-8.222c 4.793-2.338, 13.186-3.445, 25.18-3.445c 20.13,0, 35.159,5.049, 45.105,15.183
		c 9.945,10.099, 16.736,23.711, 20.353,40.771L 1105.694,54.762L 1105.694,54.762zM 1205.576,40.345l-4.4-11.395c-3.172-8-4.742-13.647-4.742-16.939c0-5.545, 1.86-9.433, 5.579-11.635
		c 3.736-2.235, 9.843-3.308, 18.322-3.308l0-18.833 l-75.983,0 l0,18.833 c 14.466,0, 26.631,12.317, 36.473,36.985l 70.71,178.235l 19.857,0 l 72.040-178.082
		c 7.148-17.657, 13.579-28.25, 19.344-31.816s 11.31-5.339, 16.632-5.339l0-18.833 l-114.125,0 l0,18.833 c 10.269,0, 16.666,1.006, 19.141,2.951
		c 2.492,1.996, 3.736,4.52, 3.736,7.557c0,2.712-1.006,6.278-3.054,10.696l-2.202,5.254l-6.62,16.803L 1205.576,40.345L 1205.576,40.345z
		 M 1212.859,59.844l 55.801,0 l-28.659,68.664L 1212.859,59.844zM 1427.226-21.732l0,15.116 l 129.053,194.662L 1518.97,188.045 c-23.848,0-39.63-2.457-47.305-7.388
		c-7.677-4.913-14.313-16.137-19.839-33.659l-18.135,0 l 3.564,61.242l 193.503,0 l0-15.438 l-130.077-194.355l 52.747,0 c 14.671,0, 25.539,1.365, 32.55,4.076
		c 7.011,2.712, 13.272,7.626, 18.799,14.843c 5.545,7.182, 10.252,16.974, 14.075,29.409l 19.157,0 l-4.043-68.528L 1427.226-21.732 zM 1748.245,40.345l-4.418-11.395c-3.155-8-4.742-13.647-4.742-16.939c0-5.545, 1.878-9.433, 5.612-11.635
		c 3.736-2.235, 9.826-3.308, 18.304-3.308l0-18.833 l-75.983,0 l0,18.833 c 14.466,0, 26.612,12.317, 36.473,36.985l 70.71,178.235l 19.839,0 l 72.074-178.082
		c 7.115-17.657, 13.561-28.25, 19.328-31.816c 5.767-3.548, 11.327-5.339, 16.632-5.339l0-18.833 l-114.143,0 l0,18.833 c 10.269,0, 16.666,1.006, 19.157,2.951
		c 2.475,1.996, 3.736,4.52, 3.736,7.557c0,2.712-1.025,6.278-3.054,10.696l-2.219,5.254l-6.62,16.803L 1748.245,40.345L 1748.245,40.345z
		 M 1755.528,59.844l 55.801,0 l-28.659,68.664L 1755.528,59.844zM 2018.872,90.892L 2473.262,90.892L 2473.262,58.446L 2018.872,58.446zM 81.099,90.892L 535.523,90.892L 535.523,58.446L 81.099,58.446z" horiz-adv-x="2593" data-tags="kplogo-lower" />
<glyph unicode="&#xe005;" d="M 509.581,84.26c0,20.691-4.835,40.877-14.375,60.134c-17.83,35.967-74.897,62.151-130.081,87.427
			c-26.883,12.361-53.861,24.758-75.244,37.709C 187.291,331.716, 153.48,407.761, 143.173,460.618c-2.816,14.415-4.25,29.181-4.25,43.842
			c0,45.292, 13.406,88.186, 37.743,120.814C 273.445,754.897, 437.576,739.929, 485.561,732.274C 438.069,730.18, 321.428,709.185, 265.473,598.047
			c-11.004-21.829-16.576-44.181-16.576-66.468c0-90.77, 92.588-169.145, 166.988-232.14c 25.695-21.759, 50.001-42.341, 68.24-61.388
			c 33.007-34.503, 49.755-71.232, 49.755-109.252c0-44.395-23.085-79.874-36.841-97.078C 505.893,48.124, 509.581,66.090, 509.581,84.26zM 54.87,137.122c 22.463-19.008, 69.637-50.317, 157.556-74.933c 44.93-12.602, 86.752-13.584, 120.349-14.375
			c 30.288-0.732, 54.245-1.331, 69.111-9.657c 12.33-6.892, 19.708-17.825, 19.708-29.204l-0.84-6.517c-4.318-16.851-27.262-35.030-78.686-35.517
			C 188.259-34.536, 92.234,81.367, 54.87,137.122zM 332.499,403.623c0,0, 63.892,107.105, 129.87,124.375c 80.080,20.955, 124.096-13.339, 124.096-13.339l 22.008,43.838l 34.048-167.716
			c0,0, 5.991-15.245-22.039-34.333c-27.989-19.044-30.017-15.254-30.017-15.254s-17.999,68.633-54.035,76.258c-35.997,7.624-35.997-40.037-34.017-55.259
			c 2.022-15.25, 32.623-77.709, 84.052-51.456c 56.054,28.578, 82.065,64.799, 82.065,64.799s 8.008,19.039, 16.017,13.326
			c 8.003-5.705, 38.020-38.123, 38.020-38.123l-12.012-200.138c0,0,0-24.789-34.017-34.292c-34.021-9.544-34.021-7.624-34.021-7.624l 18.004,61
			l 22.012,0 l-5.991,141.057c0,0-18.972-92.065-54.035-152.506c-42.034-72.424-110.1-131.51-110.1-131.51s 43.039,51.327, 36.216,113.89
			c-4.491,41.431-22.561,89.343-112.19,163.292C 385.768,345.716, 332.499,403.623, 332.499,403.623L 332.499,403.623zM 436.987,13.831c0,6.365-1.393,12.262-4.142,17.517c-10.027,19.218-37.431,29.735-81.374,31.271
			c-79.941,2.714-271.741,22.701-325.463,149.614C 8.776,252.999,0,297.389,0,344.216l0,0c0,53.452, 11.422,97.082, 19.080,120.613
			c-0.942-6.436-1.429-18.379-1.429-18.379c0-50.072, 12.012-144.013, 92.552-210.657c 51.081-42.337, 127.626-75.726, 227.454-99.302
			c 67.652-15.945, 106.265-40.141, 114.797-71.83l 1.746-13.441c0-15.704-7-32.315-19.878-49.258
			C 435.632,6.064, 436.987,13.831, 436.987,13.831zM 472.433,49.48c0,8.981-1.567,18.839-5.879,28.936c-14.625,34.288-55.397,58.942-121.241,73.285
			c-172.68,37.641-270.518,106.685-299.069,211.071c-7.035,25.807-10.169,49.929-10.169,72.428c0,143.132, 125.943,220.054, 168.729,242.060
			c-22.91-21.553-71.695-74.374-80.852-141.329c-1.633-12.12-2.468-24.026-2.468-35.726c0-85.093, 43.904-159.814, 133.402-227.508
			c 28.312-21.418, 66.365-38.579, 103.137-55.218c 52.883-23.927, 102.846-46.492, 122.457-79.463c 9.786-16.427, 13.477-32.413, 13.477-47.134
			c0-30.645-15.808-55.747-26.499-69.367C 470.030,28.836, 472.433,38.416, 472.433,49.48zM 467.424,636.834c-27.962,0-53.933,25.937-53.933,53.933c0-27.998-25.977-53.933-53.928-53.933
			c 27.958,0, 53.928-25.981, 53.928-53.933C 413.485,610.852, 439.462,636.834, 467.424,636.834L 467.424,636.834zM 1230.078,210.068c0-102.789-62.776-179.087-183.394-179.087c-121.241,0-184.009,76.299-184.009,179.087L 862.675,477.769 l 96.002,0 l0-264.030 
		c0-53.526, 36.932-94.142, 88.004-94.142c 50.46,0, 87.387,40.613, 87.387,94.142l0,264.030 l 96.011,0 L 1230.074,210.068 zM 1634.406,364.522c-19.080,22.785-46.777,35.708-82.471,35.708c-72.612,0-126.167-59.094-126.167-140.316
		c0-81.241, 53.549-140.32, 123.082-140.32c 38.77,0, 70.156,17.231, 89.847,46.773l 79.998-59.697
		c-36.297-51.688-97.841-75.691-157.538-75.691c-136.018,0-235.072,89.212-235.072,228.932c0,139.704, 99.055,228.923, 235.072,228.923
		c 48.621,0, 110.149-16.61, 147.097-63.996L 1634.406,364.522zM 1814.68,477.769l 292.32,0 l0-88.614 l-196.326,0 l0-88.627 l 181.546,0 l0-88.605 l-181.546,0 l0-169.868 l-95.993,0 L 1814.68,477.769 z" horiz-adv-x="2107" data-tags="sfo" />
<glyph unicode="&#xe004;" d="M 743.916,407.61l 23.826,96.355l-104.134,72.618L 520.302,576.591 l-5.34-2.763l 35.049,142.836L 64.852,716.709l 97.735-77.052l-65.684-267.783
		l 101.363-71.811L 344.965,300.065 l-17.386-70.37l 99.27-73.458l 140.533,0 l-41.44-168.94l 184.953,0 l 37.197,151.642l 127.114,0 l 32.633,133.115l 48.233,0 l 33.263,135.57
		L 743.916,407.626 z M 928.158,307.651l-221.132,0 l 38.384-30.225l-9.46-38.506l 127.122,0 l-15.771-64.391L 720.171,174.536 l-37.197-151.642L 571.339,22.887 l 47.952,195.585
		l-49.041-26.645L 438.604,191.827 l-70.759,52.37l 30.113,121.91l-58.503-32.302l-130.449,0 l-73.87,52.314l 65.386,266.579l-38.376,30.258l 157.42-0.017
		l-69.847-284.773l 75.8,0 l 62.42,254.507l-38.352,30.258l 157.411,0.017l-43.095-175.766l 65.103,33.813l 123.411,0 l 74.888-52.24l-19.754-79.864L 596.67,408.879 
		l 16.652,67.365L 490.271,476.243 l 38.384-30.153l-46.837-189.477l 77.238,0 l 20.957,84.858l 69.467,0 l-38.288,30.557l 332.758,0 L 928.158,307.651zM 615.874,423.906L 631.863,423.906L 644.644,475.655L 628.655,475.655 zM 441.197,478.441L 384.852,250.312L 398.36,240.31L 454.803,467.793L 536.55,510.322L 670.094,510.338L 647.682,525.956L 532.671,525.956 
	zM 570.824,241.563L 478.597,241.563L 474.742,225.944L 582.943,225.944L 603.908,310.82L 635.895,310.82L 639.748,326.437L 591.789,326.437 zM 242.671,367.52l 106.769,0 l 69.87,284.757l 64.692,0 l 3.831,15.608L 392.932,667.887 c 0.865-0.679, 11.916-9.388, 11.916-9.388L 337.304,383.138L 246.518,383.138 
	L 242.671,367.52M 165.765,382.846L 232.104,652.286L 296.56,652.269L 300.381,667.902L 205.522,667.918L 217.423,658.532L 152.175,392.47 zM 840.076,208.259c 1.18,4.727, 2.416,9.832, 3.831,15.617L 732.758,223.884 c-2.15-8.693-3.846-15.617-3.846-15.617L 840.076,208.259 M 924.788,356.969L 654.541,356.969L 666.468,347.596L 590.504,37.923L 606.469,37.923L 680.977,341.36L 920.959,341.36 z" horiz-adv-x="1018" data-tags="stacked" />
<glyph unicode="&#xe001;" d="M 531.885,85.023c0,20.62-4.822,40.758-14.332,59.958c-17.779,35.864-74.684,61.975-129.711,87.186c-26.808,12.324-53.715,24.682-75.023,37.605
				C 210.504,331.782, 176.792,407.608, 166.505,460.315c-2.813,14.369-4.233,29.094-4.233,43.713c0,45.169, 13.368,87.954, 37.632,120.478
				C 296.412,753.77, 460.086,738.84, 507.926,731.204c-47.357-2.080-163.665-23.022-219.46-133.846c-10.966-21.764-16.521-44.063-16.521-66.28
				c0-90.517, 92.32-168.673, 166.513-231.48c 25.621-21.701, 49.857-42.222, 68.049-61.216c 32.918-34.409, 49.617-71.031, 49.617-108.95
				c0-44.267-23.022-79.648-36.739-96.804C 528.206,48.988, 531.885,66.903, 531.885,85.023zM 78.46,137.728c 22.388-18.959, 69.432-50.162, 157.11-74.72c 44.803-12.566, 86.498-13.538, 120.013-14.332
				c 30.203-0.732, 54.090-1.321, 68.923-9.618c 12.297-6.867, 19.656-17.779, 19.656-29.13l-0.84-6.492c-4.305-16.806-27.192-34.935-78.47-35.409
				C 211.469-33.438, 115.718,82.145, 78.46,137.728zM 355.298,403.474c0,0, 63.708,106.806, 129.506,124.014c 79.854,20.905, 123.745-13.297, 123.745-13.297l 21.942,43.713l 33.953-167.245
				c0,0, 5.974-15.208-21.978-34.23c-27.916-18.995-29.925-15.208-29.925-15.208s-17.958,68.433-53.885,76.041
				c-35.9,7.599-35.9-39.927-33.916-55.099c 2.010-15.208, 32.534-77.496, 83.819-51.314c 55.894,28.506, 81.837,64.618, 81.837,64.618
				s 7.983,18.995, 15.976,13.297c 7.983-5.697, 37.919-38.016, 37.919-38.016l-11.985-199.565c0,0,0-24.718-33.916-34.203
				c-33.916-9.51-33.916-7.599-33.916-7.599l 17.958,60.832l 21.942,0 l-5.974,140.65c0,0-18.922-91.794-53.885-152.073
				c-41.91-72.219-109.779-131.141-109.779-131.141s 42.91,51.178, 36.114,113.566c-4.483,41.312-22.495,89.088-111.868,162.834
				C 408.415,345.732, 355.298,403.474, 355.298,403.474L 355.298,403.474zM 459.487,14.785c0,6.358-1.385,12.225-4.134,17.468c-10.002,19.164-37.32,29.649-81.139,31.185
				c-79.721,2.715-270.971,22.638-324.543,149.189c-17.19,40.659-25.934,84.927-25.934,131.622l0,0c0,53.295, 11.386,96.804, 19.030,120.264
				c-0.947-6.431-1.42-18.326-1.42-18.326c0-49.929, 11.985-143.598, 92.285-210.057c 50.93-42.222, 127.264-75.514, 226.81-99.027
				c 67.459-15.904, 105.966-40.034, 114.468-71.63l 1.732-13.404c0-15.663-6.975-32.22-19.826-49.125C 458.139,7.043, 459.487,14.785, 459.487,14.785zM 494.834,50.337c0,8.957-1.563,18.78-5.867,28.854c-14.583,34.203-55.242,58.779-120.888,73.084
				c-172.192,37.535-269.755,106.386-298.226,210.477c-7.010,25.728-10.145,49.796-10.145,72.219c0,142.742, 125.586,219.433, 168.255,241.367
				c-22.843-21.495-71.487-74.166-80.613-140.928c-1.633-12.082-2.465-23.951-2.465-35.622c0-84.855, 43.785-159.369, 133.034-226.854
				c 28.228-21.352, 66.172-38.472, 102.84-55.064c 52.742-23.853, 102.564-46.349, 122.103-79.228c 9.761-16.388, 13.44-32.328, 13.44-47.008
				c0-30.559-15.771-55.59-26.424-69.156C 492.44,29.752, 494.834,39.3, 494.834,50.337zM 489.832,636.035c-27.88,0-53.787,25.861-53.787,53.787c0-27.916-25.898-53.787-53.787-53.787c 27.88,0, 53.787-25.898, 53.787-53.787
				C 436.054,610.129, 461.961,636.035, 489.832,636.035L 489.832,636.035z" data-tags="pegasus" />
<glyph unicode="&#xe002;" d="M 35.84,417.658l 92.918,0 l0-184.639 l 171.37,184.639l 112.234,0 L 240.39,238.448l 179.814-243.174l-111.627,0 l-130.938,179.814l-48.881-50.688l0-129.126 
		L 35.84-4.726 L 35.84,417.658 zM 397.878,417.658l 172.57,0 c 25.344,0, 47.973-3.525, 67.888-10.56c 19.91-7.039, 36.81-16.998, 50.682-29.867c 13.878-12.88, 24.534-28.266, 31.985-46.166
		c 7.434-17.904, 11.157-37.712, 11.157-59.43l0-1.206 c0-24.544-4.433-46.070-13.275-64.566c-8.853-18.501-21.024-34.001-36.507-46.458
		c-15.487-12.474-33.59-21.83-54.305-28.059c-20.726-6.246-42.944-9.354-66.683-9.354L 490.8,121.995 l0-126.714 L 397.878-4.719 L 397.878,417.658 z M 564.415,204.65
		c 23.328,0, 41.43,6.134, 54.305,18.405c 12.87,12.261, 19.306,27.45, 19.306,45.552l0,1.206 c0,20.912-6.736,36.81-20.208,47.675
		c-13.482,10.858-31.889,16.293-55.216,16.293L 490.8,333.781 l0-129.136 L 564.415,204.646 zM 640,405.334L 640,688.874 c0,0-127.451,86.341-232.842-28.576C 306.943,551.025, 134.181,459.184, 35.862,551.163
	c0,0, 40.049-101.109, 195.584-110.129c0,0, 100.715-13.616, 204.309,42.901c 179.739,98.064, 203.728-76.309, 203.728-76.309" data-tags="kplogo-small" />
<glyph unicode="&#xe000;" d="M -0.209,45.173l0,85.657 l 18.846,0 l0-37.446 l 34.751,37.446l 22.758,0 l-34.87-36.34l 36.465-49.317l-22.638,0 l-26.554,36.465
		l-9.911-10.277l0-26.186 L -0.209,45.177 zM 89.118,45.173l0,85.657 l 17.375,0 l 40.134-52.735l0,52.735 l 18.6,0 l0-85.657 l-16.029,0 l-41.483,54.459l0-54.459 L 89.118,45.173 zM 186.642,45.173l0,85.657 l 18.846,0 l0-85.657 L 186.642,45.173 zM 268.138,43.71c-13.213,0-24.032,4.155-32.428,12.482c-8.404,8.32-12.603,18.841-12.603,31.572l0,0.241 
		c0,12.318, 4.282,22.78, 12.848,31.386c 8.565,8.605, 19.251,12.909, 32.058,12.909c 7.423,0, 13.707-0.962, 18.846-2.874
		c 5.142-1.92, 10.079-4.878, 14.808-8.873l-11.871-14.317c-3.588,3.013-7.059,5.215-10.398,6.604c-3.346,1.379-7.344,2.078-11.995,2.078
		c-6.854,0-12.665-2.612-17.433-7.83c-4.773-5.223-7.161-11.498-7.161-18.849l0-0.241 c0-7.83, 2.424-14.317, 7.278-19.46
		c 4.853-5.135, 11.075-7.71, 18.663-7.71c 7.014,0, 12.928,1.715, 17.741,5.142l0,12.24 l-18.969,0 l0,16.275 l 37.2,0 l0-37.205 
		C 294.042,48.233, 281.846,43.71, 268.138,43.71zM 322.837,45.173l0,85.657 l 18.846,0 l0-33.898 l 34.754,0 l0,33.898 l 18.841,0 l0-85.657 l-18.841,0 l0,34.388 l-34.754,0 l0-34.388 L 322.837,45.173 zM 435.779,45.173l0,68.278 l-26.061,0 l0,17.382 l 70.971,0 l0-17.382 l-26.064,0 l0-68.278 L 435.779,45.173 zM 523.761,43.956c-14.029,0-26.148,4.567-36.34,13.707l 11.136,13.341c 8.404-6.942, 16.926-10.404, 25.575-10.404
		c 3.833,0, 6.854,0.71, 9.051,2.139c 2.202,1.429, 3.303,3.408, 3.303,5.939l0,0.241 c0,2.446-1.141,4.425-3.423,5.933
		c-2.286,1.513-6.897,3.163-13.827,4.956c-4.897,1.225-8.857,2.424-11.874,3.613c-3.013,1.182-5.892,2.754-8.623,4.707
		c-2.736,1.963-4.732,4.389-5.997,7.281c-1.266,2.897-1.894,6.421-1.894,10.584l0,0.249 c0,7.746, 2.795,13.985, 8.382,18.721
		c 5.585,4.728, 12.786,7.098, 21.598,7.098c 12.156,0, 22.758-3.635, 31.813-10.895l-9.786-14.186c-8.075,5.625-15.5,8.441-22.269,8.441
		c-3.507,0-6.221-0.695-8.133-2.085c-1.917-1.386-2.878-3.179-2.878-5.379l0-0.249 c0-2.776, 1.182-4.857, 3.55-6.246
		c 2.362-1.386, 7.344-3.057, 14.928-5.014c 9.3-2.446, 16.154-5.566, 20.558-9.358c 4.407-3.8, 6.604-9.239, 6.604-16.337l0-0.249 
		c0-8.313-2.878-14.823-8.627-19.515C 540.83,46.3, 533.223,43.956, 523.761,43.956zM 154.43-10.203l0-11.736 c0-2.253, 0.381-3.822, 1.145-4.7c 0.76-0.888, 2.352-1.328, 4.776-1.328L 161.474-27.969 l0-4.034 
		l-26.697,0 l0,4.034 l 0.87,0 c 2.444,0, 4.038,0.453, 4.776,1.364c 0.735,0.91, 1.111,2.462, 1.111,4.667l0,29.133 c0,2.253-0.384,3.822-1.145,4.7
		c-0.765,0.888-2.345,1.328-4.74,1.328l-1.2,0 l0,4.030 l 19.976,0.432c 4.984,0, 8.847-0.128, 11.568-0.399
		c 2.724-0.264, 5.226-1.002, 7.502-2.21c 2.278-1.218, 3.99-2.816, 5.142-4.814c 1.149-2.001, 1.727-4.184, 1.727-6.558
		c0-3.222-0.999-5.976-2.996-8.265c-1.996-2.289-4.491-3.807-7.482-4.539c-2.988-0.738-6.93-1.111-11.823-1.111L 154.43-10.207 z
		 M 154.43-5.84l 2.396,0 c 3.851,0, 6.418,0.837, 7.698,2.523c 1.284,1.679, 1.927,3.924, 1.927,6.736c0,2.516-0.473,4.56-1.416,6.118
		c-0.947,1.566-2.147,2.582-3.599,3.057c-1.448,0.468-3.792,0.702-7.011,0.702L 154.426-5.84 zM 236.632-15.612l-0.223-16.388L 191.514-32 l0,4.034 l 0.724,0 c 2.472,0, 4.071,0.453, 4.809,1.364
		c 0.742,0.91, 1.111,2.462, 1.111,4.667l0,29.133 c0,2.253-0.387,3.822-1.163,4.7c-0.776,0.888-2.355,1.328-4.758,1.328L 191.514,13.228 l0,4.030 l 26.407,0 
		l0-4.030 l-0.984,0 c-2.469,0-4.071-0.453-4.809-1.364c-0.738-0.903-1.111-2.462-1.111-4.667l0-28.116 c0-2.106, 0.12-3.5, 0.366-4.176
		c 0.244-0.684, 0.877-1.269, 1.909-1.763c 1.028-0.498, 2.828-0.738, 5.394-0.738c 4.313,0, 7.53,1.083, 9.662,3.25
		c 2.128,2.162, 3.583,5.080, 4.359,8.733L 236.632-15.612 zM 258.025-18.702l-0.944-2.439c-0.679-1.715-1.017-2.925-1.017-3.628c0-1.188, 0.399-2.022, 1.196-2.49
		c 0.801-0.476, 2.111-0.71, 3.924-0.71l0-4.034 l-16.275,0 l0,4.034 c 3.098,0, 5.702,2.64, 7.812,7.925l 15.144,38.177l 4.254,0 l 15.433-38.143
		c 1.528-3.785, 2.912-6.053, 4.143-6.813c 1.236-0.76, 2.421-1.145, 3.563-1.145l0-4.034 l-24.444,0 l0,4.034 c 2.198,0, 3.57,0.216, 4.099,0.633
		c 0.534,0.424, 0.801,0.969, 0.801,1.62c0,0.582-0.216,1.343-0.654,2.289l-0.468,1.127l-1.416,3.599L 258.025-18.702 z M 259.587-14.526l 11.952,0 
		l-6.141,14.709L 259.587-14.526zM 305.504-32l0,3.237 l 27.64,41.698L 325.156,12.936 c-5.109,0-8.489-0.526-10.134-1.579
		c-1.645-1.053-3.065-3.456-4.25-7.212l-3.883,0 l 0.765,13.117l 41.447,0 l0-3.306 l-27.86-41.63l 11.301,0 c 3.141,0, 5.47,0.292, 6.973,0.874
		c 1.5,0.582, 2.845,1.635, 4.026,3.179c 1.188,1.536, 2.195,3.635, 3.013,6.301l 4.104,0 l-0.867-14.681L 305.504-32 zM 374.265-18.702l-0.947-2.439c-0.676-1.715-1.017-2.925-1.017-3.628c0-1.188, 0.402-2.022, 1.203-2.49
		c 0.801-0.476, 2.106-0.71, 3.921-0.71l0-4.034 l-16.275,0 l0,4.034 c 3.098,0, 5.699,2.64, 7.812,7.925l 15.144,38.177l 4.25,0 l 15.441-38.143
		c 1.521-3.785, 2.907-6.053, 4.14-6.813c 1.236-0.76, 2.424-1.145, 3.563-1.145l0-4.034 l-24.448,0 l0,4.034 c 2.198,0, 3.57,0.216, 4.104,0.633
		c 0.531,0.424, 0.801,0.969, 0.801,1.62c0,0.582-0.219,1.343-0.654,2.289l-0.473,1.127l-1.416,3.599L 374.265-18.702 z M 375.827-14.526l 11.952,0 
		l-6.141,14.709L 375.827-14.526zM 432.234-7.874L 529.566-7.874L 529.566-14.822L 432.234-14.822zM 17.163-7.874L 114.501-7.874L 114.501-14.822L 17.163-14.822zM 276.541,644.184l 7.787-154.495l 193.778-15.279c-20.258,192.091-200.522,184.923-200.522,184.923
			s-180.348,7.168-200.608-184.923l 200.057,15.851L 276.541,490.248l0,0.995 L 276.541,644.184 zM 484.107,411.728l-207.566-69.581L 68.981,411.728l0-61.162 l 209.192-162.552L 484.107,350.566L 484.107,411.728 z M 123.6,315.034l-32.772,24.2L 90.829,389.373 
		l 32.772-13.864L 123.6,315.034 z M 181.866,272.026l-36.414,26.883l0,67.358 l 36.414-15.408L 181.866,272.026 z M 251.052,220.942l-43.7,32.259l0,86.865 l 43.7-18.491L 251.052,220.942 z M 345.732,253.206
		l-43.7-32.259l0,100.633 l 43.7,18.491L 345.732,253.206 z M 407.635,298.906l-36.414-26.883l0,78.829 l 36.414,15.408L 407.635,298.906 z M 462.26,339.229l-32.772-24.2L 429.484,375.513 l 32.772,13.864
		L 462.26,339.229 zM 276.286,480.571l-200.28-14.797l0-0.348 l0-50.644 l 21.848-7.135L 97.854,448.567 c0,0, 10.925,12.766, 21.848-1.591l0-44.943 l 14.567-4.268L 134.268,450.958 
		c0,0, 10.925,13.005, 25.491-1.357l0-0.114 l0-59.345 l 10.925-4.202L 170.682,450.731 c0,0, 10.925,12.771, 29.133-1.595l0-71.973 l 18.209-5.486L 218.021,452.9 c0,0, 14.567,13.534, 32.772-1.091l0-90.672 l 25.491-7.976
		l 25.491,7.976l0,90.672 c 18.209,14.622, 32.772,1.091, 32.772,1.091l0-81.222 l 18.209,5.486L 352.756,449.137 c 18.209,14.361, 29.133,1.595, 29.133,1.595l0-64.794 l 10.925,4.202L 392.809,449.485 L 392.809,449.597 
		c 14.567,14.361, 25.491,1.357, 25.491,1.357l0-53.19 l 14.567,4.268L 432.867,446.976 c 10.925,14.358, 21.848,1.591, 21.848,1.591l0-40.923 l 21.848,7.135L 476.567,465.423 l0,0.348 L 276.286,480.571zM 276.541,667.358L 276.541,729.176 c0,0-27.823,18.933-50.932-6.269c-21.972-23.961-59.794-44.099-81.349-23.928
		c0,0, 8.814-22.17, 42.913-24.148c0,0, 22.099-2.984, 44.811,9.406C 271.397,705.745, 276.541,667.684, 276.541,667.684" horiz-adv-x="555" data-tags="kp-logo-full" />
<glyph unicode="&#xe00c;" d="M 624,640L 144,640 c-79.2,0-144-64.8-144-144l0-288 c0-79.2, 64.8-144, 144-144l 480,0 c 79.2,0, 144,64.8, 144,144L 768,496 C 768,575.2, 703.2,640, 624,640z
		 M 720,208c0-25.483-10.030-49.546-28.241-67.76C 673.547,122.031, 649.485,112, 624,112L 144,112 c-25.483,0-49.546,10.030-67.758,28.241
		C 58.030,158.453, 48,182.517, 48,208L 48,496 c0,25.483, 10.030,49.546, 28.242,67.758S 118.516,592, 144,592l 480,0 
		c 25.483,0, 49.546-10.030, 67.76-28.242C 709.971,545.547, 720,521.483, 720,496L 720,208 zM 288,160L 528,352L 288,544 	z" data-tags="youtube" />
<glyph unicode="&#xe00b;" d="M 648,208c-33.87,0-64.44-14.053-86.259-36.623L 238.488,333.004C 239.474,339.193, 240,345.534, 240,352
	s-0.526,12.807-1.512,18.995l 323.253,161.627C 583.56,510.053, 614.13,496, 648,496c 66.275,0, 120,53.725, 120,120S 714.274,736, 648,736
	s-120-53.725-120-120c0-6.466, 0.528-12.807, 1.512-18.995L 206.259,435.377C 184.44,457.945, 153.87,472, 120,472c-66.275,0-120-53.727-120-120
	c0-66.276, 53.725-120, 120-120c 33.87,0, 64.44,14.053, 86.259,36.621l 323.253-161.627C 528.528,100.807, 528,94.466, 528,88
	c0-66.276, 53.725-120, 120-120s 120,53.724, 120,120C 768,154.273, 714.274,208, 648,208z" data-tags="share" />
<glyph unicode="&#xe00a;" d="M 419.3,688c0,0-150.717,0-200.955,0C 128.255,688, 43.467,619.745, 43.467,540.683c0-80.794, 61.412-146, 153.066-146
		c 6.373,0, 12.567,0.128, 18.631,0.564c-5.947-11.389-10.201-24.216-10.201-37.532c0-22.453, 12.078-40.657, 27.351-55.518
		c-11.54,0-22.681-0.336-34.839-0.336C 85.888,301.864,0,230.794,0,157.097c0-72.584, 94.156-117.986, 205.75-117.986
		c 127.218,0, 197.479,72.183, 197.479,144.771c0,58.2-17.172,93.054-70.264,130.6c-18.162,12.858-52.898,44.127-52.898,62.508
		c0,21.54, 6.147,32.151, 38.571,57.484c 33.234,25.968, 56.754,62.477, 56.754,104.937c0,50.555-22.515,99.824-64.779,116.079l 63.715,0 
		L 419.3,688z M 349.11,196.407c 1.595-6.729, 2.463-13.654, 2.463-20.721c0-58.65-37.794-104.483-146.231-104.483
		c-77.132,0-132.837,48.828-132.837,107.475c0,57.481, 69.095,105.333, 146.223,104.499c 18-0.191, 34.776-3.087, 50.002-8.018
		C 310.601,246.040, 340.638,229.588, 349.11,196.407z M 225.613,415.168c-51.778,1.548-100.977,57.919-109.914,125.895
		c-8.937,67.999, 25.777,120.031, 77.541,118.493c 51.758-1.555, 100.978-56.11, 109.918-124.094
		C 312.089,467.467, 277.366,413.619, 225.613,415.168zM 624,544L 624,688L 576,688L 576,544L 432,544L 432,496L 576,496L 576,352L 624,352L 624,496L 768,496L 768,544 	z" data-tags="google-plus" />
<glyph unicode="&#xe009;" d="M 600,424 C 547.065,424 504,380.935 504,328 C 504,275.065 547.065,232 600,232 C 652.935,232 696,275.065 696,328 C 696,380.935 652.935,424 600,424 Z M 600,496 L 600,496 C 692.783,496 768,420.784 768,328 C 768,235.217 692.783,160 600,160 C 507.217,160 432,235.217 432,328 C 432,420.784 507.217,496 600,496 ZM0,328A168,168 2340 1 1 336,328A168,168 2340 1 1 0,328z" data-tags="flickr" />
<glyph unicode="&#xe008;" d="M 768,590.186c-28.257-12.531-58.623-21.002-90.495-24.81c 32.529,19.5, 57.515,50.377, 69.279,87.172
	c-30.447-18.058-64.167-31.17-100.058-38.235c-28.74,30.622-69.691,49.755-115.010,49.755c-87.017,0-157.566-70.544-157.566-157.559
	c0-12.35, 1.393-24.375, 4.080-35.909c-130.95,6.573-247.051,69.3-324.763,164.63c-13.563-23.271-21.335-50.337-21.335-79.213
	c0-54.666, 27.816-102.894, 70.095-131.15c-25.829,0.819-50.124,7.906-71.365,19.709c-0.015-0.657-0.015-1.317-0.015-1.982
	c0-76.341, 54.314-140.022, 126.391-154.5c-13.22-3.6-27.141-5.529-41.511-5.529c-10.154,0-20.023,0.99-29.646,2.829
	c 20.052-62.595, 78.24-108.154, 147.189-109.422c-53.925-42.263-121.864-67.451-195.687-67.451c-12.718,0-25.26,0.746-37.587,2.205
	c 69.729-44.707, 152.551-70.796, 241.531-70.796c 289.817,0, 448.302,240.093, 448.302,448.308c0,6.831-0.154,13.626-0.458,20.385
	C 720.165,530.841, 746.877,558.591, 768,590.186z" data-tags="twitter" />
<glyph unicode="&#xe007;" d="M 431.903-32L 288-32 L 288,352 l-96,0 l0,132.337 l 96,0.044l-0.156,77.964C 287.844,670.309, 317.12,736, 444.293,736l 105.882,0 l0-132.363 l-66.172,0 
	c-49.524,0-51.904-18.492-51.904-53.013l-0.197-66.243l 119.017,0 l-14.028-132.337L 432,352L 431.903-32z" data-tags="facebook" />
<glyph unicode="&#xe006;" d="M 384.183,551.997L 384.091,551.902L 384.183,551.826 	zM 383.997,551.826L 384.091,551.902L 383.997,551.997 	zM 600.439,358.65L 767.997,358.65L 579.383,380.254L 600.707,358.927 	zM 667.675,477.394L 521.783,437.873L 551.695,407.966 	zM 651.688,623.336L 475.998,483.675L 510.726,448.923 	zM 504.366,645.571L 434.801,524.867L 465.597,494.071 	zM 188.471,380.245L 0.003,358.65L 166.973,358.65L 167.893,359.653 	zM 100.328,477.394L 216.235,408.006L 246.123,437.897 	zM 116.315,623.336L 257.213,448.99L 291.944,483.712 	zM 263.637,645.571L 302.382,494.159L 333.154,524.946 	zM 384.009,736L 383.997,735.826L 384.009,735.659 	zM 383.973,736L 383.973,735.659L 383.997,735.826 	zM 580.163,358.665l-196.166,193.146l-196.002-193.146l 116.373,0 c 0.299,43.867, 35.895,79.351, 79.835,79.351
		c 43.938,0, 79.54-35.483, 79.845-79.351L 580.163,358.665 zM 362.749,554.523L 383.997,735.826L 405.184,554.523L 383.997,575.695 	zM 167.671,330.569c 28.011,0, 49.947-7.089, 64.421-7.089c 11.215,0, 19.148,2.654, 27.554,7.089l0-84.663 c0-0.293,0-0.579-0.472-0.579
			s-0.472,0.286-0.926,0.579c-25.222,34.21-51.358,51.614-84.51,51.614c-35.026,0-71.433-15.326-71.433-75.215
			c0-50.728, 35.48-66.353, 76.096-66.353c 40.622,0, 71.906,16.232, 93.379,38.924l 1.396-0.286c-0.463-47.189-35.017-76.98-109.245-76.98
			c-58.825,0-122.313,24.765-122.313,105.585C 41.624,294.872, 97.173,330.569, 167.671,330.569zM 300.995,297.524c0,10.91-8.878,21.538-22.632,28.614l 174.382,0 c 12.855,0, 19.968,1.466, 29.282,4.434l0-64.6 
			c-14.199,22.12-41.71,30.674-83.422,30.674c-32.381,0-39.936-7.378-39.936-19.767l0-32.146 c 5.766-0.305, 15.537-0.591, 27.072-0.591
			c 30.171,0, 41.259,3.246, 59.456,17.106l0-63.125 c-14.205,12.986-34.161,16.527-59.456,16.527c-9.762,0-19.514-0.296-27.072-0.6l0-63.412 
			c0-10.895, 8.878-21.522, 22.629-28.599L 278.363,122.039 c 13.754,7.080, 22.632,17.707, 22.632,28.599L 300.995,297.524 zM 509.394,297.524c0,10.91-8.869,21.538-22.629,28.614l 200.564,0 c 12.867,0, 19.974,1.466, 29.3,4.434l0-68.434 
			c-24.866,25.954-51.49,34.508-101.62,34.508c-35.060,0-47.93-6.193-47.93-22.708l0-28.904 c 8.878-0.603, 20.425-0.887, 30.619-0.887
			c 32.829,0, 56.802,2.654, 72.765,17.99l0-65.173 c-15.96,15.025-39.936,17.688-72.765,17.688c-10.191,0-21.742-0.296-30.619-0.884l0-39.226 
			c0-16.802, 10.654-22.997, 53.699-22.997c 51.014,0, 82.523,11.785, 105.597,42.755l0-78.747 c-8.433,4.425-18.642,6.488-41.701,6.488l-197.912,0 
			c 13.76,7.080, 22.629,17.707, 22.629,28.599L 509.394,297.524 zM 42.944-21.452c 8.137,5.772, 14.467,16.61, 18.304,24.21l 35.261,64.046c 1.131,2.112, 2.033,4.504, 2.033,6.193
			c0,1.125-0.454,2.252-2.033,2.956l 41.14,0 c-1.131-0.701-1.585-1.405-1.585-2.389c0-1.408, 1.813-6.196, 3.843-10.136l 30.062-60.663
			c 3.84-7.598, 10.17-18.441, 18.078-24.21L 139.456-21.449 c 4.072,3.517, 5.65,7.458, 5.65,11.398c0,2.536-0.677,6.196-2.487,8.165L 86.787-1.886 
			c-2.033-2.252-3.386-5.492-3.386-9.009c0-4.224, 2.712-8.448, 6.552-10.557L 42.944-21.452 z M 135.835,12.19l-19.889,42.085l-0.454,0 
			l-21.016-42.085L 135.835,12.19 zM 201.609,60.891c0,6.616-2.712,11.822-11.526,15.902c 6.555-0.704, 11.98-0.844, 20.568-0.844c 7.010,0, 33.908,0.844, 45.437,0.844
			c 41.588,0, 52.663-13.797, 52.663-25.335c0-12.529-8.363-20.41-26.895-23.646c 13.333-3.8, 21.47-7.598, 24.411-30.123
			c 1.131-8.585, 4.072-14.498, 12.885-19.145l-29.16,0 c-9.268,0-11.075,3.944-13.111,20.126c-2.487,17.737-8.363,21.678-33.225,21.678l-12.657,0 l0-25.896 
			c0-7.183, 4.974-12.248, 12.885-15.906L 191.436-21.455 c 7.235,4.081, 10.17,7.040, 10.17,14.357L 201.609,60.891 z M 230.994,34.429l 9.268,0 
			c 26.673,0, 39.104,3.517, 39.104,14.217c0,9.573-8.363,14.074-29.836,14.074c-14.238,0-18.536-2.813-18.536-6.053L 230.994,34.429 zM 334.875,62.296c0,5.208-4.309,10.277-10.987,13.653l 97.374,0 c 6.245,0, 9.691,0.704, 14.217,2.109l0-32.652 
			c-12.066,12.389-24.99,16.472-49.335,16.472c-17.018,0-23.269-2.959-23.269-10.84l0-13.794 c 4.309-0.28, 9.911-0.424, 14.866-0.424
			c 15.942,0, 27.578,1.265, 35.331,8.585l0-31.11 c-7.753,7.183-19.389,8.448-35.331,8.448c-4.955,0-10.554-0.14-14.866-0.424l0-18.718 
			c0-8.024, 5.172-10.981, 26.069-10.981c 24.774,0, 40.070,5.632, 51.273,20.41l0-37.58 c-4.096,2.109-9.048,3.096-20.254,3.096l-96.079,0 
			c 6.677,3.377, 10.987,8.445, 10.987,13.653L 334.875,62.296 zM 456.418,62.296c0,5.208-4.52,10.277-11.526,13.653l 52.666,0 c-0.454-1.125-0.899-2.252-0.899-3.517
			c0-1.548, 0.899-3.66, 2.712-5.912l 41.134-55.034l 0.454,0 l0,40.957 c0,12.389-2.712,18.014-15.147,23.506l 54.705,0 
			c-7.010-3.374-11.526-8.445-11.526-13.653l0-76.852 c0-3.377, 0.899-5.492, 3.163-6.9l-38.875,0 c 0.677,0.704, 1.131,1.408, 1.131,2.533
			c0,1.125-1.813,3.517-3.618,5.912l-45.882,61.37l-0.454,0 l0-46.309 c0-12.389, 2.712-18.014, 15.147-23.506l-54.705,0 
			c 7.010,3.377, 11.526,8.445, 11.526,13.653L 456.421,62.296 zM 577.49-21.452c 8.137,5.772, 14.467,16.61, 18.304,24.21l 35.261,64.046c 1.131,2.112, 2.033,4.504, 2.033,6.193
			c0,1.125-0.454,2.252-2.033,2.956l 41.14,0 c-1.131-0.701-1.585-1.405-1.585-2.389c0-1.408, 1.813-6.196, 3.84-10.136l 30.062-60.663
			c 3.843-7.598, 10.17-18.441, 18.082-24.21l-48.6,0 c 4.072,3.517, 5.65,7.458, 5.65,11.398c0,2.536-0.674,6.196-2.487,8.165l-55.826,0 
			c-2.033-2.252-3.386-5.492-3.386-9.009c0-4.224, 2.712-8.448, 6.552-10.557L 577.49-21.452 z M 670.388,12.19l-19.892,42.085l-0.454,0 
			l-21.016-42.085L 670.388,12.19 z" data-tags="cfe" />
<glyph unicode="&#xe013;" d="M 139.776,317.44l 86.784,113.664l 114.432-88.32L 657.408,736l 110.592-89.088L 364.8,144.64L 139.776,317.44L 139.776,317.44z M 548.352,50.176L 548.352,242.176 l 82.176,0 l0-274.176 L0-32 L0,598.528 l 274.176,0 l0-82.176 L 82.176,516.352 l0-466.176 L 548.352,50.176 L 548.352,50.176
		z" data-tags="do" />
<glyph unicode="&#xe014;" d="M 521.472,571.648l 246.528,0 l0-552.192 c0-28.416-23.808-51.456-52.224-51.456L 521.472-32 L 521.472,571.648 L 521.472,571.648z M 356.352,571.648l 137.472,0 l0-603.648 L 52.224-32 c-28.416,0-52.224,23.040-52.224,51.456L0,571.648 l 137.472,0 l0,47.616 c0,32.256, 10.752,59.904, 31.488,82.176
		c 21.504,23.040, 47.616,34.56, 77.568,34.56c 30.72,0, 56.832-11.52, 77.568-34.56c 21.504-22.272, 32.256-49.92, 32.256-82.176L 356.352,571.648 L 356.352,571.648z M 301.824,571.648l0,47.616 c0,36.864-23.808,62.208-55.296,62.208c-30.72,0-54.528-25.344-54.528-62.208l0-47.616 L 301.824,571.648 
		L 301.824,571.648z M 630.528,619.264l0-20.736 l-54.528,0 l0,20.736 c0,36.864-23.808,62.208-55.296,62.208c-30.72,0-54.528-25.344-54.528-62.208l0-20.736 l-54.528,0 l0,20.736 c0,32.256, 10.752,59.904, 31.488,82.176c 21.504,23.040, 47.616,34.56, 77.568,34.56
		c 30.72,0, 56.832-11.52, 77.568-34.56C 619.776,679.168, 630.528,651.52, 630.528,619.264L 630.528,619.264z" data-tags="shop" />
<glyph unicode="&#xe015;" d="M 430.080,489.472L 329.472,489.472 l0-109.824 l 102.144,0 c 43.776,0, 66.048,18.432, 66.048,54.528C 497.664,471.040, 475.392,489.472, 430.080,489.472L 430.080,489.472L 430.080,489.472z M 112.128,623.104C 188.16,698.368, 278.784,736, 384,736
		s 195.84-37.632, 271.104-112.896s 112.896-165.888, 112.896-271.104s-37.632-195.84-112.896-271.104s-165.888-112.896-271.104-112.896s-195.84,37.632-271.104,112.896S0,246.784,0,352S 37.632,547.84, 112.128,623.104L 112.128,623.104L 112.128,623.104z
		 M 426.24,297.472c 103.68,0, 163.584,36.096, 163.584,136.704c0,92.928-63.744,137.472-158.208,137.472L 246.528,571.648 l0-411.648 l 82.944,0 L 329.472,297.472 L 426.24,297.472 L 426.24,297.472z" data-tags="park" />
<glyph unicode="&#xe016;" d="M 416.141,20.939L 416.141,175.153 c 2.302,2.302, 6.138,3.069, 9.207,6.138c 4.603,0, 6.138,3.069, 11.508,3.069c 6.138,0, 12.276-3.069, 14.577-6.905c 3.069-4.603, 3.069-9.974, 3.069-19.948l0-124.292 c0-9.974,0-14.577-0.767-16.879c-4.603-3.836-9.207-6.905-14.577-6.905c-5.371,0-7.672,3.069-11.508,3.069
		C 422.279,14.801, 419.978,16.336, 416.141,20.939L 416.141,20.939L 416.141,20.939z M 588.002,177.455c 1.534,0.767, 8.44,3.836, 16.879,3.836c 5.371,0, 13.043-3.069, 15.345-3.836c 2.302-4.603, 5.371-13.81, 5.371-23.017l0-23.017 l-42.198,0 l0,23.017 
		C 583.398,163.644, 583.398,172.851, 588.002,177.455L 588.002,177.455L 588.002,177.455z M 343.254,411.461c-6.138,0-13.81,1.534-17.646,8.44c-3.069,3.069-5.371,8.44-5.371,14.577L 320.237,581.019 c0,7.672, 2.302,12.276, 6.905,15.345c 2.302,3.069, 9.974,6.138, 16.112,6.138
		c 6.905,0, 11.508-3.069, 16.879-6.138c 4.603-3.069, 6.905-7.672, 6.905-15.345l0-146.541 c0-6.138-2.302-11.508-6.905-14.577C 354.763,412.995, 350.159,411.461, 343.254,411.461L 343.254,411.461L 343.254,411.461z M-0.466,305.582l0-47.568 l 58.31,0 l0-283.109 l 52.939,0 L 110.783,258.014 l 59.077,0 l0,47.568 L-0.466,305.582 L-0.466,305.582
		z M 114.619,736L 52.473,736 l 72.887-220.963l0-141.938 l 61.379,0 L 186.739,523.477 L 259.626,736l-62.146,0 l-39.896-145.007l-3.069,0 L 114.619,736L 114.619,736z M 264.997,578.717l0-138.102 c0-20.715, 6.138-40.663, 20.715-53.706c 13.81-13.81, 32.224-22.25, 57.542-22.25
		c 23.784,0, 43.732,8.44, 59.077,22.25c 13.81,11.508, 19.948,30.689, 19.948,53.706L 422.279,578.717 c0,18.414-6.138,38.362-19.948,49.87c-15.345,14.577-32.224,19.948-55.241,19.948c-26.853,0-44.5-5.371-61.379-17.646C 271.134,617.079, 264.997,599.433, 264.997,578.717L 264.997,578.717
		L 264.997,578.717z M 459.874,221.187c-8.44,0-16.879,0-23.017-3.836c-6.905-5.371-14.577-9.974-20.715-16.879L 416.141,305.582 l-49.103,0 l0-330.677 l 49.103,0 l0,16.879 c 6.138-5.371, 13.81-10.741, 20.715-13.81c 6.138-3.069, 16.879-5.371, 25.319-5.371c 13.81,0, 26.086,5.371, 32.224,13.81
		c 6.905,9.974, 12.276,20.715, 12.276,39.129L 506.675,160.575 c0,20.715-5.371,36.060-12.276,46.801C 485.96,217.351, 473.684,221.187, 459.874,221.187L 459.874,221.187L 459.874,221.187z M 466.012,643.165l0-225.566 c0-17.646, 6.138-29.155, 9.974-36.827c 7.672-7.672, 16.112-13.043, 30.689-13.043
		c 9.207,0, 20.715,5.371, 29.922,8.44c 11.508,8.44, 23.017,14.577, 33.758,26.086l0-29.155 l 55.241,0 L 625.596,643.165 l-55.241,0 l0-206.386 c-6.138-6.138-11.508-11.508-17.646-13.81c-6.138-3.069-11.508-5.371-16.112-5.371c-5.371,0-9.207,2.302-11.508,4.603c-2.302,0.767-2.302,6.138-2.302,12.276L 522.787,643.165 L 466.012,643.165 
		L 466.012,643.165z M 675.466,154.438c0,23.017-5.371,37.594-17.646,52.939c-12.276,11.508-29.155,17.646-51.405,17.646c-20.715,0-39.129-6.138-53.706-19.948c-13.81-15.345-21.483-29.922-21.483-50.637l0-109.714 c0-23.784, 7.672-42.198, 19.181-56.008
		c 13.81-13.81, 30.689-20.715, 52.172-20.715c 25.319,0, 42.965,6.905, 55.241,18.414c 12.276,13.81, 17.646,32.224, 17.646,58.31l0,10.741 l-49.87,0 l0-10.741 c0-13.81,0-23.784-5.371-28.388c-2.302-1.534-9.974-3.836-15.345-3.836c-8.44,0-15.345,2.302-16.879,6.138c-4.603,4.603-4.603,14.577-4.603,26.086
		l0,46.034 l 92.068,0 L 675.466,154.438 L 675.466,154.438z M 329.444-25.095L 329.444,218.885 l-48.336,0 l0-185.67 c-5.371-4.603-9.974-9.974-13.81-12.276c-7.672-4.603-12.276-4.603-14.577-4.603c-3.836,0-9.207,0-11.508,2.302c0,2.302-2.302,6.905-2.302,14.577L 238.911,218.885 l-48.336,0 l0-204.084 
		c0-14.577, 1.534-23.784, 8.44-33.758c 5.371-6.138, 14.577-8.44, 26.086-8.44c 8.44,0, 18.414,2.302, 27.62,6.905c 9.974,4.603, 18.414,11.508, 28.388,23.017l0-27.62 L 329.444-25.095 L 329.444-25.095z" horiz-adv-x="675" data-tags="you-tube" />
<glyph unicode="&#xe017;" d="M 633.235,242.286l 121.223-121.223c 8.44-8.44, 13.043-18.414, 13.043-29.155c0-12.276-4.603-23.017-14.577-32.991l-20.715-21.483l-181.834,182.601l 21.483,20.715c 8.44,9.207, 19.181,13.81, 32.224,13.81
		C 615.587,254.562, 625.562,250.726, 633.235,242.286L 633.235,242.286L 633.235,242.286z M 479.788,148.684l 51.405,51.405l 181.834-181.067l-2.302-1.534
		c-66.749-65.215-184.903-65.215-316.1-1.534c-65.215,31.457-131.964,81.327-198.713,148.076c-135.033,135.033-196.412,269.299-196.412,379.78c0,56.008, 16.112,101.275, 49.103,135.8l 1.534,2.302l 181.067-181.834l-51.405-51.405c 2.302-2.302, 8.44-13.81, 19.181-32.991
		c 10.741-19.181, 19.948-33.758, 26.853-45.267c 13.043-21.483, 45.267-64.448, 79.025-98.206c 32.991-32.991, 75.189-63.68, 97.439-78.258c 10.741-6.905, 25.319-15.345, 44.5-26.086L 479.788,148.684L 479.788,148.684z M 152.947,723.341
		l 120.456-121.223c 8.44-8.44, 13.043-18.414, 13.043-29.155c0-13.043-4.603-23.784-14.577-33.758l-20.715-19.948l-181.067,181.834l 19.948,20.715c 9.974,9.207, 21.483,13.81, 32.991,13.81C 133.766,735.617, 143.74,731.781, 152.947,723.341
		L 152.947,723.341z" horiz-adv-x="767" data-tags="phone" />
<glyph unicode="&#xe018;" d="M 370.176,489.472L 168.192,489.472 L 251.904,736l 118.272,0 L 370.176,489.472 L 370.176,489.472z M 516.096,736l 83.712-246.528L 397.824,489.472 L 397.824,736 L 516.096,736 L 516.096,736z M 768,489.472L 628.224,489.472 L 543.744,736l 114.432,0 L 768,489.472L 768,489.472z M0,379.648
		L0,461.824 l 768,0 l0-82.176 l-54.528,0 l0-411.648 L 301.824-32 L 301.824,297.472 L 109.824,297.472 l0-329.472 L 54.528-32 L 54.528,379.648 L0,379.648 L0,379.648z M 356.352,297.472l0-192 l 301.824,0 L 658.176,297.472 L 356.352,297.472 L 356.352,297.472z M 224.256,736L 139.776,489.472L0,489.472 L 109.824,736L 224.256,736 L 224.256,736z" data-tags="lease" />
<glyph unicode="&#xe019;" d="M 493.824,406.528l0-26.88 L 274.176,379.648 l0,26.88 L 493.824,406.528 L 493.824,406.528z M 137.472,516.352l0-109.824 L 27.648,489.472L 384,736l 356.352-246.528L 630.528,406.528L 630.528,516.352 L 137.472,516.352 L 137.472,516.352z M 768-4.352L 658.176,105.472l-27.648-27.648
		l 109.824-109.824L 27.648-32 l 109.824,109.824l-27.648,27.648L0-4.352L0,461.824 l 384-301.824l 384,301.824L 768-4.352 L 768-4.352z M 493.824,461.824l0-27.648 L 274.176,434.176 l0,27.648 L 493.824,461.824 L 493.824,461.824z M 274.176,324.352l0,27.648 l 219.648,0 l0-27.648 L 274.176,324.352 
		L 274.176,324.352z" data-tags="email" />
<glyph unicode="&#xe01a;" d="M 768,352c0-106.752-37.632-197.376-112.896-271.872s-165.888-112.128-271.104-112.128s-195.84,37.632-271.104,112.128S0,245.248,0,352c0,105.216, 37.632,195.84, 112.896,271.104S 278.784,736, 384,736
		s 195.84-37.632, 271.104-112.896S 768,457.216, 768,352L 768,352L 768,352z M 422.4,582.4c-21.504,21.504-55.296,21.504-76.8,0c-21.504-21.504-21.504-55.296,0-76.8c 21.504-21.504, 55.296-21.504, 76.8,0
		S 443.904,560.896, 422.4,582.4L 422.4,582.4L 422.4,582.4z M 493.824,105.472L 493.824,187.648 l-55.296,0 L 438.528,434.176 L 301.824,434.176 l0-82.176 l 54.528,0 l0-164.352 l-54.528,0 l0-82.176 L 493.824,105.472 L 493.824,105.472z" data-tags="info" />
<glyph unicode="&#xe01c;" d="M 768,352c0-106.752-37.632-197.376-112.896-271.872s-165.888-112.128-271.104-112.128s-195.84,37.632-271.104,112.128S0,245.248,0,352c0,105.216, 37.632,195.84, 112.896,271.104S 278.784,736, 384,736
		s 195.84-37.632, 271.104-112.896S 768,457.216, 768,352L 768,352L 768,352z M 354.816,144.64c 16.128-16.128, 42.24-16.128, 58.368,0s 16.128,42.24,0,57.6c-16.128,16.128-42.24,16.128-58.368,0
		C 338.688,186.88, 338.688,160.768, 354.816,144.64L 354.816,144.64L 354.816,144.64z M 479.232,337.408c 36.864,19.2, 55.296,49.92, 55.296,92.928c0,74.496-55.296,113.664-143.616,113.664c-55.296,0-103.68-21.504-144.384-65.28l 49.92-58.368
		c 29.184,32.256, 60.672,48.384, 94.464,48.384c 40.704,0, 61.44-13.824, 61.44-42.24c0-21.504-3.84-29.184-30.72-42.24c-19.968-8.448-34.56-19.2-44.544-31.488c-19.2-23.808-20.736-42.24-20.736-82.944l 55.296,0 C 412.416,300.544, 429.312,313.6, 479.232,337.408L 479.232,337.408
		z" data-tags="huh" />
<glyph unicode="&#xe01d;" d="M 740.345,736c 15.364,0, 27.655-12.291, 27.655-27.655l0-280.39 c0-16.132-6.146-31.496-17.669-44.555l-409.446-407.91c-9.986-9.986-26.887-9.986-36.873,0l-296.522,296.522c-9.986,9.986-9.986,26.887,0,36.873l 407.91,409.446
		c 13.059,11.523, 28.423,17.669, 44.555,17.669L 740.345,736 L 740.345,736z M 615.13,583.13c 16.132-15.364, 43.019-15.364, 58.383,0c 16.132,16.132, 16.132,43.019,0,58.383c-15.364,16.132-42.251,16.132-58.383,0
		C 599.766,626.148, 599.766,599.262, 615.13,583.13L 615.13,583.13z" data-tags="tag" />
<glyph unicode="&#xe01e;" d="M 82.176,736l 685.824,0 l0-637.44 c0-36.096-13.056-66.816-38.4-92.16s-56.064-38.4-92.16-38.4L 130.56-32 c-36.096,0-66.816,13.056-92.16,38.4S0,62.464,0,98.56L0,653.824 l 54.528,0 l0-555.264 c0-9.216, 4.608-13.824, 13.824-13.824
		s 13.824,4.608, 13.824,13.824L 82.176,736 L 82.176,736z M 137.472,626.176l0-27.648 l 164.352,0 l0,27.648 L 137.472,626.176 L 137.472,626.176z M 137.472,544l0-27.648 l 164.352,0 l0,27.648 L 137.472,544 L 137.472,544z M 137.472,461.824l0-27.648 l 164.352,0 l0,27.648 L 137.472,461.824 L 137.472,461.824z
		 M 713.472,105.472l0,26.88 L 137.472,132.352 l0-26.88 L 713.472,105.472 L 713.472,105.472z M 713.472,187.648l0,26.88 L 137.472,214.528 l0-26.88 L 713.472,187.648 L 713.472,187.648z M 713.472,269.824l0,27.648 L 137.472,297.472 l0-27.648 L 713.472,269.824 L 713.472,269.824z M 713.472,352l0,27.648 L 137.472,379.648 l0-27.648 L 713.472,352 
		L 713.472,352z M 713.472,434.176L 713.472,626.176 L 356.352,626.176 l0-192 L 713.472,434.176 L 713.472,434.176z" data-tags="newsletter" />
<glyph unicode="&#xe01f;" d="M 424.676,736c 39.168,0, 68.352-29.184, 68.352-68.352l0-631.296 c0-39.168-29.184-68.352-68.352-68.352L 68.324-32 c-39.168,0-68.352,29.184-68.352,68.352L-0.028,667.648 C-0.028,706.816, 29.156,736, 68.324,736L 424.676,736 L 424.676,736z M 164.324,681.472l0-27.648 l 164.352,0 L 328.676,681.472 L 164.324,681.472 
		L 164.324,681.472z M 217.316,20.992c 16.128-15.36, 42.24-15.36, 58.368,0c 16.128,16.128, 16.128,42.24,0,58.368s-42.24,16.128-58.368,0S 201.188,37.12, 217.316,20.992L 217.316,20.992L 217.316,20.992z M 438.5,132.352L 438.5,598.528 L 54.5,598.528 l0-466.176 L 438.5,132.352 
		L 438.5,132.352z" horiz-adv-x="493" data-tags="mobile-device" />
<glyph unicode="&#xe020;" d="M 751.872,64.768c 21.504-21.504, 21.504-59.136,0-80.64s-59.136-21.504-80.64,0L 494.592,160.768c-53.76-36.864-113.664-55.296-178.944-55.296c-86.784,0-161.28,30.72-223.488,92.16C 30.72,259.84,0,333.568,0,420.352
		s 30.72,161.28, 92.16,222.72C 154.368,705.28, 228.096,736, 314.88,736s 161.28-30.72, 222.72-92.928c 62.208-61.44, 92.928-135.936, 92.928-222.72c0-65.28-18.432-125.184-55.296-178.944L 751.872,64.768L 751.872,64.768z M 150.528,585.472
		c-45.312-46.080-68.352-101.376-68.352-165.12s 23.040-119.040, 68.352-164.352c 46.080-45.312, 101.376-68.352, 165.12-68.352s 119.040,23.040, 164.352,68.352s 68.352,100.608, 68.352,164.352s-23.040,119.040-68.352,164.352c-45.312,46.080-100.608,69.12-164.352,69.12
		S 196.608,630.784, 150.528,585.472L 150.528,585.472z" data-tags="search" />
<glyph unicode="&#xe022;" d="M 493.824,724.48L 274.176,637.696l0-658.176 l 219.648,86.784L 493.824,724.48 L 493.824,724.48z M0,93.952l 246.528-125.952L 246.528,626.176 L0,736L0,93.952 L0,93.952z M 768-32L 768,626.176 L 521.472,736l0-658.176 L 768-32L 768-32z
		" data-tags="map" />
<glyph unicode="&#xe023;" d="M 442.368,461.824L 325.632,461.824 c-28.416,0-51.456-23.040-51.456-51.456l0-116.736 c0-28.416, 23.040-51.456, 51.456-51.456l 116.736,0 c 28.416,0, 51.456,23.040, 51.456,51.456L 493.824,410.368 C 493.824,438.784, 470.784,461.824, 442.368,461.824L 442.368,461.824L 442.368,461.824z
		 M 168.192,736L 51.456,736 C 23.040,736,0,712.96,0,684.544l0-116.736 c0-28.416, 23.040-51.456, 51.456-51.456l 116.736,0 c 28.416,0, 51.456,23.040, 51.456,51.456L 219.648,684.544 C 219.648,712.96, 196.608,736, 168.192,736L 168.192,736L 168.192,736z M 168.192,461.824L 51.456,461.824 
		c-28.416,0-51.456-23.040-51.456-51.456l0-116.736 c0-28.416, 23.040-51.456, 51.456-51.456l 116.736,0 c 28.416,0, 51.456,23.040, 51.456,51.456L 219.648,410.368 C 219.648,438.784, 196.608,461.824, 168.192,461.824L 168.192,461.824L 168.192,461.824z M 168.192,187.648L 51.456,187.648 
		c-28.416,0-51.456-23.040-51.456-51.456l0-116.736 c0-28.416, 23.040-51.456, 51.456-51.456l 116.736,0 c 28.416,0, 51.456,23.040, 51.456,51.456L 219.648,136.192 C 219.648,164.608, 196.608,187.648, 168.192,187.648L 168.192,187.648L 168.192,187.648z M 442.368,187.648L 325.632,187.648 
		c-28.416,0-51.456-23.040-51.456-51.456l0-116.736 c0-28.416, 23.040-51.456, 51.456-51.456l 116.736,0 c 28.416,0, 51.456,23.040, 51.456,51.456L 493.824,136.192 C 493.824,164.608, 470.784,187.648, 442.368,187.648L 442.368,187.648L 442.368,187.648z M 716.544,461.824L 599.808,461.824 
		c-28.416,0-51.456-23.040-51.456-51.456l0-116.736 c0-28.416, 23.040-51.456, 51.456-51.456l 116.736,0 c 28.416,0, 51.456,23.040, 51.456,51.456L 768,410.368 C 768,438.784, 744.96,461.824, 716.544,461.824L 716.544,461.824L 716.544,461.824z M 716.544,736L 599.808,736 
		c-28.416,0-51.456-23.040-51.456-51.456l0-116.736 c0-28.416, 23.040-51.456, 51.456-51.456l 116.736,0 c 28.416,0, 51.456,23.040, 51.456,51.456L 768,684.544 C 768,712.96, 744.96,736, 716.544,736L 716.544,736L 716.544,736z M 442.368,736L 325.632,736 c-28.416,0-51.456-23.040-51.456-51.456
		l0-116.736 c0-28.416, 23.040-51.456, 51.456-51.456l 116.736,0 c 28.416,0, 51.456,23.040, 51.456,51.456L 493.824,684.544 C 493.824,712.96, 470.784,736, 442.368,736L 442.368,736L 442.368,736z M 716.544,187.648L 599.808,187.648 c-28.416,0-51.456-23.040-51.456-51.456l0-116.736 
		c0-28.416, 23.040-51.456, 51.456-51.456l 116.736,0 c 28.416,0, 51.456,23.040, 51.456,51.456L 768,136.192 C 768,164.608, 744.96,187.648, 716.544,187.648L 716.544,187.648z" data-tags="grid" />
<glyph unicode="&#xe024;" d="M0-32l 356.352,0 L 356.352,324.352 L0,324.352 L0-32 L0-32z M 82.176,242.176l 192,0 l0-192 L 82.176,50.176 L 82.176,242.176 L 82.176,242.176z M 411.648,736l0-356.352 l 356.352,0 L 768,736 L 411.648,736 L 411.648,736z M 685.824,461.824L 493.824,461.824 L 493.824,653.824 l 192,0 L 685.824,461.824 
		L 685.824,461.824z M 411.648-32l 356.352,0 L 768,324.352 L 411.648,324.352 L 411.648-32 L 411.648-32z M 493.824,242.176l 192,0 l0-192 L 493.824,50.176 L 493.824,242.176 L 493.824,242.176z M0,379.648l 356.352,0 L 356.352,736 L0,736 L0,379.648 L0,379.648z M 82.176,653.824l 192,0 l0-192 
		L 82.176,461.824 L 82.176,653.824 L 82.176,653.824z" data-tags="boxes" />
<glyph unicode="&#xe025;" d="M0,297.472l 109.824,0 L 109.824,406.528 L0,406.528 L0,297.472 L0,297.472z M0,461.824l 109.824,0 L 109.824,571.648 L0,571.648 L0,461.824 L0,461.824z M0-32l 109.824,0 L 109.824,77.824 L0,77.824 L0-32 L0-32z M0,132.352l 109.824,0 L 109.824,242.176 L0,242.176 L0,132.352 L0,132.352z
		 M0,626.176l 109.824,0 L 109.824,736 L0,736 L0,626.176 L0,626.176z M 164.352,461.824l 603.648,0 L 768,571.648 L 164.352,571.648 L 164.352,461.824 L 164.352,461.824z M 164.352,736l0-109.824 l 603.648,0 L 768,736 L 164.352,736 L 164.352,736z M 164.352,297.472l 603.648,0 L 768,406.528 L 164.352,406.528 L 164.352,297.472 L 164.352,297.472z
		 M 164.352-32l 603.648,0 L 768,77.824 L 164.352,77.824 L 164.352-32 L 164.352-32z M 164.352,132.352l 603.648,0 L 768,242.176 L 164.352,242.176 L 164.352,132.352 L 164.352,132.352z" data-tags="list" />
<glyph unicode="&#xe026;" d="M 589.824,653.824c-52.992,0-96-43.008-96-96c0-19.968, 6.144-38.4, 16.128-52.992l 30.72,27.648c-3.072,8.448-6.144,16.128-6.144,25.344c0,29.952, 25.344,54.528, 55.296,54.528s 54.528-24.576, 54.528-54.528s-24.576-55.296-54.528-55.296
		c-11.52,0-21.504,3.84-30.72,9.984l-29.952-28.416c 16.128-13.824, 37.632-22.272, 60.672-22.272c 52.992,0, 96,43.008, 96,96S 642.816,653.824, 589.824,653.824L 589.824,653.824L 589.824,653.824z M 178.176,653.824c-52.992,0-96-43.008-96-96
		s 43.008-96, 96-96c 23.040,0, 44.544,8.448, 60.672,22.272l-29.952,28.416c-9.216-6.144-19.2-9.984-30.72-9.984c-29.952,0-54.528,25.344-54.528,55.296s 24.576,54.528, 54.528,54.528s 55.296-24.576, 55.296-54.528c0-9.216-3.072-16.896-6.144-25.344l 30.72-27.648
		c 9.984,14.592, 16.128,33.024, 16.128,52.992C 274.176,610.816, 231.168,653.824, 178.176,653.824L 178.176,653.824L 178.176,653.824z M 397.824,196.096c 9.216-2.304, 17.664-6.912, 24.576-13.824c 21.504-21.504, 21.504-56.832,0-78.336c-21.504-20.736-55.296-20.736-76.8,0
		c-21.504,21.504-21.504,56.832,0,78.336c 6.912,6.912, 15.36,11.52, 24.576,13.824l0,42.24 c-19.968-3.072-38.4-12.288-53.76-26.88c-37.632-37.632-37.632-98.304,0-135.936c 18.432-19.2, 43.008-27.648, 67.584-27.648s 49.152,8.448, 67.584,27.648c 37.632,37.632, 37.632,98.304,0,135.936
		c-15.36,14.592-33.792,23.808-53.76,26.88L 397.824,196.096 L 397.824,196.096z M 658.176,736L 109.824,736 C 49.92,736,0,686.080,0,626.176l0-548.352 c0-59.904, 49.92-109.824, 109.824-109.824l 548.352,0 c 59.904,0, 109.824,49.92, 109.824,109.824L 768,626.176 
		C 768,686.080, 718.080,736, 658.176,736L 658.176,736L 658.176,736z M 589.824,434.176c-30.72,0-59.136,12.288-81.408,30.72L 418.56,382.72c 0.768-9.216-3.072-18.432-9.984-25.344c-3.072-3.072-6.912-5.376-10.752-6.912l0-85.248 c 27.648-3.072, 52.992-14.592, 73.728-34.56
		c 23.040-23.808, 36.096-54.528, 36.096-86.784c0-33.792-13.056-64.512-36.096-87.552s-55.296-36.096-87.552-36.096c-33.792,0-64.512,13.056-87.552,36.096s-36.096,53.76-36.096,87.552c0,32.256, 13.056,62.976, 36.096,86.784c 19.968,19.968, 46.080,31.488, 73.728,34.56L 370.176,351.232 
		c-3.072,0.768-6.912,3.072-9.984,6.144c-6.912,6.912-10.752,16.128-9.984,24.576L 259.584,464.896c-22.272-18.432-50.688-30.72-81.408-30.72c-67.584,0-123.648,56.064-123.648,123.648S 110.592,681.472, 178.176,681.472s 123.648-56.064, 123.648-123.648c0-26.88-8.448-51.456-23.808-72.192
		l 84.48-77.568c 13.056,9.984, 29.952,9.984, 43.008,0l 84.48,77.568c-15.36,20.736-23.808,45.312-23.808,72.192c0,67.584, 56.064,123.648, 123.648,123.648s 123.648-56.064, 123.648-123.648S 657.408,434.176, 589.824,434.176L 589.824,434.176z" data-tags="flux-capacitor" />
<glyph unicode="&#xe027;" d="M 590.536,464.814l 15.983,84.964l-84.964,62.25L 396.215,612.027 l-7.571,0 L 419.769,735.687L0,735.687 l 85.805-68.98L 31.125,433.689l 85.805-63.092l 124.501,0 l-15.983-62.25l 85.805-61.409l 123.659,0 l-38.696-140.484l 164.038,0 l 30.284,124.501l 109.359,0 l 31.125,116.93l 37.855,0 
		l 31.125,116.93L 590.536,464.814 L 590.536,464.814z M 747.003,379.009L 552.681,379.009 l 37.855-23.554l-7.571-39.537l 109.359,0 l-15.983-52.997L 566.982,262.921 l-30.284-132.913L 434.91,130.008 l 47.108,170.767l-47.108-23.554L 327.235,277.222 l-63.092,47.108l 23.554,109.359l-46.267-31.966L 124.501,401.722 l-62.25,47.108
		l 54.679,224.606l-31.125,31.125l 132.072,0 l-53.838-248.16l 61.409,0 l 54.679,217.035l-31.125,31.125l 132.072,0 l-31.125-154.784l 53.838,31.125l 101.788,0 l 68.98-47.108l-14.301-68.98L 458.464,464.814 l 15.983,61.409L 365.931,526.223 l 37.855-31.125l-45.426-163.196l 68.98,0 l 15.983,78.234l 62.25,0 l-31.125,23.554
		l 286.856,0 L 747.003,379.009L 747.003,379.009z M 474.448,479.115l 15.142,0 l 15.983,47.108l-15.983,0 L 474.448,479.115L 474.448,479.115z M 521.556,557.349l-15.983,7.571L 403.786,564.92 l-76.551-38.696l-47.108-194.321l 7.571-7.571l 54.679,194.321l 69.822,38.696L 521.556,557.349 L 521.556,557.349z
		 M 498.002,394.151l-39.537,0 l-23.554-69.822l-76.551,0 l0-15.983 l 92.535,0 l 15.983,70.663l 31.125,0 L 498.002,394.151 L 498.002,394.151z M 365.931,673.436L 365.931,689.42 l-78.234,0 l 7.571-8.412l-62.25-232.177l-76.551,0 l0-15.142 l 92.535,0 l 62.25,239.748L 365.931,673.436 L 365.931,673.436z M 201.893,689.42l-77.393,0 
		l 8.412-8.412L 78.234,448.831l 7.571-7.571l 62.25,232.177l 53.838,0 L 201.893,689.42 L 201.893,689.42z M 676.341,308.347L 574.553,308.347 c0-7.571,0-15.142,0-15.142l 94.217,0 C 668.77,300.777, 676.341,300.777, 676.341,308.347L 676.341,308.347L 676.341,308.347z M 458.464,145.15l 8.412,0 
		l 69.822,264.984l 201.893,0 l 8.412,15.142L 513.144,425.277 l 8.412-15.142L 458.464,145.15L 458.464,145.15zM 71.090-10.102L 32.613-10.102 l-5.698-11.908c-0.786-1.654-1.179-2.957-1.179-3.908c0-1.82, 1.383-3.082, 4.148-3.784l0-1.985 L 1.878-31.687 
		l0,1.985 c 1.653,0.331, 2.915,0.909, 3.784,1.736c 0.868,0.826, 1.861,2.438, 2.977,4.838l 31.136,65.063c 0.993,2.068, 1.489,3.721, 1.489,4.962
		c0,1.902-1.2,3.267-3.597,4.095l0,1.985 l 30.019,0 l0-1.985 c-2.44-0.704-3.659-1.923-3.659-3.66c0-1.2, 0.393-2.564, 1.179-4.094
		l 32.252-65.248c 1.365-2.771, 2.563-4.662, 3.597-5.675c 1.033-1.014, 2.418-1.686, 4.156-2.016l0-1.985 L 74.043-31.687 l0,1.985 
		c 2.736,0.455, 4.106,1.736, 4.106,3.845c0,0.868-0.414,2.15-1.241,3.845L 71.090-10.102z M 65.774,1.496l-13.73,30.158
		L 38.093,1.496L 65.774,1.496 zM 147.696,39.020l0-64.194 c0-1.282, 0.289-2.255, 0.868-2.916c 0.578-0.662, 1.612-1.2, 3.102-1.612l0-1.985 l-26.422,0 l0,1.985 
		c 1.489,0.413, 2.522,0.951, 3.102,1.612c 0.578,0.661, 0.868,1.633, 0.868,2.916l0,64.194 L 102.915,39.020 c-1.241,0-2.193-0.285-2.853-0.851
		c-0.662-0.567-1.2-1.606-1.612-3.119l-1.985,0 l0,21.894 l 1.985,0 c 0.456-1.507, 1.002-2.544, 1.643-3.115
		c 0.64-0.57, 1.581-0.855, 2.821-0.855l 71.016,0 c 1.282,0, 2.254,0.285, 2.915,0.855c 0.661,0.57, 1.199,1.607, 1.612,3.115l 1.985,0 l0-21.894 
		l-1.985,0 c-0.414,1.511-0.951,2.551-1.612,3.119c-0.662,0.567-1.633,0.851-2.915,0.851L 147.696,39.020 zM 260.145,5.28l-48.813,0 l0-30.515 c0-1.241, 0.3-2.202, 0.899-2.885c 0.599-0.682, 1.622-1.21, 3.071-1.581l0-1.985 L 188.879-31.686 l0,1.985 
		c 1.489,0.413, 2.522,0.951, 3.102,1.612c 0.578,0.661, 0.868,1.612, 0.868,2.853L 192.849,46.526 c0,1.241-0.29,2.191-0.868,2.853
		c-0.579,0.661-1.612,1.2-3.102,1.613l0,1.985 l 26.422,0 l0-1.985 c-1.489-0.373-2.522-0.899-3.102-1.582
		c-0.579-0.682-0.868-1.643-0.868-2.884l0-27.29 l 48.813,0 L 260.144,46.526 c0,1.241-0.29,2.202-0.868,2.884
		c-0.579,0.683-1.612,1.21-3.102,1.582l0,1.985 l 26.422,0 l0-1.985 c-1.489-0.414-2.522-0.952-3.102-1.613
		c-0.579-0.661-0.868-1.611-0.868-2.853l0-71.761 c0-1.241, 0.289-2.192, 0.868-2.853c 0.578-0.662, 1.612-1.2, 3.102-1.612l0-1.985 l-26.422,0 
		l0,1.985 c 1.446,0.372, 2.47,0.899, 3.070,1.581c 0.599,0.683, 0.899,1.643, 0.899,2.885L 260.143,5.28 zM 320.307-17.731l 52.037,0 c 1.282,0, 2.255,0.289, 2.915,0.867c 0.662,0.578, 1.2,1.613, 1.613,3.103l 1.985,0 l0-21.894 l-1.985,0 
		c-0.414,1.489-0.951,2.522-1.613,3.102c-0.66,0.578-1.633,0.868-2.915,0.868l-74.49,0 l0,1.985 c 1.489,0.413, 2.522,0.951, 3.102,1.612
		c 0.578,0.661, 0.868,1.633, 0.868,2.916l0,71.637 c0,1.282-0.29,2.254-0.868,2.915c-0.579,0.661-1.612,1.2-3.102,1.613l0,1.985 
		l 26.422,0 l0-1.985 c-1.489-0.373-2.522-0.899-3.103-1.582c-0.578-0.682-0.867-1.665-0.867-2.946L 320.306-17.731 zM 410.18,5.464l0-23.196 l 54.456,0 c 1.241,0, 2.192,0.289, 2.854,0.867c 0.66,0.578, 1.199,1.613, 1.611,3.103l 1.985,0 l0-21.894 l-1.985,0 
		c-0.413,1.489-0.951,2.522-1.611,3.102c-0.662,0.578-1.613,0.868-2.854,0.868L 387.727-31.686 l0,1.985 c 1.489,0.413, 2.522,0.951, 3.103,1.612
		c 0.578,0.661, 0.867,1.633, 0.867,2.916l0,71.637 c0,1.282-0.29,2.254-0.867,2.915c-0.579,0.661-1.613,1.2-3.103,1.613l0,1.985 
		l 75.422,0 c 1.241,0, 2.192,0.295, 2.854,0.885c 0.66,0.589, 1.199,1.618, 1.611,3.085l 1.985,0 l0-21.894 l-1.985,0 
		c-0.413,1.47-0.951,2.499-1.611,3.088c-0.662,0.587-1.613,0.882-2.854,0.882l-52.967,0 l0-20.096 l 34.361,0 
		c 1.241,0, 2.192,0.29, 2.854,0.868c 0.66,0.578, 1.199,1.612, 1.611,3.102l 1.985,0 l0-21.398 l-1.985,0 c-0.413,1.447-0.951,2.471-1.611,3.071
		c-0.662,0.599-1.613,0.898-2.854,0.898L 410.18,5.464 zM 528.707,39.020l0-64.194 c0-1.282, 0.29-2.255, 0.868-2.916c 0.578-0.662, 1.612-1.2, 3.102-1.612l0-1.985 L 506.254-31.687 l0,1.985 
		c 1.489,0.413, 2.522,0.951, 3.102,1.612c 0.578,0.661, 0.868,1.633, 0.868,2.916l0,64.194 l-26.298,0 c-1.241,0-2.192-0.285-2.853-0.851
		c-0.662-0.567-1.2-1.606-1.612-3.119l-1.985,0 l0,21.894 l 1.985,0 c 0.455-1.507, 1.002-2.544, 1.643-3.115
		c 0.641-0.57, 1.581-0.855, 2.821-0.855l 71.016,0 c 1.282,0, 2.254,0.285, 2.916,0.855c 0.661,0.57, 1.199,1.607, 1.612,3.115l 1.985,0 l0-21.894 
		l-1.985,0 c-0.414,1.511-0.951,2.551-1.612,3.119c-0.662,0.567-1.633,0.851-2.916,0.851L 528.707,39.020 zM 573.86-25.174L 573.86,46.526 c0,1.241-0.29,2.191-0.867,2.853c-0.579,0.661-1.613,1.2-3.103,1.613l0,1.985 l 26.423,0 l0-1.985 
		c-1.489-0.373-2.522-0.899-3.103-1.582c-0.578-0.682-0.867-1.643-0.867-2.884l0-71.699 c0-1.282, 0.299-2.264, 0.898-2.947
		c 0.599-0.682, 1.622-1.21, 3.071-1.581l0-1.985 l-26.423,0 l0,1.985 c 1.489,0.413, 2.522,0.951, 3.103,1.612
		C 573.57-27.428, 573.86-26.456, 573.86-25.174zM 693.566-2.597l 11.785-17.646l-1.612-1.12c-1.159,1.077-2.109,1.616-2.853,1.616s-2.832-0.995-6.264-2.983
		c-7.112-4.104-13.097-6.87-17.956-8.3c-4.859-1.429-10.637-2.145-17.335-2.145c-13.356,0-24.313,3.163-32.872,9.49
		c-5.045,3.679-9.015,8.249-11.908,13.707c-3.348,6.243-5.025,13.127-5.025,20.653c0,10.254, 2.997,19.166, 8.994,26.732
		c 9.014,11.371, 22.639,17.057, 40.873,17.057c 6.699,0, 12.446-0.704, 17.243-2.11c 4.796-1.406, 10.792-4.177, 17.986-8.31
		c 3.432-1.945, 5.52-2.916, 6.264-2.916s 1.695,0.537, 2.853,1.612l 1.612-1.116l-11.785-17.676l-1.675,1.112
		c 0.083,0.658, 0.125,1.214, 0.125,1.667c0,1.194-0.517,2.316-1.551,3.366c-1.034,1.051-2.874,2.318-5.52,3.801
		c-7.317,4.119-15.071,6.178-23.259,6.178c-9.676,0-17.388-2.417-23.136-7.249c-6.782-5.66-10.172-13.053-10.172-22.181
		c0-9.129, 3.39-16.524, 10.172-22.182c 5.747-4.833, 13.46-7.248, 23.136-7.248c 8.186,0, 15.94,2.067, 23.259,6.202
		c 2.646,1.489, 4.486,2.76, 5.52,3.814c 1.034,1.055, 1.551,2.182, 1.551,3.38c0,0.455-0.042,0.993-0.125,1.612L 693.566-2.597zM 796.834,45.805l-10.11-19.934l-1.736,0.993c 0.041,0.413, 0.061,0.744, 0.061,0.993c0,1.406-1.2,2.915-3.596,4.528
		c-7.36,5.127-16.002,7.691-25.927,7.691c-4.382,0-8.249-0.537-11.598-1.611c-2.439-0.826-4.414-2.066-5.923-3.717
		c-1.51-1.653-2.264-3.449-2.264-5.39c0-3.181, 1.922-5.349, 5.768-6.505c 1.985-0.578, 6.242-1.198, 12.777-1.859l 9.738-0.992
		c 5.789-0.62, 10.472-1.467, 14.048-2.541c 3.576-1.074, 6.749-2.582, 9.52-4.525c 2.811-2.024, 5.033-4.689, 6.668-7.995
		c 1.633-3.306, 2.449-6.838, 2.449-10.599c0-5.95-1.922-11.239-5.767-15.865c-3.473-4.215-8.87-7.333-16.188-9.358
		c-5.458-1.527-11.309-2.294-17.553-2.294c-11.206,0-22.268,2.687-33.183,8.064c-2.316,1.074-3.7,1.612-4.155,1.612
		c-0.538,0-1.386-0.456-2.543-1.365l-1.798,0.93l 9.179,20.777l 1.798-0.868c0-0.372,0-0.642,0-0.806c0-1.862, 0.889-3.577, 2.667-5.149
		c 2.687-2.399, 6.844-4.466, 12.466-6.202s 10.956-2.605, 16.002-2.605c 5.498,0, 10.191,0.929, 14.078,2.785
		c 2.15,1.032, 3.866,2.403, 5.148,4.118c 1.282,1.712, 1.923,3.497, 1.923,5.355c0,2.805-1.51,4.807-4.527,6.005
		c-2.11,0.824-6.368,1.589-12.778,2.291l-9.551,0.99c-6.41,0.662-10.937,1.293-13.583,1.893c-2.646,0.599-5.293,1.562-7.94,2.887
		c-3.764,1.862-6.72,4.655-8.87,8.38c-1.944,3.351-2.915,7.2-2.915,11.547c0,7.157, 2.459,13.075, 7.38,17.753
		c 6.45,6.166, 16.126,9.249, 29.027,9.249c 5.416,0, 10.461-0.551, 15.133-1.652s 10.503-3.125, 17.492-6.073
		c 2.397-0.956, 3.865-1.432, 4.403-1.432c 0.868,0, 1.881,0.476, 3.040,1.432L 796.834,45.805z" horiz-adv-x="800" data-tags="athletics" />
<glyph unicode="&#xe010;" d="M 341.694,471.549l 92.774,31.214l-15.607,46.821l-61.561-22.544C 319.151,643.226, 240.249,666.636, 181.289,666.636
		c-26.011,0-45.954-6.070-45.954-6.070l-70.232-21.677l 13.873-40.752l 60.693,19.942c 6.937,3.468, 14.74,3.468, 22.544,3.468
		c 18.208,0, 39.018-10.404, 39.018-10.404L 108.457,456.809L-0.792,409.121l 32.081-45.954l 123.988,45.954l 39.018,47.688l 53.758-63.295
		l-14.74-92.774l 62.428,0 l 13.873,108.381l-61.561,87.573l 47.688,52.89L 341.694,471.549L 341.694,471.549zM 279.266,690.046c0-25.144, 21.677-46.821, 46.821-46.821c 25.144,0, 46.821,21.677, 46.821,46.821S 351.232,736, 326.087,736
		C 300.943,736, 279.266,715.19, 279.266,690.046L 279.266,690.046L 279.266,690.046zM 437.914,245.814l 52.272-61.951l-69.696-94.863L 437.914-32l 70.664,0 l-18.392,103.575l 60.983,69.696l 43.56-52.272
		l 138.423-52.272L 768,88.999l-122.935,52.272L 542.457,312.606c0,0, 25.167,11.616, 44.527,11.616c 8.712,0, 17.424-0.968, 25.167-2.904
		l 66.791-21.296l 17.424,43.56l-80.343,25.167c0,0-20.327,6.776-50.336,6.776c-65.823,0-153.911-26.136-195.534-154.879
		l-70.663,25.167l-17.424-52.272l 104.543-33.88L 437.914,245.814L 437.914,245.814zM 455.338,401.661c0,29.040-22.264,51.304-52.272,51.304c-29.040,0-51.304-22.264-51.304-51.304
		c0-30.008, 22.264-52.272, 51.304-52.272C 433.074,349.39, 455.338,371.653, 455.338,401.661L 455.338,401.661L 455.338,401.661zM 483.866,545.973c0-18.638, 13.733-32.372, 31.391-32.372c 18.638,0, 33.353,13.733, 33.353,32.372s-14.714,33.352-33.353,33.352
	C 497.599,579.325, 483.866,564.611, 483.866,545.973L 483.866,545.973z" data-tags="play" />
<glyph unicode="&#xe01b;" d="M 768,351.208C 768,562.606, 595.398,736, 384.792,736C 171.81,736,0,562.606,0,351.208c0-169.452, 109.572-312.643, 262.179-363.452L 262.179,363.187 
	c-29.034,0-56.857,25.404-56.857,56.857l0,9.007 l0,42.82 L 205.323,642.5 c0,11.892, 9.64,21.533, 21.533,21.533
	c 11.892,0, 21.533-9.64, 21.533-21.533l0-170.63 l 31.575,0 L 279.963,642.5 c0,11.892, 9.64,21.533, 21.533,21.533
	c 11.892,0, 21.533-9.64, 21.533-21.533l0-170.63 l 31.575,0 L 354.603,642.5 c0,11.892, 9.64,21.533, 21.533,21.533
	c 11.892,0, 21.533-9.64, 21.533-21.533l0-170.63 l0-42.82 l0-9.007 c0-31.452-24.194-56.857-54.437-56.857l0-392.985 
	C 356.881-31.249, 370.746-32, 384.792-32c 26.723,0, 52.833,2.758, 78.057,8.001L 462.849,617.905 c0,30.243, 25.404,54.437, 54.437,54.437l 2.861,0 
	c 31.452,0, 74.947-220.581, 64.774-420.227l-41.021-45.514l0-203.987 C 675.775,63.009, 768,196.106, 768,351.208z" data-tags="eat" />
<glyph unicode="&#xe00e;" d="M 360,688C 161.178,688,0,526.822,0,328c0-198.824, 161.178-360, 360-360c 198.824,0, 360,161.176, 360,360
	C 720,526.822, 558.823,688, 360,688z M 563.692,208c 6.435,30.34, 10.497,62.544, 11.819,96l 95.584,0 c-2.502-33.147-10.218-65.335-23.010-96
	L 563.692,208 z M 156.308,448c-6.435-30.34-10.497-62.544-11.819-96L 48.906,352 c 2.502,33.145, 10.216,65.335, 23.009,96L 156.308,448 z M 514.527,448
	c 7.211-30.722, 11.549-62.891, 12.96-96L 384,352 l0,96 L 514.527,448 z M 384,496L 384,636.504 c 10.942-3.185, 21.783-8.527, 32.421-16.027
	c 19.937-14.055, 39.009-35.706, 55.155-62.615c 11.162-18.602, 20.814-39.312, 28.872-61.863L 384,495.998 z M 248.424,557.863
	c 16.146,26.909, 35.217,48.561, 55.155,62.615c 10.636,7.5, 21.479,12.843, 32.421,16.027L 336,496 l-116.448,0 
	C 227.612,518.549, 237.264,539.26, 248.424,557.863z M 336,448l0-96 l-143.486,0 c 1.41,33.109, 5.75,65.278, 12.958,96L 336,448 z M 71.916,208
	c-12.792,30.665-20.506,62.853-23.009,96l 95.583,0 c 1.321-33.456, 5.383-65.66, 11.819-96L 71.916,208 z M 192.514,304L 336,304 l0-96 l-130.527,0 
	C 198.264,238.72, 193.924,270.891, 192.514,304z M 336,160l0-140.505 c-10.941,3.185-21.783,8.529-32.421,16.027
	c-19.938,14.055-39.011,35.707-55.155,62.615c-11.162,18.603-20.813,39.313-28.873,61.863L 336,160 z M 471.576,98.137
	c-16.146-26.907-35.218-48.559-55.155-62.615c-10.638-7.498-21.479-12.843-32.421-16.027L 384,160 l 116.45,0 
	C 492.39,137.45, 482.737,116.74, 471.576,98.137z M 384,208l0,96 l 143.486,0 c-1.41-33.109-5.75-65.28-12.96-96L 384,208 z M 575.511,352
	c-1.321,33.456-5.383,65.66-11.819,96l 84.393,0 c 12.792-30.665, 20.508-62.855, 23.010-96L 575.511,352 z M 622.994,496l-71.925,0 
	c-13.979,44.072-33.282,82.721-56.487,113.571c 31.902-15.255, 60.794-35.712, 86.035-60.954C 596.727,532.508, 610.889,514.913, 622.994,496
	z M 139.383,548.617c 25.244,25.244, 54.135,45.699, 86.035,60.954c-23.206-30.851-42.507-69.499-56.487-113.571L 97.008,496 
	C 109.112,514.913, 123.275,532.508, 139.383,548.617z M 97.008,160l 71.923,0 c 13.98-44.072, 33.282-82.721, 56.489-113.573
	c-31.902,15.255-60.794,35.712-86.035,60.956C 123.275,123.491, 109.112,141.087, 97.008,160z M 580.617,107.383
	c-25.242-25.244-54.135-45.7-86.035-60.956c 23.206,30.851, 42.508,69.501, 56.487,113.573l 71.925,0 
	C 610.889,141.087, 596.727,123.491, 580.617,107.383z" data-tags="web" />
<glyph unicode="&#xe028;" d="M 576,384L 576,480 c0,17.664-14.304,32-32,32c-17.632,0-32-14.336-32-32l0-96 c0-5.216-1.44-128-128-128
			c-123.264,0-127.872,115.040-128,128L 256,480 c0,17.664-14.304,32-32,32C 206.368,512, 192,497.664, 192,480l0-96 c0-61.44, 34.624-173.408, 160-189.824L 352,128 L 256,128 c-17.632,0-32-14.336-32-32
			c0-17.696, 14.368-32, 32-32l 256,0 c 17.696,0, 32,14.304, 32,32c0,17.664-14.304,32-32,32l-96,0 l0,66.176 C 541.44,210.592, 576,322.56, 576,384zM 384,304c 53.056,0, 96,42.976, 96,95.968L 480,416 L 480,544.064 C 480,597.056, 437.056,640, 384,640
			c-52.992,0-96-42.944-96-95.936L 288.064,416L 288,416 l0-16.032 C 288,346.976, 331.008,304, 384,304z" data-tags="microphone, record, voice" />
<glyph unicode="&#xe029;" d="M 591.008,137.088c-7.904,36.768-64,83.712-155.008,97.152l0,33.44 c 26.624,25.824, 52,68.448, 52,128.576
			C 488,468.992, 462.016,528, 384,528s-104-59.008-104-131.744c0-60.128, 25.376-102.752, 52-128.576l0-33.44 
			c-91.008-13.44-147.104-60.384-155.008-97.152L 176,137.088 c0-0.96, 0.352-2.016, 0.64-3.008l 2.848-5.792C 195.808,106.432, 269.856,80, 384,80
			s 188.192,26.432, 204.544,48.32l 2.848,5.792c 0.288,0.992, 0.64,2.016, 0.64,3.008L 591.008,137.12 zM 751.072,263.168c-7.296,33.984-59.072,77.28-143.072,89.696L 608,383.68 c 24.608,23.84, 48,63.2, 48,118.688c0,67.2-24,121.632-96,121.632
				c-60.096,0-74.944-10.88-82.976-69.088c 39.008-30.304, 60.352-83.392, 60.352-155.648c0-72.928-15.872-112.608-41.376-143.264
				c 32,0, 74.976-41.568, 104.928-65.76c 108.096,2.752, 133.6,45.696, 147.872,64.8l 2.624,5.312c 0.256,0.928, 0.576,1.888, 0.576,2.784L 751.072,263.136 zM 208,624c-72,0-96-54.432-96-121.632c0-55.488, 23.392-94.848, 48-118.688l0-30.848 c-84-12.416-135.776-55.712-143.072-89.696L 16,263.136 
				c0-0.896, 0.32-1.856, 0.576-2.784L 19.2,255.072c 14.272-19.136, 39.808-62.048, 147.904-64.8C 197.024,214.432, 240,256, 272,256
				c-25.536,30.656-41.376,70.304-41.376,143.264c0,72.256, 21.376,125.344, 60.384,155.648C 282.976,613.12, 268.096,624, 208,624z" data-tags="users, group" />
<glyph unicode="&#xe02a;" d="M 640,149.312l-1.216,0 C 629.024,193.984, 560,251.008, 448,267.328L 448,304 l-3.904,0 C 478.24,334.88, 512,388.128, 512,464c0,88.384-32,160-128,160
			s-128-71.616-128-160c0-75.872, 33.76-129.12, 67.904-160L 320,304 l0-36.672 c-112-16.32-181.024-73.312-190.784-118.016L 128,149.312 c0-1.184, 0.416-2.4, 0.736-3.616
			C 128.416,143.328, 128,140.928, 128,138.688l 4.288,0 C 152.384,112.064, 243.488,80, 384,80s 231.616,32.064, 251.712,58.688L 640,138.688 
			c0,2.24-0.416,4.64-0.736,7.008C 639.584,146.912, 640,148.128, 640,149.312z" data-tags="user, profile, avatar" />
<glyph unicode="&#xe02b;" d="M 384,436C 384,513.312, 321.312,576, 244,576S 104,513.312, 104,436c0-36.064, 5.088-89.088, 56-140S 384,128, 384,128
			s 173.088,117.088, 224,168s 56,103.936, 56,140C 664,513.312, 601.312,576, 524,576S 384,513.312, 384,436" data-tags="heart, love, like, favorite" />
<glyph unicode="&#xe02c;" d="M 559.968,112.128L 384,240.48l-176.064-128.352l 67.264,207.68L 99.2,448l 217.6,0 L 384,655.872L 451.232,448l 217.6,0 l-176.032-128.192L 559.968,112.128z" data-tags="star, favorite, rate" />
<glyph unicode="&#xe02e;" d="M 384,608c-141.376,0-256-114.624-256-256s 114.624-256, 256-256s 256,114.624, 256,256S 525.376,608, 384,608z M 384,160c-106.016,0-192,85.984-192,192s 85.984,192, 192,192s 192-85.984, 192-192
			S 490.016,160, 384,160zM 416,339.2L 416,512L 352,512L 352,304L 470.4,240L 512,288 		z" data-tags="clock, time, history" />
<glyph unicode="&#xe02f;" d="M 544,544l0-32 c0-17.6-14.4-32-32-32l-64,0 c-17.6,0-32,14.4-32,32L 416,544 l-64,0 l0-32 c0-17.6-14.4-32-32-32L 256,480 C 238.4,480, 224,494.4, 224,512L 224,544 
		C 171.2,544, 128,500.8, 128,448l0-256 c0-52.8, 43.2-96, 96-96l 320,0 c 52.8,0, 96,43.2, 96,96L 640,448 C 640,500.8, 596.8,544, 544,544z M 576,160L 192,160 l0,256 l 384,0 L 576,160 zM 256,576c0,17.6, 14.4,32, 32,32l0,0c 17.6,0, 32-14.4, 32-32l0-32 c0-17.6-14.4-32-32-32l0,0C 270.4,512, 256,526.4, 256,544L 256,576 zM 448,576c0,17.6, 14.4,32, 32,32l0,0c 17.6,0, 32-14.4, 32-32l0-32 c0-17.6-14.4-32-32-32l0,0c-17.6,0-32,14.4-32,32L 448,576 z" data-tags="calendar, date" />
<glyph unicode="&#xe030;" d="M 256,544l0-282.88 c-5.184,0.8-10.496,1.28-16,1.28c-44.192,0-80-28.672-80-64s 35.808-64, 80-64c 41.44,0, 75.136,25.28, 79.2,57.6L 320,192 L 320,492.8 
	L 512,531.2l0-206.048 c-5.184,0.8-10.496,1.28-16,1.28c-44.192,0-80-28.672-80-64s 35.808-64, 80-64c 41.44,0, 75.136,25.28, 79.2,57.6L 576,256.032 L 576,608 L 256,544z" data-tags="music, songs" />
<glyph unicode="&#xe031;" d="M 431.997,496L 527.995,400.002L 336,208.006L 240.002,304.005zM 751.144,512.872l-55.137,55.137l-24.006-24.006c-12.284-12.285-29.258-19.883-48-19.883
		c-37.491,0-67.885,30.392-67.885,67.883c0,18.752, 7.605,35.728, 19.901,48.014l 23.991,23.989l-55.139,55.137
		c-22.476,22.476-59.256,22.476-81.732,0L 16.857,272.865c-22.474-22.476-22.474-59.258,0-81.732l 55.14-55.139l 23.971,23.973
		c 12.287,12.304, 29.273,19.914, 48.033,19.914c 37.491,0, 67.883-30.393, 67.883-67.883c0-18.755-7.605-35.73-19.901-48.017l-23.988-23.989
		l 55.137-55.139c 22.474-22.474, 59.256-22.474, 81.732,0l 446.28,446.28C 773.618,453.616, 773.618,490.396, 751.144,512.872z
		 M 336.002,112.003l-192,192l 288,288l 192-192L 336.002,112.003z" data-tags="ticket, theater, cinema" />
<glyph unicode="&#xe02d;" d="M 588,736l-408,0 C 80.568,736,0,655.432,0,556S 80.568,376, 180,376l 32.736,0 
	c 38.304-39.024, 89.76-65.040, 147.264-70.752L 360,64 l-72,0 l-96-96l 384,0 l-96,96l-72,0 L 408,305.248 c 57.504,5.712, 108.96,31.728, 147.264,70.752L 588,376 
	c 99.432,0, 180,80.568, 180,180S 687.432,736, 588,736z M 48,556c0,60.336, 40.704,110.64, 96,126.408L 144,664 l0-24 l0-96 c0-43.584, 11.808-84.384, 32.136-119.592
	C 105.072,426.496, 48,484.432, 48,556z M 591.864,424.408C 612.192,459.616, 624,500.416, 624,544L 624,640 L 624,664 L 624,682.408 c 55.296-15.744, 96-66.072, 96-126.408
	C 720,484.432, 662.928,426.496, 591.864,424.408z" data-tags="trophy, cup, prize, tournament" />
<glyph unicode="&#xe032;" d="M 246.858,461.716L 768,461.716 l0-237.427 c0-71.148-25.713-131.144-76.285-181.716c-50.573-49.713-112.289-74.573-184.289-74.573
		s-133.709,24.86-184.282,74.573c-50.573,50.573-76.285,110.569-76.285,181.716L 246.858,461.716 L 246.858,461.716z M 600,334.858
		c-29.146,33.431-81.431-18.862-48-48C 581.146,253.427, 633.431,305.713, 600,334.858L 600,334.858L 600,334.858z M 462.858,334.858
		c-29.146,33.431-81.431-18.862-48-48C 443.996,253.427, 496.289,305.713, 462.858,334.858L 462.858,334.858L 462.858,334.858z M 672,160L 342.858,160 
		c 14.569-29.998, 35.996-55.711, 66.002-77.146c 29.998-21.427, 63.429-32.571, 98.565-32.571c 35.144,0, 68.575,11.144, 98.573,32.571
		C 635.996,104.289, 658.284,130.002, 672,160L 672,160L 672,160z M 521.142,736l0-246.858 L 246.858,489.142 c-66.002,0-116.575-36.856-150.858-109.716l 123.425,0 l0-133.709 
		c-62.569,9.423-114.854,38.569-156.856,85.709C 20.575,379.425,0,435.144,0,498.573L0,736 L 521.142,736 L 521.142,736z M 353.142,609.142
		c-29.138,33.431-81.431-18.854-48-48C 334.287,527.711, 386.573,580.004, 353.142,609.142L 353.142,609.142L 353.142,609.142z M 216,609.142
		c-29.146,33.431-81.431-18.854-48-48C 197.146,527.711, 249.431,580.004, 216,609.142L 216,609.142z" data-tags="theatre" />
<glyph unicode="&#xe033;" d="M 137.142,340.856L 384,153.142l 246.858,181.716l0-161.142 c0-35.144-24.86-69.427-74.573-102.006C 506.573,39.14, 449.142,22.858, 384,22.858
		s-122.573,16.282-172.285,48.852c-49.713,32.579-74.573,66.862-74.573,102.006L 137.142,340.856 L 137.142,340.856z M 82.284,413.716l0-226.291 L 137.142-32l-54.858,0 
		L 54.858-32 L0-32 l 54.858,219.425L 54.858,434.284 L0,475.425L 384,736l 384-261.427L 384,187.425L 82.284,413.716L 82.284,413.716z M 413.146,504.571
		c-16.289,16.289-42.002,16.289-58.291,0c-16.282-16.282-16.282-42.002,0-58.284c 16.289-16.289, 42.002-16.289, 58.291,0
		C 429.427,462.569, 429.427,488.289, 413.146,504.571L 413.146,504.571z" data-tags="commencement" />
<glyph unicode="&#xe034;" d="M 187.715,214.858l 75.425,0 l 39.429-82.284L 147.425,132.575 L 187.715,214.858L 187.715,214.858z M 542.569,568.86c 62.577,0, 115.715-20.575, 159.429-62.577
		C 745.713,465.142, 768,413.716, 768,352c0-46.287-18.002-96-53.146-149.998c-35.144-53.146-73.713-94.287-115.715-124.285L 483.425,77.716 
		c-41.994,29.998-80.571,70.287-114.854,122.573c-33.431,52.285-50.573,101.138-50.573,147.425c0,61.716, 21.427,114.002, 65.142,156.856
		C 426.854,547.425, 480,568.86, 542.569,568.86L 542.569,568.86L 542.569,568.86z M 362.573,322.854c 24.852,95.148, 96.852,170.573, 189.427,204.004
		c-3.425,0-8.571,0.852-11.144,0.852c-49.713,0-92.567-17.994-127.711-53.138c-35.144-35.144-53.146-77.998-53.146-127.718
		C 360,339.144, 360.86,331.425, 362.573,322.854L 362.573,322.854L 362.573,322.854z M 440.571,575.711c-45.427-19.715-81.431-50.565-109.716-92.567
		c-28.285-41.142-41.994-87.429-41.994-138.002c0-25.713, 5.998-54.858, 17.994-87.429c-12.856-10.284-20.567-15.429-24-15.429L 165.427,242.284 
		c-42.002,30.006-80.571,70.287-114.854,122.573C 17.142,417.142,0,466.854,0,513.142c0,61.716, 22.287,114.002, 66.002,157.716
		C 109.716,714.573, 162.854,736, 225.431,736c 49.713,0, 94.28-15.429, 133.709-45.427C 399.429,660.575, 426.002,622.858, 440.571,575.711L 440.571,575.711
		L 440.571,575.711z M 44.575,490.002C 71.14,583.429, 142.287,659.715, 234.002,693.146c-2.573,0.852-5.998,0.852-11.144,0.852
		c-49.713,0-92.575-17.994-127.718-53.138S 42.854,563.715, 42.854,513.142C 42.854,507.996, 43.715,500.285, 44.575,490.002L 44.575,490.002L 44.575,490.002z
		 M 504.86,50.284l 76.285,0 L 620.575-32L 465.431-32 L 504.86,50.284L 504.86,50.284z" data-tags="celebration" />
<glyph unicode="&#xe035;" d="M 149.321,585.142c 51.425,51.433, 115.715,89.142, 193.713,114.002C 421.032,724.004, 498.177,736, 573.603,736
		c 55.718,0, 99.433-6.858, 132.864-19.715c-97.72-42.002-187.715-92.575-269.146-153.431l-9.431,12.004c-20.567,28.285-64.282-4.285-42.854-33.431
		l 9.423-11.996l-16.282-13.716l-10.284,11.996c-10.291,11.144-27.433,12.004-38.577,2.573c-11.144-10.284-12.856-26.573-2.565-39.429l 10.284-11.144
		l-15.429-14.569l-11.144,11.144c-11.144,11.144-28.285,10.284-38.569,0c-11.144-11.144-11.144-28.285,0-38.569l 11.144-12.004
		c-4.285-2.573-11.144-11.144-14.577-14.569l-11.144,10.284c-12.856,10.284-29.138,8.571-39.429-2.573c-9.423-11.144-8.571-28.285, 2.573-38.569
		l 12.004-10.284l-13.716-16.289l-11.996,9.431c-11.144,9.431-29.146,6.858-38.577-4.285c-9.423-11.144-6.858-29.146, 4.285-38.569l 12.856-9.431
		c-69.427-91.715-124.285-188.575-164.567-288.86c-23.148,48.86-27.433,148.285-12.856,255.429c 7.711,53.998, 23.14,108.856, 48,165.427
		C 80.747,500.285, 111.605,547.425, 149.321,585.142L 149.321,585.142L 149.321,585.142z M 615.605,118.858
		c-51.425-51.433-116.567-89.142-194.573-114.002c-77.998-24.86-155.144-36.856-229.709-36.856c-73.72,0-124.285,10.284-151.718,29.998
		c 42.002,105.431, 97.713,204.004, 167.148,295.718l 8.571-7.718c 5.998-4.285, 11.996-5.998, 17.142-5.998c 8.571,0, 15.429,3.425, 21.427,11.144
		c 9.431,11.144, 6.858,29.146-4.285,38.569l-9.431,6.858l 12.856,14.569l 8.571-6.851c 5.146-5.146, 11.144-7.718, 18.002-7.718
		c 8.571,0, 15.429,3.433, 20.575,9.431c 10.284,11.144, 8.571,29.138-2.573,38.569l-8.571,7.718c 3.425,3.425, 11.144,11.136, 13.716,14.569l 7.711-7.718
		c 5.146-5.998, 12.004-8.571, 19.715-8.571c 7.711,0, 13.716,2.573, 19.715,8.571c 10.284,10.291, 10.284,27.433-0.86,38.577l-7.711,7.711l 13.716,13.716
		l 7.711-8.571c 5.998-5.998, 12.856-9.431, 20.575-9.431c 7.711,0, 13.709,2.573, 18.854,6.858c 11.144,9.431, 11.996,27.425, 1.713,38.569l-7.711,8.571
		l 14.569,12.856l 7.718-9.423c 5.138-7.718, 11.996-11.144, 21.427-11.144c 6.858,0, 12.856,1.713, 17.142,5.998c 12.856,9.431, 14.569,25.713, 5.138,38.577
		l-7.711,9.423c 86.569,63.429, 179.144,115.715, 279.429,156.856c 14.569-16.282, 24-48, 28.285-94.287c 5.146-46.28, 4.285-97.713-1.713-154.284
		c-5.998-56.571-22.287-115.715-47.148-177.423C 688.464,210.573, 655.893,159.14, 615.605,118.858L 615.605,118.858z" horiz-adv-x="765" data-tags="football" />
<glyph unicode="&#xe036;" d="M 498.024,484.902l-63.432-63.432L 178.291,676.058c 69.431,44.569, 145.727,64.284, 228.014,59.138C 404.592,636.627, 435.444,552.619, 498.024,484.902
		L 498.024,484.902L 498.024,484.902z M 351.445,338.322c-45.429,42.004-99.437,68.578-162.009,81.435c-61.719,12.857-123.43,11.144-184.29-6.858
		c 12.857,81.435, 48.002,151.725, 107.149,210.864c 17.995,17.15, 32.572,29.147, 41.996,36.005l 260.586-258.013L 351.445,338.322L 351.445,338.322z
		 M 646.315,633.193L 538.307,525.192c-50.575,55.713-75.429,122.57-75.429,202.292C 532.309,712.915, 593.168,682.055, 646.315,633.193L 646.315,633.193
		L 646.315,633.193z M 759.463,433.474c-79.722-0.86-146.58,23.141-200.579,72.003l 107.149,107.149C 713.173,561.19, 744.033,501.191, 759.463,433.474
		L 759.463,433.474L 759.463,433.474z M0,352.039c 54.001,19.715, 109.721,24.001, 165.434,14.57c 56.574-9.424, 105.436-31.712, 145.719-68.57
		l-208.291-208.299C 34.285,163.456,0,250.889,0,352.039L0,352.039L0,352.039z M 372.020,318.607l 62.572,63.432L 693.458,124.886
		c-11.997-16.283-24.854-31.712-37.718-44.569c-57.426-57.434-126.856-93.439-207.431-107.149c 7.711,26.566, 11.997,54.001, 13.709,84
		C 468.024,159.17, 438.018,245.751, 372.020,318.607L 372.020,318.607L 372.020,318.607z M 767.174,376.9c 5.146-83.147-13.709-158.584-57.426-228.014
		L 455.16,401.754l 63.432,63.432C 586.309,403.467, 668.604,374.327, 767.174,376.9L 767.174,376.9L 767.174,376.9z M 123.43,70.025L 331.729,278.324
		c 54.001-59.146, 78.002-131.15, 73.716-217.722c-1.713-31.72-7.711-62.579-18.003-92.579C 286.3-32.838, 198.007,0.594, 123.43,70.025
		L 123.43,70.025z" data-tags="basketball" />
<glyph unicode="&#xe037;" d="M 603.425,269.825l-82.284,137.142l-82.284-96l 109.716-150.858l-27.433-192L 411.425-31.891 l 27.433,164.574l-96,109.709l-68.574-82.284
		L 54.858,77.826L0,160.108l 192,82.284l 162.854,272.571c-24.852,12.004-47.14,18.002-68.567,18.002c-15.43,0-28.286-1.712-38.576-5.998
		l-107.996-35.144l-26.572,71.14l 125.998,40.29c 22.288,5.998, 48.86,9.431, 80.571,9.431c 153.431,0, 256.289-81.431, 309.435-245.146l 111.429,39.43
		l 27.426-82.284L 603.425,269.825L 603.425,269.825z M 517.717,595.533c-31.718,31.718-31.718,84.864,0,116.574c 31.71,31.71, 84.856,31.71, 116.567,0
		c 31.718-31.71, 31.718-84.856,0-116.574C 602.573,563.823, 549.427,563.823, 517.717,595.533L 517.717,595.533z" data-tags="sport" />
<glyph unicode="&#xe039;" d="M 145.228,259.073c-59.161,19.894-95.913,46.83-95.913,70.297c0,29.386, 59.376,68.303, 170.338,89.355l 2.633-25.051
		c 0.423-4.015, 2.954-7.499, 6.642-9.141c 1.471-0.654, 3.037-0.977, 4.595-0.977c 2.349,0, 4.679,0.731, 6.643,2.158l 78.4,56.96
		c 3.266,2.373, 5.018,6.309, 4.596,10.323c-0.423,4.015-2.954,7.5-6.643,9.142l-88.53,39.416
		c-3.689,1.641-7.974,1.191-11.237-1.182c-3.266-2.372-5.018-6.308-4.596-10.323l 2.758-26.233
		c-52.532-9.698-98.014-23.798-133.114-41.397C 17.594,390.226, 4.117,354.050, 4.117,329.37c0-17.060, 6.654-42.764, 38.352-68.336
		c 21.283-17.17, 51.009-32.244, 88.354-44.802c 2.389-0.803, 4.818-1.185, 7.206-1.185c 9.438,0, 18.243,5.961, 21.419,15.402
		C 163.423,242.279, 157.058,255.094, 145.228,259.073zM 765.421,329.37c0,19.819-8.875,49.393-51.155,77.733c-28.188,18.894-68.507,35.275-116.601,47.375
		c-11.646,2.93-23.878,5.644-36.357,8.068c-12.236,2.381-24.112-5.622-26.493-17.874c-2.381-12.253, 5.621-24.114, 17.875-26.494
		c 11.677-2.269, 23.098-4.803, 33.95-7.533c 92.279-23.215, 133.584-57.547, 133.584-81.273c0-22.858-36.639-54.117-117.482-76.974
		l-5.671,27.334c-0.821,3.953-3.687,7.168-7.52,8.434c-3.836,1.265-8.051,0.391-11.064-2.295l-72.333-64.492
		c-3.014-2.687-4.364-6.777-3.544-10.73c 0.821-3.954, 3.687-7.168, 7.52-8.434l 92.019-30.13c 1.161-0.383, 2.356-0.306, 3.543-0.306
		c 0.028,0, 0.056,0, 0.084,0c 6.216,0, 11.247,4.812, 11.247,11.036c0,1.084-0.151,2.001-0.437,2.995l-4.639,22.296
		C 709.942,235.308, 765.421,278.709, 765.421,329.37zM 563.031,621.378c 5.206,12.369-0.602,26.616-12.971,31.822l-51.852,21.822c-5.938,2.498-12.627,2.538-18.597,0.105
		c-5.967-2.432-10.724-7.136-13.224-13.075L 366.687,425.145c-56.84-57.892-132.77-141.098-154.559-192.872
		c-36.776-87.388-16.936-170.401, 47.177-197.4c 0.006-0.003, 0.012-0.007, 0.019-0.009c 0.005-0.002, 0.011-0.004, 0.015-0.006
		c 12.274-5.163, 25.249-7.781, 38.566-7.781c 54.533,0, 106.478,42.933, 135.563,112.045c 21.788,51.774, 28.202,164.236, 29.864,245.353
		L 563.031,621.378z M 274.044,69.843c-1.968,8.382-3.95,38.639, 31.101,121.931c 16.654,39.576, 37.845,81.802, 58.139,115.85
		c 12.119,20.333, 21.828,34.239, 29.071,43.358c-1.455-11.554-4.611-28.219-10.677-51.096c-10.159-38.315-25.538-82.985-42.192-122.559
		C 304.434,94.035, 281.413,74.296, 274.044,69.843z M 245.542,218.211c 14.954,35.532, 60.995,90.261, 106.385,139.032
		c-4.708-6.83-9.803-14.677-15.349-23.721c-22.519-36.727-46.154-83.266-64.846-127.686
		c-17.662-41.972-28.58-76.449-32.796-103.372C 225.372,131.712, 226.893,173.899, 245.542,218.211z M 322.119,67.735
		c 0.188,0.254, 0.375,0.49, 0.564,0.746c 16.099,21.967, 32.995,53.857, 50.218,94.784c 19.249,45.738, 36.868,98.202, 47.132,140.341
		c 2.005,8.234, 3.699,15.93, 5.081,23.068c-3.135-66.608-10.082-137.904-25.058-173.491
		C 381.834,109.886, 352.837,78.764, 322.119,67.735z" horiz-adv-x="769.538" data-tags="mixer" />
<glyph unicode="&#xe038;" d="M 623.58,548.316c 52.268-23.132, 91.685-58.265, 118.249-105.396c 27.425-47.125, 34.272-91.685, 19.708-133.665l-59.125,26.556l-5.996,41.989
		l-29.989-25.704l-72.837,32.56l-6.855,47.125l-32.56-29.129l-29.129,12.853l0,1.713 c0,24.853-9.427,47.133-27.425,65.12
		c-17.995,17.995-40.269,27.425-65.12,27.425c-36.844,0-70.265-22.28-84.829-55.701l-6.855-30.848c-2.572-12.853-3.424-38.557-4.284-77.113
		c0-38.564, 3.424-76.261, 10.281-113.105c 7.717-36.844, 23.14-80.545, 47.984-129.389c 24.853-48.844, 58.272-94.257, 99.4-135.385l-214.218,0 
		c-19.708,44.561-35.132,92.545-44.561,144.813c-9.42,52.268-12.853,99.393-11.992,141.381c 3.424,84.829, 10.281,139.669, 17.136,159.377
		l-25.704-11.14l-32.56,29.129l-6.855-47.125l-73.688-32.56l-29.136,25.704l-5.996-41.989l-59.125-26.556
		c-14.564,41.981-7.717,86.541, 18.849,133.665c 27.425,47.133, 66.84,82.264, 119.109,105.396c 23.992,10.281, 46.265,16.285, 65.973,18.849l-41.129,47.984
		l 8.568,42.848l-35.132-11.14l-44.553,52.268c 27.417,31.7, 65.12,42.84, 112.245,33.421c 47.133-9.427, 90.832-37.704, 130.249-83.977
		c 16.277-19.708, 30.848-41.129, 42.84-64.261c 11.992,23.132, 26.563,44.553, 42.84,64.261c 39.416,46.272, 83.117,74.549, 130.249,83.977
		c 47.125,9.42, 84.829-1.72, 112.245-33.421l-43.7-51.416l-40.269,11.14l 10.281-46.265l-38.557-45.42
		C 577.315,564.6, 599.588,558.596, 623.58,548.316L 623.58,548.316L 623.58,548.316z M 400.802,466.060
		c-21.428-21.421-21.428-55.701,0-77.12c 21.421-21.421, 55.693-21.421, 77.113,0c 21.421,21.421, 21.421,55.701,0,77.12
		C 456.494,487.48, 422.222,487.48, 400.802,466.060L 400.802,466.060z" horiz-adv-x="769" data-tags="chill" />
</font>
</defs>
</svg>
